<?xml version="1.0" encoding="UTF-8" standalone="no"?>
<!DOCTYPE svg PUBLIC "-//W3C//DTD SVG 1.1//EN"
 "http://www.w3.org/Graphics/SVG/1.1/DTD/svg11.dtd">
<!-- Generated by graphviz version 2.43.0 (0)
 -->
<!-- Title: tt::chess::ex::check Pages: 1 -->
<svg width="144pt" height="302pt"
 viewBox="0.00 0.00 144.00 302.00" xmlns="http://www.w3.org/2000/svg" xmlns:xlink="http://www.w3.org/1999/xlink">
<g id="graph0" class="graph" transform="scale(1 1) rotate(0) translate(4 298)">
<title>tt::chess::ex::check</title>
<!-- Node1 -->
<g id="Node000001" class="node">
<title>Node1</title>
<g id="a_Node000001"><a xlink:title="Thrown when turn cannot be perfomred because of King beeing in check.">
<polygon fill="#999999" stroke="#666666" points="123,-74 13,-74 13,-55 123,-55 123,-74"/>
<text text-anchor="middle" x="68" y="-62" font-family="Helvetica,sans-Serif" font-size="10.00">tt::chess::ex::check</text>
</a>
</g>
</g>
<!-- Node6 -->
<g id="Node000006" class="node">
<title>Node6</title>
<g id="a_Node000006"><a xlink:href="classtt_1_1chess_1_1ex_1_1checkmate.html" target="_top" xlink:title="Thrown when turn cannot be perfomred because of King is under checkmate.">
<polygon fill="white" stroke="#666666" points="136,-19 0,-19 0,0 136,0 136,-19"/>
<text text-anchor="middle" x="68" y="-7" font-family="Helvetica,sans-Serif" font-size="10.00">tt::chess::ex::checkmate</text>
</a>
</g>
</g>
<!-- Node1&#45;&gt;Node6 -->
<g id="edge5_Node000001_Node000006" class="edge">
<title>Node1&#45;&gt;Node6</title>
<g id="a_edge5_Node000001_Node000006"><a xlink:title=" ">
<path fill="none" stroke="#63b8ff" d="M68,-44.66C68,-35.93 68,-25.99 68,-19.09"/>
<polygon fill="#63b8ff" stroke="#63b8ff" points="64.5,-44.75 68,-54.75 71.5,-44.75 64.5,-44.75"/>
</a>
</g>
</g>
<!-- Node2 -->
<g id="Node000002" class="node">
<title>Node2</title>
<g id="a_Node000002"><a xlink:href="classtt_1_1ex_1_1illegal__move.html" target="_top" xlink:title="Base class for Board::makeMove() function errors.">
<polygon fill="white" stroke="#666666" points="123.5,-129 12.5,-129 12.5,-110 123.5,-110 123.5,-129"/>
<text text-anchor="middle" x="68" y="-117" font-family="Helvetica,sans-Serif" font-size="10.00">tt::ex::illegal_move</text>
</a>
</g>
</g>
<!-- Node2&#45;&gt;Node1 -->
<g id="edge1_Node000001_Node000002" class="edge">
<title>Node2&#45;&gt;Node1</title>
<g id="a_edge1_Node000001_Node000002"><a xlink:title=" ">
<path fill="none" stroke="#63b8ff" d="M68,-99.66C68,-90.93 68,-80.99 68,-74.09"/>
<polygon fill="#63b8ff" stroke="#63b8ff" points="64.5,-99.75 68,-109.75 71.5,-99.75 64.5,-99.75"/>
</a>
</g>
</g>
<!-- Node3 -->
<g id="Node000003" class="node">
<title>Node3</title>
<g id="a_Node000003"><a xlink:href="classtt_1_1ex_1_1tartan.html" target="_top" xlink:title="Base class for all tartan exceptions.">
<polygon fill="white" stroke="#666666" points="106.5,-184 29.5,-184 29.5,-165 106.5,-165 106.5,-184"/>
<text text-anchor="middle" x="68" y="-172" font-family="Helvetica,sans-Serif" font-size="10.00">tt::ex::tartan</text>
</a>
</g>
</g>
<!-- Node3&#45;&gt;Node2 -->
<g id="edge2_Node000002_Node000003" class="edge">
<title>Node3&#45;&gt;Node2</title>
<g id="a_edge2_Node000002_Node000003"><a xlink:title=" ">
<path fill="none" stroke="#63b8ff" d="M68,-154.66C68,-145.93 68,-135.99 68,-129.09"/>
<polygon fill="#63b8ff" stroke="#63b8ff" points="64.5,-154.75 68,-164.75 71.5,-154.75 64.5,-154.75"/>
</a>
</g>
</g>
<!-- Node4 -->
<g id="Node000004" class="node">
<title>Node4</title>
<g id="a_Node000004"><a target="_parent" xlink:href="https://en.cppreference.com/w/cpp/error/logic_error.html" xlink:title=" ">
<polygon fill="white" stroke="#666666" points="112.5,-239 23.5,-239 23.5,-220 112.5,-220 112.5,-239"/>
<text text-anchor="middle" x="68" y="-227" font-family="Helvetica,sans-Serif" font-size="10.00">std::logic_error</text>
</a>
</g>
</g>
<!-- Node4&#45;&gt;Node3 -->
<g id="edge3_Node000003_Node000004" class="edge">
<title>Node4&#45;&gt;Node3</title>
<g id="a_edge3_Node000003_Node000004"><a xlink:title=" ">
<path fill="none" stroke="#63b8ff" d="M68,-209.66C68,-200.93 68,-190.99 68,-184.09"/>
<polygon fill="#63b8ff" stroke="#63b8ff" points="64.5,-209.75 68,-219.75 71.5,-209.75 64.5,-209.75"/>
</a>
</g>
</g>
<!-- Node5 -->
<g id="Node000005" class="node">
<title>Node5</title>
<g id="a_Node000005"><a target="_parent" xlink:href="https://en.cppreference.com/w/cpp/error/exception.html" xlink:title=" ">
<polygon fill="white" stroke="#666666" points="111,-294 25,-294 25,-275 111,-275 111,-294"/>
<text text-anchor="middle" x="68" y="-282" font-family="Helvetica,sans-Serif" font-size="10.00">std::exception</text>
</a>
</g>
</g>
<!-- Node5&#45;&gt;Node4 -->
<g id="edge4_Node000004_Node000005" class="edge">
<title>Node5&#45;&gt;Node4</title>
<g id="a_edge4_Node000004_Node000005"><a xlink:title=" ">
<path fill="none" stroke="#63b8ff" d="M68,-264.66C68,-255.93 68,-245.99 68,-239.09"/>
<polygon fill="#63b8ff" stroke="#63b8ff" points="64.5,-264.75 68,-274.75 71.5,-264.75 64.5,-264.75"/>
</a>
</g>
</g>
</g>
</svg>
