<?xml version="1.0" encoding="UTF-8" standalone="no"?>
<!DOCTYPE svg PUBLIC "-//W3C//DTD SVG 1.1//EN"
 "http://www.w3.org/Graphics/SVG/1.1/DTD/svg11.dtd">
<!-- Generated by graphviz version 2.43.0 (0)
 -->
<!-- Title: tt::Piece Pages: 1 -->
<svg width="894pt" height="237pt"
 viewBox="0.00 0.00 894.00 237.01" xmlns="http://www.w3.org/2000/svg" xmlns:xlink="http://www.w3.org/1999/xlink">
<g id="graph0" class="graph" transform="scale(1 1) rotate(0) translate(4 233.01)">
<title>tt::Piece</title>
<!-- Node1 -->
<g id="Node000001" class="node">
<title>Node1</title>
<g id="a_Node000001"><a xlink:title="Generic board memeber API.">
<polygon fill="#999999" stroke="#666666" points="268,-142.51 212,-142.51 212,-123.51 268,-123.51 268,-142.51"/>
<text text-anchor="middle" x="240" y="-130.51" font-family="Helvetica,sans-Serif" font-size="10.00">tt::Piece</text>
</a>
</g>
</g>
<!-- Node6 -->
<g id="Node000006" class="node">
<title>Node6</title>
<g id="a_Node000006"><a target="_parent" xlink:href="https://en.cppreference.com/w/cpp/container/forward_list.html" xlink:title=" ">
<polygon fill="white" stroke="#666666" points="558,-109.01 454,-109.01 454,-79.01 558,-79.01 558,-109.01"/>
<text text-anchor="start" x="462" y="-97.01" font-family="Helvetica,sans-Serif" font-size="10.00">std::forward_list&lt;</text>
<text text-anchor="middle" x="506" y="-86.01" font-family="Helvetica,sans-Serif" font-size="10.00"> const Piece * &gt;</text>
</a>
</g>
</g>
<!-- Node1&#45;&gt;Node6 -->
<g id="edge6_Node000006_Node000001" class="edge">
<title>Node1&#45;&gt;Node6</title>
<g id="a_edge6_Node000006_Node000001"><a xlink:title=" ">
<path fill="none" stroke="#9a32cd" stroke-dasharray="5,2" d="M263.32,-118.06C270.3,-114.1 278.22,-110.29 286,-108.01 341.75,-91.64 408.79,-89.81 453.89,-91"/>
<polygon fill="#9a32cd" stroke="#9a32cd" points="261.21,-115.25 254.48,-123.43 264.84,-121.23 261.21,-115.25"/>
</a>
</g>
<text text-anchor="middle" x="310.5" y="-111.01" font-family="Helvetica,sans-Serif" font-size="10.00" fill="grey"> elements</text>
</g>
<!-- Node8 -->
<g id="Node000008" class="node">
<title>Node8</title>
<g id="a_Node000008"><a xlink:href="classtt_1_1Piece_1_1Turn.html" target="_top" xlink:title="Generic Piece Turn on Board.">
<polygon fill="white" stroke="#666666" points="436,-217.51 353,-217.51 353,-198.51 436,-198.51 436,-217.51"/>
<text text-anchor="middle" x="394.5" y="-205.51" font-family="Helvetica,sans-Serif" font-size="10.00">tt::Piece::Turn</text>
</a>
</g>
</g>
<!-- Node1&#45;&gt;Node8 -->
<g id="edge10_Node000008_Node000001" class="edge">
<title>Node1&#45;&gt;Node8</title>
<g id="a_edge10_Node000008_Node000001"><a xlink:title=" ">
<path fill="none" stroke="#9a32cd" stroke-dasharray="5,2" d="M277.62,-145.46C299.66,-153.34 325.27,-163.26 335,-170.01 344.83,-176.82 343.32,-182.98 353,-190.01 357.36,-193.17 362.36,-195.95 367.33,-198.32"/>
<polygon fill="#9a32cd" stroke="#9a32cd" points="278.73,-142.14 268.13,-142.12 276.4,-148.75 278.73,-142.14"/>
</a>
</g>
<text text-anchor="middle" x="310.5" y="-184.01" font-family="Helvetica,sans-Serif" font-size="10.00" fill="grey"> t_capture</text>
<text text-anchor="middle" x="310.5" y="-173.01" font-family="Helvetica,sans-Serif" font-size="10.00" fill="grey">t_piece</text>
</g>
<!-- Node2 -->
<g id="Node000002" class="node">
<title>Node2</title>
<g id="a_Node000002"><a xlink:href="classtt_1_1Piece_1_1Position.html" target="_top" xlink:title="Piece position at the Board.">
<polygon fill="white" stroke="#666666" points="101,-189.51 0,-189.51 0,-170.51 101,-170.51 101,-189.51"/>
<text text-anchor="middle" x="50.5" y="-177.51" font-family="Helvetica,sans-Serif" font-size="10.00">tt::Piece::Position</text>
</a>
</g>
</g>
<!-- Node2&#45;&gt;Node1 -->
<g id="edge1_Node000001_Node000002" class="edge">
<title>Node2&#45;&gt;Node1</title>
<g id="a_edge1_Node000001_Node000002"><a xlink:title=" ">
<path fill="none" stroke="#9a32cd" stroke-dasharray="5,2" d="M99.16,-168.06C134.81,-159.12 182.29,-147.22 211.74,-139.84"/>
<polygon fill="#9a32cd" stroke="#9a32cd" points="98.29,-164.67 89.44,-170.49 99.99,-171.46 98.29,-164.67"/>
</a>
</g>
<text text-anchor="middle" x="156.5" y="-165.01" font-family="Helvetica,sans-Serif" font-size="10.00" fill="grey"> p_position</text>
</g>
<!-- Node2&#45;&gt;Node8 -->
<g id="edge9_Node000008_Node000002" class="edge">
<title>Node2&#45;&gt;Node8</title>
<g id="a_edge9_Node000008_Node000002"><a xlink:title=" ">
<path fill="none" stroke="#9a32cd" stroke-dasharray="5,2" d="M111.55,-184.92C180.87,-190.6 292.98,-199.78 352.81,-204.67"/>
<polygon fill="#9a32cd" stroke="#9a32cd" points="111.48,-181.41 101.23,-184.08 110.91,-188.38 111.48,-181.41"/>
</a>
</g>
<text text-anchor="middle" x="240" y="-211.01" font-family="Helvetica,sans-Serif" font-size="10.00" fill="grey"> t_from</text>
<text text-anchor="middle" x="240" y="-200.01" font-family="Helvetica,sans-Serif" font-size="10.00" fill="grey">t_to</text>
</g>
<!-- Node3 -->
<g id="Node000003" class="node">
<title>Node3</title>
<g id="a_Node000003"><a xlink:href="classtt_1_1Board.html" target="_top" xlink:title="8x8 game board">
<polygon fill="white" stroke="#666666" points="886,-122.51 827,-122.51 827,-103.51 886,-103.51 886,-122.51"/>
<text text-anchor="middle" x="856.5" y="-110.51" font-family="Helvetica,sans-Serif" font-size="10.00">tt::Board</text>
</a>
</g>
</g>
<!-- Node3&#45;&gt;Node1 -->
<g id="edge2_Node000001_Node000003" class="edge">
<title>Node3&#45;&gt;Node1</title>
<g id="a_edge2_Node000001_Node000003"><a xlink:title=" ">
<path fill="none" stroke="#9a32cd" stroke-dasharray="5,2" d="M816.34,-118.35C813.86,-118.6 811.4,-118.82 809,-119.01 601.48,-134.91 350.18,-134.11 268.24,-133.33"/>
<polygon fill="#9a32cd" stroke="#9a32cd" points="816.98,-121.8 826.53,-117.22 816.2,-114.85 816.98,-121.8"/>
</a>
</g>
<text text-anchor="middle" x="506" y="-135.01" font-family="Helvetica,sans-Serif" font-size="10.00" fill="grey"> p_board</text>
</g>
<!-- Node4 -->
<g id="Node000004" class="node">
<title>Node4</title>
<g id="a_Node000004"><a target="_parent" xlink:href="https://en.cppreference.com/w/cpp/container/array.html" xlink:title=" ">
<polygon fill="white" stroke="#666666" points="673,-180.51 622,-180.51 622,-161.51 673,-161.51 673,-180.51"/>
<text text-anchor="middle" x="647.5" y="-168.51" font-family="Helvetica,sans-Serif" font-size="10.00">BoardT</text>
</a>
</g>
</g>
<!-- Node4&#45;&gt;Node3 -->
<g id="edge3_Node000003_Node000004" class="edge">
<title>Node4&#45;&gt;Node3</title>
<g id="a_edge3_Node000003_Node000004"><a xlink:title=" ">
<path fill="none" stroke="#8b1a1a" d="M683.3,-170.57C716.69,-169.07 767.97,-163.87 809,-147.01 822.88,-141.3 836.45,-130.61 845.32,-122.73"/>
<polygon fill="#8b1a1a" stroke="#8b1a1a" points="682.98,-167.08 673.12,-170.94 683.24,-174.07 682.98,-167.08"/>
</a>
</g>
</g>
<!-- Node5 -->
<g id="Node000005" class="node">
<title>Node5</title>
<g id="a_Node000005"><a xlink:title=" ">
<polygon fill="white" stroke="#bfbfbf" points="409,-180.51 380,-180.51 380,-161.51 409,-161.51 409,-180.51"/>
<text text-anchor="middle" x="394.5" y="-168.51" font-family="Helvetica,sans-Serif" font-size="10.00">T</text>
</a>
</g>
</g>
<!-- Node5&#45;&gt;Node4 -->
<g id="edge4_Node000004_Node000005" class="edge">
<title>Node5&#45;&gt;Node4</title>
<g id="a_edge4_Node000004_Node000005"><a xlink:title=" ">
<path fill="none" stroke="#9a32cd" stroke-dasharray="5,2" d="M419.36,-171.01C466.98,-171.01 573.42,-171.01 621.76,-171.01"/>
<polygon fill="#9a32cd" stroke="#9a32cd" points="419.35,-167.51 409.35,-171.01 419.35,-174.51 419.35,-167.51"/>
</a>
</g>
<text text-anchor="middle" x="506" y="-174.01" font-family="Helvetica,sans-Serif" font-size="10.00" fill="grey"> elements</text>
</g>
<!-- Node6&#45;&gt;Node3 -->
<g id="edge5_Node000003_Node000006" class="edge">
<title>Node6&#45;&gt;Node3</title>
<g id="a_edge5_Node000003_Node000006"><a xlink:title=" ">
<path fill="none" stroke="#9a32cd" stroke-dasharray="5,2" d="M568.42,-97.35C644.37,-101.5 770.49,-108.37 826.81,-111.44"/>
<polygon fill="#9a32cd" stroke="#9a32cd" points="568.22,-93.84 558.05,-96.79 567.84,-100.83 568.22,-93.84"/>
</a>
</g>
<text text-anchor="middle" x="647.5" y="-108.01" font-family="Helvetica,sans-Serif" font-size="10.00" fill="grey"> b_capturedPieces</text>
</g>
<!-- Node7 -->
<g id="Node000007" class="node">
<title>Node7</title>
<g id="a_Node000007"><a target="_parent" xlink:href="https://en.cppreference.com/w/cpp/container/list.html" xlink:title=" ">
<polygon fill="white" stroke="#666666" points="707,-229.01 588,-229.01 588,-199.01 707,-199.01 707,-229.01"/>
<text text-anchor="start" x="596" y="-217.01" font-family="Helvetica,sans-Serif" font-size="10.00">std::list&lt; const Piece</text>
<text text-anchor="middle" x="647.5" y="-206.01" font-family="Helvetica,sans-Serif" font-size="10.00">::Turn * &gt;</text>
</a>
</g>
</g>
<!-- Node7&#45;&gt;Node3 -->
<g id="edge7_Node000003_Node000007" class="edge">
<title>Node7&#45;&gt;Node3</title>
<g id="a_edge7_Node000003_Node000007"><a xlink:title=" ">
<path fill="none" stroke="#9a32cd" stroke-dasharray="5,2" d="M717.31,-204.19C747.23,-197.61 781.63,-186.77 809,-169.01 827.45,-157.04 842.3,-135.47 849.92,-122.88"/>
<polygon fill="#9a32cd" stroke="#9a32cd" points="716.43,-200.8 707.35,-206.26 717.85,-207.65 716.43,-200.8"/>
</a>
</g>
<text text-anchor="middle" x="773" y="-201.01" font-family="Helvetica,sans-Serif" font-size="10.00" fill="grey"> b_history</text>
</g>
<!-- Node8&#45;&gt;Node7 -->
<g id="edge8_Node000007_Node000008" class="edge">
<title>Node8&#45;&gt;Node7</title>
<g id="a_edge8_Node000007_Node000008"><a xlink:title=" ">
<path fill="none" stroke="#9a32cd" stroke-dasharray="5,2" d="M446.13,-209.22C487.05,-210.19 544.72,-211.57 587.69,-212.6"/>
<polygon fill="#9a32cd" stroke="#9a32cd" points="446.19,-205.72 436.11,-208.98 446.02,-212.71 446.19,-205.72"/>
</a>
</g>
<text text-anchor="middle" x="506" y="-214.01" font-family="Helvetica,sans-Serif" font-size="10.00" fill="grey"> elements</text>
</g>
<!-- Node9 -->
<g id="Node000009" class="node">
<title>Node9</title>
<g id="a_Node000009"><a target="_parent" xlink:href="https://en.cppreference.com/w/cpp/utility/functional/function.html" xlink:title=" ">
<polygon fill="white" stroke="#bfbfbf" points="719,-58.01 576,-58.01 576,-28.01 719,-28.01 719,-58.01"/>
<text text-anchor="start" x="584" y="-46.01" font-family="Helvetica,sans-Serif" font-size="10.00">std::function&lt; PieceTypes</text>
<text text-anchor="middle" x="647.5" y="-35.01" font-family="Helvetica,sans-Serif" font-size="10.00">RetT(PieceTypesArgT)&gt;</text>
</a>
</g>
</g>
<!-- Node9&#45;&gt;Node3 -->
<g id="edge11_Node000003_Node000009" class="edge">
<title>Node9&#45;&gt;Node3</title>
<g id="a_edge11_Node000003_Node000009"><a xlink:title=" ">
<path fill="none" stroke="#9a32cd" stroke-dasharray="5,2" d="M729.21,-46.63C755.68,-50.25 784.54,-56.91 809,-69.01 825.34,-77.08 839.83,-92.87 848.13,-103.17"/>
<polygon fill="#9a32cd" stroke="#9a32cd" points="729.56,-43.15 719.2,-45.39 728.7,-50.09 729.56,-43.15"/>
</a>
</g>
<text text-anchor="middle" x="773" y="-72.01" font-family="Helvetica,sans-Serif" font-size="10.00" fill="grey"> b_pieceGetter</text>
</g>
<!-- Node10 -->
<g id="Node000010" class="node">
<title>Node10</title>
<g id="a_Node000010"><a target="_parent" xlink:href="https://en.cppreference.com/w/cpp/types/size_t.html" xlink:title=" ">
<polygon fill="white" stroke="#bfbfbf" points="83.5,-42.51 17.5,-42.51 17.5,-23.51 83.5,-23.51 83.5,-42.51"/>
<text text-anchor="middle" x="50.5" y="-30.51" font-family="Helvetica,sans-Serif" font-size="10.00">std::size_t</text>
</a>
</g>
</g>
<!-- Node10&#45;&gt;Node1 -->
<g id="edge13_Node000001_Node000010" class="edge">
<title>Node10&#45;&gt;Node1</title>
<g id="a_edge13_Node000001_Node000010"><a xlink:title=" ">
<path fill="none" stroke="#9a32cd" stroke-dasharray="5,2" d="M78.64,-47.48C117.54,-68.23 188.08,-105.85 221.08,-123.45"/>
<polygon fill="#9a32cd" stroke="#9a32cd" points="79.95,-44.21 69.48,-42.59 76.65,-50.39 79.95,-44.21"/>
</a>
</g>
<text text-anchor="middle" x="156.5" y="-122.01" font-family="Helvetica,sans-Serif" font-size="10.00" fill="grey"> p_movesMade</text>
<text text-anchor="middle" x="156.5" y="-111.01" font-family="Helvetica,sans-Serif" font-size="10.00" fill="grey">p_turnIndex</text>
</g>
<!-- Node10&#45;&gt;Node3 -->
<g id="edge12_Node000003_Node000010" class="edge">
<title>Node10&#45;&gt;Node3</title>
<g id="a_edge12_Node000003_Node000010"><a xlink:title=" ">
<path fill="none" stroke="#9a32cd" stroke-dasharray="5,2" d="M93.84,-21.21C131.6,-11.74 188.55,-0.01 239,-0.01 239,-0.01 239,-0.01 648.5,-0.01 722.35,-0.01 749.03,0.09 809,-43.01 830.8,-58.67 845.28,-87.98 851.71,-103.23"/>
<polygon fill="#9a32cd" stroke="#9a32cd" points="92.53,-17.93 83.71,-23.81 94.27,-24.71 92.53,-17.93"/>
</a>
</g>
<text text-anchor="middle" x="394.5" y="-3.01" font-family="Helvetica,sans-Serif" font-size="10.00" fill="grey"> b_turnIndex</text>
</g>
</g>
</svg>
