<?xml version="1.0" encoding="UTF-8" standalone="no"?>
<!DOCTYPE svg PUBLIC "-//W3C//DTD SVG 1.1//EN"
 "http://www.w3.org/Graphics/SVG/1.1/DTD/svg11.dtd">
<!-- Generated by graphviz version 2.43.0 (0)
 -->
<!-- Title: tt::chess::Pawn::Turn Pages: 1 -->
<svg width="1032pt" height="284pt"
 viewBox="0.00 0.00 1032.00 283.50" xmlns="http://www.w3.org/2000/svg" xmlns:xlink="http://www.w3.org/1999/xlink">
<g id="graph0" class="graph" transform="scale(1 1) rotate(0) translate(4 279.5)">
<title>tt::chess::Pawn::Turn</title>
<!-- Node1 -->
<g id="Node000001" class="node">
<title>Node1</title>
<g id="a_Node000001"><a xlink:title="Pawn Turn.">
<polygon fill="#999999" stroke="#666666" points="470.5,-190 354.5,-190 354.5,-171 470.5,-171 470.5,-190"/>
<text text-anchor="middle" x="412.5" y="-178" font-family="Helvetica,sans-Serif" font-size="10.00">tt::chess::Pawn::Turn</text>
</a>
</g>
</g>
<!-- Node2 -->
<g id="Node000002" class="node">
<title>Node2</title>
<g id="a_Node000002"><a xlink:href="classtt_1_1Piece_1_1Turn.html" target="_top" xlink:title="Generic Piece Turn on Board.">
<polygon fill="white" stroke="#666666" points="256,-202 173,-202 173,-183 256,-183 256,-202"/>
<text text-anchor="middle" x="214.5" y="-190" font-family="Helvetica,sans-Serif" font-size="10.00">tt::Piece::Turn</text>
</a>
</g>
</g>
<!-- Node2&#45;&gt;Node1 -->
<g id="edge1_Node000001_Node000002" class="edge">
<title>Node2&#45;&gt;Node1</title>
<g id="a_edge1_Node000001_Node000002"><a xlink:title=" ">
<path fill="none" stroke="#63b8ff" d="M266.11,-189.4C293.06,-187.75 326.32,-185.72 354.22,-184.01"/>
<polygon fill="#63b8ff" stroke="#63b8ff" points="265.88,-185.91 256.11,-190.01 266.31,-192.9 265.88,-185.91"/>
</a>
</g>
</g>
<!-- Node9 -->
<g id="Node000009" class="node">
<title>Node9</title>
<g id="a_Node000009"><a target="_parent" xlink:href="https://en.cppreference.com/w/cpp/container/list.html" xlink:title=" ">
<polygon fill="white" stroke="#666666" points="472,-67.5 353,-67.5 353,-37.5 472,-37.5 472,-67.5"/>
<text text-anchor="start" x="361" y="-55.5" font-family="Helvetica,sans-Serif" font-size="10.00">std::list&lt; const Piece</text>
<text text-anchor="middle" x="412.5" y="-44.5" font-family="Helvetica,sans-Serif" font-size="10.00">::Turn * &gt;</text>
</a>
</g>
</g>
<!-- Node2&#45;&gt;Node9 -->
<g id="edge11_Node000009_Node000002" class="edge">
<title>Node2&#45;&gt;Node9</title>
<g id="a_edge11_Node000009_Node000002"><a xlink:title=" ">
<path fill="none" stroke="#9a32cd" stroke-dasharray="5,2" d="M230.06,-175.04C251.81,-149.97 295.16,-103.79 341,-76.5 346.67,-73.13 352.87,-70.14 359.18,-67.53"/>
<polygon fill="#9a32cd" stroke="#9a32cd" points="227.12,-173.08 223.29,-182.96 232.45,-177.63 227.12,-173.08"/>
</a>
</g>
<text text-anchor="middle" x="298.5" y="-130.5" font-family="Helvetica,sans-Serif" font-size="10.00" fill="grey"> elements</text>
</g>
<!-- Node3 -->
<g id="Node000003" class="node">
<title>Node3</title>
<g id="a_Node000003"><a xlink:href="classtt_1_1Piece_1_1Position.html" target="_top" xlink:title="Piece position at the Board.">
<polygon fill="white" stroke="#666666" points="101,-232 0,-232 0,-213 101,-213 101,-232"/>
<text text-anchor="middle" x="50.5" y="-220" font-family="Helvetica,sans-Serif" font-size="10.00">tt::Piece::Position</text>
</a>
</g>
</g>
<!-- Node3&#45;&gt;Node2 -->
<g id="edge2_Node000002_Node000003" class="edge">
<title>Node3&#45;&gt;Node2</title>
<g id="a_edge2_Node000002_Node000003"><a xlink:title=" ">
<path fill="none" stroke="#9a32cd" stroke-dasharray="5,2" d="M111.32,-211.42C131.85,-207.62 154.33,-203.46 172.96,-200.01"/>
<polygon fill="#9a32cd" stroke="#9a32cd" points="110.62,-207.99 101.43,-213.25 111.9,-214.87 110.62,-207.99"/>
</a>
</g>
<text text-anchor="middle" x="137" y="-222.5" font-family="Helvetica,sans-Serif" font-size="10.00" fill="grey"> t_from</text>
<text text-anchor="middle" x="137" y="-211.5" font-family="Helvetica,sans-Serif" font-size="10.00" fill="grey">t_to</text>
</g>
<!-- Node4 -->
<g id="Node000004" class="node">
<title>Node4</title>
<g id="a_Node000004"><a xlink:href="classtt_1_1Piece.html" target="_top" xlink:title="Generic board memeber API.">
<polygon fill="white" stroke="#666666" points="818.5,-170 762.5,-170 762.5,-151 818.5,-151 818.5,-170"/>
<text text-anchor="middle" x="790.5" y="-158" font-family="Helvetica,sans-Serif" font-size="10.00">tt::Piece</text>
</a>
</g>
</g>
<!-- Node3&#45;&gt;Node4 -->
<g id="edge4_Node000004_Node000003" class="edge">
<title>Node3&#45;&gt;Node4</title>
<g id="a_edge4_Node000004_Node000003"><a xlink:title=" ">
<path fill="none" stroke="#9a32cd" stroke-dasharray="5,2" d="M82.9,-235.7C115.09,-248.01 166.89,-264.5 213.5,-264.5 213.5,-264.5 213.5,-264.5 630.5,-264.5 699.11,-264.5 761.19,-195.84 782.06,-170.1"/>
<polygon fill="#9a32cd" stroke="#9a32cd" points="84.16,-232.43 73.57,-232.03 81.6,-238.94 84.16,-232.43"/>
</a>
</g>
<text text-anchor="middle" x="412.5" y="-267.5" font-family="Helvetica,sans-Serif" font-size="10.00" fill="grey"> p_position</text>
</g>
<!-- Node4&#45;&gt;Node2 -->
<g id="edge3_Node000002_Node000004" class="edge">
<title>Node4&#45;&gt;Node2</title>
<g id="a_edge3_Node000002_Node000004"><a xlink:title=" ">
<path fill="none" stroke="#9a32cd" stroke-dasharray="5,2" d="M752.46,-167.13C728.2,-171.32 695.78,-176.66 667,-180.5 585.95,-191.31 565.65,-195.02 484,-199.5 412.55,-203.42 394.56,-200.28 323,-200.5 301.22,-200.57 295.73,-201.98 274,-200.5 268.17,-200.1 262.04,-199.49 256.02,-198.77"/>
<polygon fill="#9a32cd" stroke="#9a32cd" points="753.07,-170.57 762.32,-165.4 751.87,-163.68 753.07,-170.57"/>
</a>
</g>
<text text-anchor="middle" x="538" y="-211.5" font-family="Helvetica,sans-Serif" font-size="10.00" fill="grey"> t_capture</text>
<text text-anchor="middle" x="538" y="-200.5" font-family="Helvetica,sans-Serif" font-size="10.00" fill="grey">t_piece</text>
</g>
<!-- Node8 -->
<g id="Node000008" class="node">
<title>Node8</title>
<g id="a_Node000008"><a target="_parent" xlink:href="https://en.cppreference.com/w/cpp/container/forward_list.html" xlink:title=" ">
<polygon fill="white" stroke="#666666" points="1024,-132.5 920,-132.5 920,-102.5 1024,-102.5 1024,-132.5"/>
<text text-anchor="start" x="928" y="-120.5" font-family="Helvetica,sans-Serif" font-size="10.00">std::forward_list&lt;</text>
<text text-anchor="middle" x="972" y="-109.5" font-family="Helvetica,sans-Serif" font-size="10.00"> const Piece * &gt;</text>
</a>
</g>
</g>
<!-- Node4&#45;&gt;Node8 -->
<g id="edge9_Node000008_Node000004" class="edge">
<title>Node4&#45;&gt;Node8</title>
<g id="a_edge9_Node000008_Node000004"><a xlink:title=" ">
<path fill="none" stroke="#9a32cd" stroke-dasharray="5,2" d="M828.74,-151.58C855.15,-145.25 890.9,-136.69 919.95,-129.73"/>
<polygon fill="#9a32cd" stroke="#9a32cd" points="827.67,-148.24 818.76,-153.97 829.3,-155.04 827.67,-148.24"/>
</a>
</g>
<text text-anchor="middle" x="877.5" y="-147.5" font-family="Helvetica,sans-Serif" font-size="10.00" fill="grey"> elements</text>
</g>
<!-- Node5 -->
<g id="Node000005" class="node">
<title>Node5</title>
<g id="a_Node000005"><a xlink:href="classtt_1_1Board.html" target="_top" xlink:title="8x8 game board">
<polygon fill="white" stroke="#666666" points="659,-111 600,-111 600,-92 659,-92 659,-111"/>
<text text-anchor="middle" x="629.5" y="-99" font-family="Helvetica,sans-Serif" font-size="10.00">tt::Board</text>
</a>
</g>
</g>
<!-- Node5&#45;&gt;Node4 -->
<g id="edge5_Node000004_Node000005" class="edge">
<title>Node5&#45;&gt;Node4</title>
<g id="a_edge5_Node000004_Node000005"><a xlink:title=" ">
<path fill="none" stroke="#9a32cd" stroke-dasharray="5,2" d="M668.82,-114.36C686.85,-120.54 708.61,-128.18 728,-135.5 740.94,-140.38 755.26,-146.18 766.83,-150.96"/>
<polygon fill="#9a32cd" stroke="#9a32cd" points="669.82,-111 659.22,-111.09 667.56,-117.63 669.82,-111"/>
</a>
</g>
<text text-anchor="middle" x="706.5" y="-138.5" font-family="Helvetica,sans-Serif" font-size="10.00" fill="grey"> p_board</text>
</g>
<!-- Node6 -->
<g id="Node000006" class="node">
<title>Node6</title>
<g id="a_Node000006"><a target="_parent" xlink:href="https://en.cppreference.com/w/cpp/container/array.html" xlink:title=" ">
<polygon fill="white" stroke="#666666" points="438,-19 387,-19 387,0 438,0 438,-19"/>
<text text-anchor="middle" x="412.5" y="-7" font-family="Helvetica,sans-Serif" font-size="10.00">BoardT</text>
</a>
</g>
</g>
<!-- Node6&#45;&gt;Node5 -->
<g id="edge6_Node000005_Node000006" class="edge">
<title>Node6&#45;&gt;Node5</title>
<g id="a_edge6_Node000005_Node000006"><a xlink:title=" ">
<path fill="none" stroke="#8b1a1a" d="M447.94,-17.85C459.5,-20.9 472.39,-24.57 484,-28.5 524.96,-42.38 535.78,-45.26 574,-65.5 588.83,-73.35 604.73,-84.16 615.5,-91.88"/>
<polygon fill="#8b1a1a" stroke="#8b1a1a" points="448.76,-14.44 438.2,-15.34 447.01,-21.22 448.76,-14.44"/>
</a>
</g>
</g>
<!-- Node7 -->
<g id="Node000007" class="node">
<title>Node7</title>
<g id="a_Node000007"><a xlink:title=" ">
<polygon fill="white" stroke="#bfbfbf" points="229,-19 200,-19 200,0 229,0 229,-19"/>
<text text-anchor="middle" x="214.5" y="-7" font-family="Helvetica,sans-Serif" font-size="10.00">T</text>
</a>
</g>
</g>
<!-- Node7&#45;&gt;Node6 -->
<g id="edge7_Node000006_Node000007" class="edge">
<title>Node7&#45;&gt;Node6</title>
<g id="a_edge7_Node000006_Node000007"><a xlink:title=" ">
<path fill="none" stroke="#9a32cd" stroke-dasharray="5,2" d="M239.74,-9.5C277.23,-9.5 348.87,-9.5 386.7,-9.5"/>
<polygon fill="#9a32cd" stroke="#9a32cd" points="239.28,-6 229.28,-9.5 239.28,-13 239.28,-6"/>
</a>
</g>
<text text-anchor="middle" x="298.5" y="-12.5" font-family="Helvetica,sans-Serif" font-size="10.00" fill="grey"> elements</text>
</g>
<!-- Node8&#45;&gt;Node5 -->
<g id="edge8_Node000005_Node000008" class="edge">
<title>Node8&#45;&gt;Node5</title>
<g id="a_edge8_Node000005_Node000008"><a xlink:title=" ">
<path fill="none" stroke="#9a32cd" stroke-dasharray="5,2" d="M909.72,-114.62C835.71,-111.14 714.29,-105.44 659.24,-102.85"/>
<polygon fill="#9a32cd" stroke="#9a32cd" points="909.69,-118.12 919.84,-115.1 910.02,-111.13 909.69,-118.12"/>
</a>
</g>
<text text-anchor="middle" x="790.5" y="-113.5" font-family="Helvetica,sans-Serif" font-size="10.00" fill="grey"> b_capturedPieces</text>
</g>
<!-- Node9&#45;&gt;Node5 -->
<g id="edge10_Node000005_Node000009" class="edge">
<title>Node9&#45;&gt;Node5</title>
<g id="a_edge10_Node000005_Node000009"><a xlink:title=" ">
<path fill="none" stroke="#9a32cd" stroke-dasharray="5,2" d="M481.97,-65.28C510.54,-70.95 544,-78.03 574,-85.5 582.42,-87.6 591.49,-90.14 599.77,-92.58"/>
<polygon fill="#9a32cd" stroke="#9a32cd" points="482.57,-61.83 472.08,-63.34 481.22,-68.7 482.57,-61.83"/>
</a>
</g>
<text text-anchor="middle" x="538" y="-88.5" font-family="Helvetica,sans-Serif" font-size="10.00" fill="grey"> b_history</text>
</g>
<!-- Node10 -->
<g id="Node000010" class="node">
<title>Node10</title>
<g id="a_Node000010"><a target="_parent" xlink:href="https://en.cppreference.com/w/cpp/utility/functional/function.html" xlink:title=" ">
<polygon fill="white" stroke="#bfbfbf" points="484,-115.5 341,-115.5 341,-85.5 484,-85.5 484,-115.5"/>
<text text-anchor="start" x="349" y="-103.5" font-family="Helvetica,sans-Serif" font-size="10.00">std::function&lt; PieceTypes</text>
<text text-anchor="middle" x="412.5" y="-92.5" font-family="Helvetica,sans-Serif" font-size="10.00">RetT(PieceTypesArgT)&gt;</text>
</a>
</g>
</g>
<!-- Node10&#45;&gt;Node5 -->
<g id="edge12_Node000005_Node000010" class="edge">
<title>Node10&#45;&gt;Node5</title>
<g id="a_edge12_Node000005_Node000010"><a xlink:title=" ">
<path fill="none" stroke="#9a32cd" stroke-dasharray="5,2" d="M494.51,-100.88C531.54,-101.05 573.05,-101.24 599.91,-101.37"/>
<polygon fill="#9a32cd" stroke="#9a32cd" points="494.21,-97.38 484.2,-100.83 494.18,-104.38 494.21,-97.38"/>
</a>
</g>
<text text-anchor="middle" x="538" y="-103.5" font-family="Helvetica,sans-Serif" font-size="10.00" fill="grey"> b_pieceGetter</text>
</g>
<!-- Node11 -->
<g id="Node000011" class="node">
<title>Node11</title>
<g id="a_Node000011"><a target="_parent" xlink:href="https://en.cppreference.com/w/cpp/types/size_t.html" xlink:title=" ">
<polygon fill="white" stroke="#bfbfbf" points="445.5,-153 379.5,-153 379.5,-134 445.5,-134 445.5,-153"/>
<text text-anchor="middle" x="412.5" y="-141" font-family="Helvetica,sans-Serif" font-size="10.00">std::size_t</text>
</a>
</g>
</g>
<!-- Node11&#45;&gt;Node4 -->
<g id="edge14_Node000004_Node000011" class="edge">
<title>Node11&#45;&gt;Node4</title>
<g id="a_edge14_Node000004_Node000011"><a xlink:title=" ">
<path fill="none" stroke="#9a32cd" stroke-dasharray="5,2" d="M455.95,-145.42C533.79,-148.94 697.31,-156.33 762.16,-159.26"/>
<polygon fill="#9a32cd" stroke="#9a32cd" points="455.71,-141.9 445.56,-144.95 455.39,-148.9 455.71,-141.9"/>
</a>
</g>
<text text-anchor="middle" x="629.5" y="-168.5" font-family="Helvetica,sans-Serif" font-size="10.00" fill="grey"> p_movesMade</text>
<text text-anchor="middle" x="629.5" y="-157.5" font-family="Helvetica,sans-Serif" font-size="10.00" fill="grey">p_turnIndex</text>
</g>
<!-- Node11&#45;&gt;Node5 -->
<g id="edge13_Node000005_Node000011" class="edge">
<title>Node11&#45;&gt;Node5</title>
<g id="a_edge13_Node000005_Node000011"><a xlink:title=" ">
<path fill="none" stroke="#9a32cd" stroke-dasharray="5,2" d="M455.81,-135.43C488.18,-129.23 533.93,-120.41 574,-112.5 582.43,-110.84 591.58,-109 599.94,-107.31"/>
<polygon fill="#9a32cd" stroke="#9a32cd" points="454.96,-132.03 445.79,-137.34 456.27,-138.9 454.96,-132.03"/>
</a>
</g>
<text text-anchor="middle" x="538" y="-128.5" font-family="Helvetica,sans-Serif" font-size="10.00" fill="grey"> b_turnIndex</text>
</g>
</g>
</svg>
