<?xml version="1.0" encoding="UTF-8" standalone="no"?>
<!DOCTYPE svg PUBLIC "-//W3C//DTD SVG 1.1//EN"
 "http://www.w3.org/Graphics/SVG/1.1/DTD/svg11.dtd">
<!-- Generated by graphviz version 2.43.0 (0)
 -->
<!-- Title: tt::Piece::TurnMap Pages: 1 -->
<svg width="1061pt" height="291pt"
 viewBox="0.00 0.00 1061.00 290.85" xmlns="http://www.w3.org/2000/svg" xmlns:xlink="http://www.w3.org/1999/xlink">
<g id="graph0" class="graph" transform="scale(1 1) rotate(0) translate(4 286.85)">
<title>tt::Piece::TurnMap</title>
<!-- Node1 -->
<g id="Node000001" class="node">
<title>Node1</title>
<g id="a_Node000001"><a xlink:title="List of Turn objects.">
<polygon fill="#999999" stroke="#666666" points="696,-57.35 592,-57.35 592,-38.35 696,-38.35 696,-57.35"/>
<text text-anchor="middle" x="644" y="-45.35" font-family="Helvetica,sans-Serif" font-size="10.00">tt::Piece::TurnMap</text>
</a>
</g>
</g>
<!-- Node2 -->
<g id="Node000002" class="node">
<title>Node2</title>
<g id="a_Node000002"><a target="_parent" xlink:href="https://en.cppreference.com/w/cpp/container/list.html" xlink:title=" ">
<polygon fill="white" stroke="#666666" points="464.5,-64.35 360.5,-64.35 360.5,-45.35 464.5,-45.35 464.5,-64.35"/>
<text text-anchor="middle" x="412.5" y="-52.35" font-family="Helvetica,sans-Serif" font-size="10.00">std::list&lt; Turn * &gt;</text>
</a>
</g>
</g>
<!-- Node2&#45;&gt;Node1 -->
<g id="edge1_Node000001_Node000002" class="edge">
<title>Node2&#45;&gt;Node1</title>
<g id="a_edge1_Node000001_Node000002"><a xlink:title=" ">
<path fill="none" stroke="#63b8ff" d="M474.78,-52.98C511.37,-51.86 557.32,-50.46 591.94,-49.41"/>
<polygon fill="#63b8ff" stroke="#63b8ff" points="474.61,-49.48 464.72,-53.29 474.82,-56.48 474.61,-49.48"/>
</a>
</g>
</g>
<!-- Node3 -->
<g id="Node000003" class="node">
<title>Node3</title>
<g id="a_Node000003"><a xlink:href="classtt_1_1Piece_1_1Turn.html" target="_top" xlink:title="Generic Piece Turn on Board.">
<polygon fill="white" stroke="#666666" points="256,-93.35 173,-93.35 173,-74.35 256,-74.35 256,-93.35"/>
<text text-anchor="middle" x="214.5" y="-81.35" font-family="Helvetica,sans-Serif" font-size="10.00">tt::Piece::Turn</text>
</a>
</g>
</g>
<!-- Node3&#45;&gt;Node2 -->
<g id="edge2_Node000002_Node000003" class="edge">
<title>Node3&#45;&gt;Node2</title>
<g id="a_edge2_Node000002_Node000003"><a xlink:title=" ">
<path fill="none" stroke="#9a32cd" stroke-dasharray="5,2" d="M266.04,-76.37C295.05,-72.08 331.37,-66.7 360.46,-62.4"/>
<polygon fill="#9a32cd" stroke="#9a32cd" points="265.49,-72.91 256.11,-77.84 266.52,-79.84 265.49,-72.91"/>
</a>
</g>
<text text-anchor="middle" x="298.5" y="-77.85" font-family="Helvetica,sans-Serif" font-size="10.00" fill="grey"> elements</text>
</g>
<!-- Node10 -->
<g id="Node000010" class="node">
<title>Node10</title>
<g id="a_Node000010"><a target="_parent" xlink:href="https://en.cppreference.com/w/cpp/container/list.html" xlink:title=" ">
<polygon fill="white" stroke="#666666" points="472,-149.85 353,-149.85 353,-119.85 472,-119.85 472,-149.85"/>
<text text-anchor="start" x="361" y="-137.85" font-family="Helvetica,sans-Serif" font-size="10.00">std::list&lt; const Piece</text>
<text text-anchor="middle" x="412.5" y="-126.85" font-family="Helvetica,sans-Serif" font-size="10.00">::Turn * &gt;</text>
</a>
</g>
</g>
<!-- Node3&#45;&gt;Node10 -->
<g id="edge12_Node000010_Node000003" class="edge">
<title>Node3&#45;&gt;Node10</title>
<g id="a_edge12_Node000010_Node000003"><a xlink:title=" ">
<path fill="none" stroke="#9a32cd" stroke-dasharray="5,2" d="M262.11,-95.97C289.53,-103.11 324.43,-112.19 353.61,-119.78"/>
<polygon fill="#9a32cd" stroke="#9a32cd" points="262.93,-92.57 252.37,-93.44 261.16,-99.35 262.93,-92.57"/>
</a>
</g>
<text text-anchor="middle" x="298.5" y="-114.85" font-family="Helvetica,sans-Serif" font-size="10.00" fill="grey"> elements</text>
</g>
<!-- Node4 -->
<g id="Node000004" class="node">
<title>Node4</title>
<g id="a_Node000004"><a xlink:href="classtt_1_1Piece_1_1Position.html" target="_top" xlink:title="Piece position at the Board.">
<polygon fill="white" stroke="#666666" points="101,-212.35 0,-212.35 0,-193.35 101,-193.35 101,-212.35"/>
<text text-anchor="middle" x="50.5" y="-200.35" font-family="Helvetica,sans-Serif" font-size="10.00">tt::Piece::Position</text>
</a>
</g>
</g>
<!-- Node4&#45;&gt;Node3 -->
<g id="edge3_Node000003_Node000004" class="edge">
<title>Node4&#45;&gt;Node3</title>
<g id="a_edge3_Node000003_Node000004"><a xlink:title=" ">
<path fill="none" stroke="#9a32cd" stroke-dasharray="5,2" d="M72.81,-187.2C106.86,-162.18 172.55,-113.93 200.45,-93.43"/>
<polygon fill="#9a32cd" stroke="#9a32cd" points="70.47,-184.57 64.48,-193.31 74.61,-190.21 70.47,-184.57"/>
</a>
</g>
<text text-anchor="middle" x="137" y="-164.85" font-family="Helvetica,sans-Serif" font-size="10.00" fill="grey"> t_from</text>
<text text-anchor="middle" x="137" y="-153.85" font-family="Helvetica,sans-Serif" font-size="10.00" fill="grey">t_to</text>
</g>
<!-- Node5 -->
<g id="Node000005" class="node">
<title>Node5</title>
<g id="a_Node000005"><a xlink:href="classtt_1_1Piece.html" target="_top" xlink:title="Generic board memeber API.">
<polygon fill="white" stroke="#666666" points="847.5,-122.35 791.5,-122.35 791.5,-103.35 847.5,-103.35 847.5,-122.35"/>
<text text-anchor="middle" x="819.5" y="-110.35" font-family="Helvetica,sans-Serif" font-size="10.00">tt::Piece</text>
</a>
</g>
</g>
<!-- Node4&#45;&gt;Node5 -->
<g id="edge5_Node000005_Node000004" class="edge">
<title>Node4&#45;&gt;Node5</title>
<g id="a_edge5_Node000005_Node000004"><a xlink:title=" ">
<path fill="none" stroke="#9a32cd" stroke-dasharray="5,2" d="M72.49,-218.29C102.26,-238.63 159.2,-271.85 213.5,-271.85 213.5,-271.85 213.5,-271.85 645,-271.85 726.4,-271.85 712.36,-194.83 775,-142.85 783.9,-135.47 794.57,-128.08 803.12,-122.49"/>
<polygon fill="#9a32cd" stroke="#9a32cd" points="74.35,-215.32 64.15,-212.44 70.33,-221.05 74.35,-215.32"/>
</a>
</g>
<text text-anchor="middle" x="412.5" y="-274.85" font-family="Helvetica,sans-Serif" font-size="10.00" fill="grey"> p_position</text>
</g>
<!-- Node5&#45;&gt;Node3 -->
<g id="edge4_Node000003_Node000005" class="edge">
<title>Node5&#45;&gt;Node3</title>
<g id="a_edge4_Node000003_Node000005"><a xlink:title=" ">
<path fill="none" stroke="#9a32cd" stroke-dasharray="5,2" d="M801.21,-96.12C778.97,-75.85 738.15,-42.67 696,-28.85 546.05,20.33 495.12,-1.91 341,-35.85 302.04,-44.43 259.13,-62.96 234.94,-74.32"/>
<polygon fill="#9a32cd" stroke="#9a32cd" points="799.09,-98.93 808.79,-103.2 803.87,-93.82 799.09,-98.93"/>
</a>
</g>
<text text-anchor="middle" x="538" y="-16.85" font-family="Helvetica,sans-Serif" font-size="10.00" fill="grey"> t_capture</text>
<text text-anchor="middle" x="538" y="-5.85" font-family="Helvetica,sans-Serif" font-size="10.00" fill="grey">t_piece</text>
</g>
<!-- Node9 -->
<g id="Node000009" class="node">
<title>Node9</title>
<g id="a_Node000009"><a target="_parent" xlink:href="https://en.cppreference.com/w/cpp/container/forward_list.html" xlink:title=" ">
<polygon fill="white" stroke="#666666" points="1053,-150.85 949,-150.85 949,-120.85 1053,-120.85 1053,-150.85"/>
<text text-anchor="start" x="957" y="-138.85" font-family="Helvetica,sans-Serif" font-size="10.00">std::forward_list&lt;</text>
<text text-anchor="middle" x="1001" y="-127.85" font-family="Helvetica,sans-Serif" font-size="10.00"> const Piece * &gt;</text>
</a>
</g>
</g>
<!-- Node5&#45;&gt;Node9 -->
<g id="edge10_Node000009_Node000005" class="edge">
<title>Node5&#45;&gt;Node9</title>
<g id="a_edge10_Node000009_Node000005"><a xlink:title=" ">
<path fill="none" stroke="#9a32cd" stroke-dasharray="5,2" d="M857.74,-117.62C884.15,-121 919.9,-125.58 948.95,-129.31"/>
<polygon fill="#9a32cd" stroke="#9a32cd" points="858.13,-114.14 847.76,-116.34 857.24,-121.08 858.13,-114.14"/>
</a>
</g>
<text text-anchor="middle" x="906.5" y="-129.85" font-family="Helvetica,sans-Serif" font-size="10.00" fill="grey"> elements</text>
</g>
<!-- Node6 -->
<g id="Node000006" class="node">
<title>Node6</title>
<g id="a_Node000006"><a xlink:href="classtt_1_1Board.html" target="_top" xlink:title="8x8 game board">
<polygon fill="white" stroke="#666666" points="673.5,-168.35 614.5,-168.35 614.5,-149.35 673.5,-149.35 673.5,-168.35"/>
<text text-anchor="middle" x="644" y="-156.35" font-family="Helvetica,sans-Serif" font-size="10.00">tt::Board</text>
</a>
</g>
</g>
<!-- Node6&#45;&gt;Node5 -->
<g id="edge6_Node000005_Node000006" class="edge">
<title>Node6&#45;&gt;Node5</title>
<g id="a_edge6_Node000005_Node000006"><a xlink:title=" ">
<path fill="none" stroke="#9a32cd" stroke-dasharray="5,2" d="M678.13,-145.71C689.39,-141.55 702.14,-137.17 714,-133.85 739.84,-126.61 769.93,-120.84 791.17,-117.19"/>
<polygon fill="#9a32cd" stroke="#9a32cd" points="676.78,-142.48 668.66,-149.28 679.26,-149.02 676.78,-142.48"/>
</a>
</g>
<text text-anchor="middle" x="735.5" y="-136.85" font-family="Helvetica,sans-Serif" font-size="10.00" fill="grey"> p_board</text>
</g>
<!-- Node7 -->
<g id="Node000007" class="node">
<title>Node7</title>
<g id="a_Node000007"><a target="_parent" xlink:href="https://en.cppreference.com/w/cpp/container/array.html" xlink:title=" ">
<polygon fill="white" stroke="#666666" points="438,-235.35 387,-235.35 387,-216.35 438,-216.35 438,-235.35"/>
<text text-anchor="middle" x="412.5" y="-223.35" font-family="Helvetica,sans-Serif" font-size="10.00">BoardT</text>
</a>
</g>
</g>
<!-- Node7&#45;&gt;Node6 -->
<g id="edge7_Node000006_Node000007" class="edge">
<title>Node7&#45;&gt;Node6</title>
<g id="a_edge7_Node000006_Node000007"><a xlink:title=" ">
<path fill="none" stroke="#8b1a1a" d="M448.09,-219.78C480.94,-213.57 531.48,-202.86 574,-188.85 591.24,-183.17 610.1,-174.81 623.74,-168.36"/>
<polygon fill="#8b1a1a" stroke="#8b1a1a" points="447.28,-216.37 438.08,-221.64 448.55,-223.25 447.28,-216.37"/>
</a>
</g>
</g>
<!-- Node8 -->
<g id="Node000008" class="node">
<title>Node8</title>
<g id="a_Node000008"><a xlink:title=" ">
<polygon fill="white" stroke="#bfbfbf" points="229,-235.35 200,-235.35 200,-216.35 229,-216.35 229,-235.35"/>
<text text-anchor="middle" x="214.5" y="-223.35" font-family="Helvetica,sans-Serif" font-size="10.00">T</text>
</a>
</g>
</g>
<!-- Node8&#45;&gt;Node7 -->
<g id="edge8_Node000007_Node000008" class="edge">
<title>Node8&#45;&gt;Node7</title>
<g id="a_edge8_Node000007_Node000008"><a xlink:title=" ">
<path fill="none" stroke="#9a32cd" stroke-dasharray="5,2" d="M239.74,-225.85C277.23,-225.85 348.87,-225.85 386.7,-225.85"/>
<polygon fill="#9a32cd" stroke="#9a32cd" points="239.28,-222.35 229.28,-225.85 239.28,-229.35 239.28,-222.35"/>
</a>
</g>
<text text-anchor="middle" x="298.5" y="-228.85" font-family="Helvetica,sans-Serif" font-size="10.00" fill="grey"> elements</text>
</g>
<!-- Node9&#45;&gt;Node6 -->
<g id="edge9_Node000006_Node000009" class="edge">
<title>Node9&#45;&gt;Node6</title>
<g id="a_edge9_Node000006_Node000009"><a xlink:title=" ">
<path fill="none" stroke="#9a32cd" stroke-dasharray="5,2" d="M938.68,-141.27C936.09,-141.47 933.52,-141.66 931,-141.85 836.99,-148.73 725.45,-154.74 673.84,-157.4"/>
<polygon fill="#9a32cd" stroke="#9a32cd" points="939.08,-144.75 948.77,-140.46 938.52,-137.77 939.08,-144.75"/>
</a>
</g>
<text text-anchor="middle" x="819.5" y="-154.85" font-family="Helvetica,sans-Serif" font-size="10.00" fill="grey"> b_capturedPieces</text>
</g>
<!-- Node10&#45;&gt;Node6 -->
<g id="edge11_Node000006_Node000010" class="edge">
<title>Node10&#45;&gt;Node6</title>
<g id="a_edge11_Node000006_Node000010"><a xlink:title=" ">
<path fill="none" stroke="#9a32cd" stroke-dasharray="5,2" d="M482.11,-142.02C526.28,-146.64 581.38,-152.4 614.3,-155.85"/>
<polygon fill="#9a32cd" stroke="#9a32cd" points="482.32,-138.53 472.01,-140.97 481.59,-145.49 482.32,-138.53"/>
</a>
</g>
<text text-anchor="middle" x="538" y="-154.85" font-family="Helvetica,sans-Serif" font-size="10.00" fill="grey"> b_history</text>
</g>
<!-- Node11 -->
<g id="Node000011" class="node">
<title>Node11</title>
<g id="a_Node000011"><a target="_parent" xlink:href="https://en.cppreference.com/w/cpp/utility/functional/function.html" xlink:title=" ">
<polygon fill="white" stroke="#bfbfbf" points="484,-197.85 341,-197.85 341,-167.85 484,-167.85 484,-197.85"/>
<text text-anchor="start" x="349" y="-185.85" font-family="Helvetica,sans-Serif" font-size="10.00">std::function&lt; PieceTypes</text>
<text text-anchor="middle" x="412.5" y="-174.85" font-family="Helvetica,sans-Serif" font-size="10.00">RetT(PieceTypesArgT)&gt;</text>
</a>
</g>
</g>
<!-- Node11&#45;&gt;Node6 -->
<g id="edge13_Node000006_Node000011" class="edge">
<title>Node11&#45;&gt;Node6</title>
<g id="a_edge13_Node000006_Node000011"><a xlink:title=" ">
<path fill="none" stroke="#9a32cd" stroke-dasharray="5,2" d="M494.24,-175.05C519.76,-172.52 548.07,-169.64 574,-166.85 587.31,-165.41 602.05,-163.72 614.48,-162.26"/>
<polygon fill="#9a32cd" stroke="#9a32cd" points="493.84,-171.58 484.24,-176.04 494.53,-178.54 493.84,-171.58"/>
</a>
</g>
<text text-anchor="middle" x="538" y="-176.85" font-family="Helvetica,sans-Serif" font-size="10.00" fill="grey"> b_pieceGetter</text>
</g>
<!-- Node12 -->
<g id="Node000012" class="node">
<title>Node12</title>
<g id="a_Node000012"><a target="_parent" xlink:href="https://en.cppreference.com/w/cpp/types/size_t.html" xlink:title=" ">
<polygon fill="white" stroke="#bfbfbf" points="445.5,-101.35 379.5,-101.35 379.5,-82.35 445.5,-82.35 445.5,-101.35"/>
<text text-anchor="middle" x="412.5" y="-89.35" font-family="Helvetica,sans-Serif" font-size="10.00">std::size_t</text>
</a>
</g>
</g>
<!-- Node12&#45;&gt;Node5 -->
<g id="edge15_Node000005_Node000012" class="edge">
<title>Node12&#45;&gt;Node5</title>
<g id="a_edge15_Node000005_Node000012"><a xlink:title=" ">
<path fill="none" stroke="#9a32cd" stroke-dasharray="5,2" d="M455.73,-94.04C538.94,-98.35 722.03,-107.85 791.26,-111.44"/>
<polygon fill="#9a32cd" stroke="#9a32cd" points="455.79,-90.54 445.62,-93.51 455.42,-97.53 455.79,-90.54"/>
</a>
</g>
<text text-anchor="middle" x="644" y="-120.85" font-family="Helvetica,sans-Serif" font-size="10.00" fill="grey"> p_movesMade</text>
<text text-anchor="middle" x="644" y="-109.85" font-family="Helvetica,sans-Serif" font-size="10.00" fill="grey">p_turnIndex</text>
</g>
<!-- Node12&#45;&gt;Node6 -->
<g id="edge14_Node000006_Node000012" class="edge">
<title>Node12&#45;&gt;Node6</title>
<g id="a_edge14_Node000006_Node000012"><a xlink:title=" ">
<path fill="none" stroke="#9a32cd" stroke-dasharray="5,2" d="M455.71,-99.85C488.39,-106.52 534.57,-116.99 574,-129.85 590.8,-135.33 609.23,-143.17 622.81,-149.32"/>
<polygon fill="#9a32cd" stroke="#9a32cd" points="456.09,-96.36 445.6,-97.82 454.72,-103.22 456.09,-96.36"/>
</a>
</g>
<text text-anchor="middle" x="538" y="-132.85" font-family="Helvetica,sans-Serif" font-size="10.00" fill="grey"> b_turnIndex</text>
</g>
</g>
</svg>
