<?xml version="1.0" encoding="UTF-8" standalone="no"?>
<!DOCTYPE svg PUBLIC "-//W3C//DTD SVG 1.1//EN"
 "http://www.w3.org/Graphics/SVG/1.1/DTD/svg11.dtd">
<!-- Generated by graphviz version 2.43.0 (0)
 -->
<!-- Title: tt::chess::Bishop Pages: 1 -->
<svg width="908pt" height="261pt"
 viewBox="0.00 0.00 908.00 261.00" xmlns="http://www.w3.org/2000/svg" xmlns:xlink="http://www.w3.org/1999/xlink">
<g id="graph0" class="graph" transform="scale(1 1) rotate(0) translate(4 257)">
<title>tt::chess::Bishop</title>
<polygon fill="white" stroke="transparent" points="-4,4 -4,-257 904,-257 904,4 -4,4"/>
<!-- Node1 -->
<g id="node1" class="node">
<title>Node1</title>
<g id="a_node1"><a xlink:title="Bishop chess Piece.">
<polygon fill="#bfbfbf" stroke="black" points="353,-122.5 353,-141.5 450,-141.5 450,-122.5 353,-122.5"/>
<text text-anchor="middle" x="401.5" y="-129.5" font-family="Helvetica,sans-Serif" font-size="10.00">tt::chess::Bishop</text>
</a>
</g>
</g>
<!-- Node2 -->
<g id="node2" class="node">
<title>Node2</title>
<g id="a_node2"><a xlink:href="classtt_1_1Piece.html" target="_top" xlink:title="Generic board memeber piece API.">
<polygon fill="white" stroke="black" points="212,-138.5 212,-157.5 268,-157.5 268,-138.5 212,-138.5"/>
<text text-anchor="middle" x="240" y="-145.5" font-family="Helvetica,sans-Serif" font-size="10.00">tt::Piece</text>
</a>
</g>
</g>
<!-- Node2&#45;&gt;Node1 -->
<g id="edge1" class="edge">
<title>Node2&#45;&gt;Node1</title>
<path fill="none" stroke="midnightblue" d="M278.13,-144.28C300.42,-142.04 329.01,-139.17 352.94,-136.77"/>
<polygon fill="midnightblue" stroke="midnightblue" points="277.66,-140.81 268.06,-145.29 278.36,-147.77 277.66,-140.81"/>
</g>
<!-- Node10 -->
<g id="node10" class="node">
<title>Node10</title>
<g id="a_node10"><a xlink:href="classtt_1_1Piece_1_1Turn.html" target="_top" xlink:title="Generic Piece Turn on Board.">
<polygon fill="white" stroke="black" points="360,-161.5 360,-180.5 443,-180.5 443,-161.5 360,-161.5"/>
<text text-anchor="middle" x="401.5" y="-168.5" font-family="Helvetica,sans-Serif" font-size="10.00">tt::Piece::Turn</text>
</a>
</g>
</g>
<!-- Node2&#45;&gt;Node10 -->
<g id="edge10" class="edge">
<title>Node2&#45;&gt;Node10</title>
<path fill="none" stroke="#9a32cd" stroke-dasharray="5,2" d="M278.04,-153.34C302.52,-156.87 334.62,-161.5 359.81,-165.13"/>
<polygon fill="#9a32cd" stroke="#9a32cd" points="278.45,-149.86 268.06,-151.9 277.46,-156.79 278.45,-149.86"/>
<text text-anchor="middle" x="310.5" y="-174" font-family="Helvetica,sans-Serif" font-size="10.00"> t_capture</text>
<text text-anchor="middle" x="310.5" y="-163" font-family="Helvetica,sans-Serif" font-size="10.00">t_piece</text>
</g>
<!-- Node11 -->
<g id="node11" class="node">
<title>Node11</title>
<g id="a_node11"><a target="_parent" xlink:href="https://en.cppreference.com/w/cpp/container/forward_list.html" xlink:title=" ">
<polygon fill="white" stroke="black" points="468,-201 468,-231 572,-231 572,-201 468,-201"/>
<text text-anchor="start" x="476" y="-219" font-family="Helvetica,sans-Serif" font-size="10.00">std::forward_list&lt;</text>
<text text-anchor="middle" x="520" y="-208" font-family="Helvetica,sans-Serif" font-size="10.00"> const Piece * &gt;</text>
</a>
</g>
</g>
<!-- Node2&#45;&gt;Node11 -->
<g id="edge13" class="edge">
<title>Node2&#45;&gt;Node11</title>
<path fill="none" stroke="#9a32cd" stroke-dasharray="5,2" d="M256.4,-164.89C264.44,-172.61 274.91,-181.12 286,-186 344.61,-211.8 418.96,-217.24 467.71,-217.58"/>
<polygon fill="#9a32cd" stroke="#9a32cd" points="258.74,-162.27 249.23,-157.58 253.74,-167.17 258.74,-162.27"/>
<text text-anchor="middle" x="310.5" y="-205" font-family="Helvetica,sans-Serif" font-size="10.00"> elements</text>
</g>
<!-- Node3 -->
<g id="node3" class="node">
<title>Node3</title>
<g id="a_node3"><a xlink:href="classtt_1_1Piece_1_1Position.html" target="_top" xlink:title="Piece position at the Board.">
<polygon fill="white" stroke="black" points="0,-198.5 0,-217.5 101,-217.5 101,-198.5 0,-198.5"/>
<text text-anchor="middle" x="50.5" y="-205.5" font-family="Helvetica,sans-Serif" font-size="10.00">tt::Piece::Position</text>
</a>
</g>
</g>
<!-- Node3&#45;&gt;Node2 -->
<g id="edge2" class="edge">
<title>Node3&#45;&gt;Node2</title>
<path fill="none" stroke="#9a32cd" stroke-dasharray="5,2" d="M90.98,-195.37C127.27,-183.75 180.11,-166.84 211.86,-156.68"/>
<polygon fill="#9a32cd" stroke="#9a32cd" points="89.67,-192.11 81.21,-198.49 91.8,-198.78 89.67,-192.11"/>
<text text-anchor="middle" x="156.5" y="-188" font-family="Helvetica,sans-Serif" font-size="10.00"> p_position</text>
</g>
<!-- Node3&#45;&gt;Node10 -->
<g id="edge11" class="edge">
<title>Node3&#45;&gt;Node10</title>
<path fill="none" stroke="#9a32cd" stroke-dasharray="5,2" d="M102.06,-219.5C159.86,-230.41 256.6,-241.78 335,-217 357.52,-209.88 379.02,-191.93 390.92,-180.68"/>
<polygon fill="#9a32cd" stroke="#9a32cd" points="102.57,-216.03 92.09,-217.55 101.23,-222.9 102.57,-216.03"/>
<text text-anchor="middle" x="240" y="-245" font-family="Helvetica,sans-Serif" font-size="10.00"> t_from</text>
<text text-anchor="middle" x="240" y="-234" font-family="Helvetica,sans-Serif" font-size="10.00">t_to</text>
</g>
<!-- Node4 -->
<g id="node4" class="node">
<title>Node4</title>
<g id="a_node4"><a target="_parent" xlink:href="https://en.cppreference.com/w/cpp/types/size_t.html" xlink:title=" ">
<polygon fill="white" stroke="black" points="17.5,-62.5 17.5,-81.5 83.5,-81.5 83.5,-62.5 17.5,-62.5"/>
<text text-anchor="middle" x="50.5" y="-69.5" font-family="Helvetica,sans-Serif" font-size="10.00">std::size_t</text>
</a>
</g>
</g>
<!-- Node4&#45;&gt;Node2 -->
<g id="edge3" class="edge">
<title>Node4&#45;&gt;Node2</title>
<path fill="none" stroke="#9a32cd" stroke-dasharray="5,2" d="M84.74,-85.47C122.28,-100.69 182.44,-125.08 215.45,-138.45"/>
<polygon fill="#9a32cd" stroke="#9a32cd" points="85.83,-82.14 75.25,-81.63 83.2,-88.63 85.83,-82.14"/>
<text text-anchor="middle" x="156.5" y="-144" font-family="Helvetica,sans-Serif" font-size="10.00"> p_movesMade</text>
<text text-anchor="middle" x="156.5" y="-133" font-family="Helvetica,sans-Serif" font-size="10.00">p_turnIndex</text>
</g>
<!-- Node5 -->
<g id="node5" class="node">
<title>Node5</title>
<g id="a_node5"><a xlink:href="classtt_1_1Board.html" target="_top" xlink:title="8x8 game board">
<polygon fill="white" stroke="black" points="841,-90.5 841,-109.5 900,-109.5 900,-90.5 841,-90.5"/>
<text text-anchor="middle" x="870.5" y="-97.5" font-family="Helvetica,sans-Serif" font-size="10.00">tt::Board</text>
</a>
</g>
</g>
<!-- Node4&#45;&gt;Node5 -->
<g id="edge14" class="edge">
<title>Node4&#45;&gt;Node5</title>
<path fill="none" stroke="#9a32cd" stroke-dasharray="5,2" d="M74.63,-56.76C108.98,-35.62 176.21,0 239,0 239,0 239,0 662.5,0 738.35,0 757.97,-18.96 823,-58 837.92,-66.96 852.36,-81.13 861.08,-90.49"/>
<polygon fill="#9a32cd" stroke="#9a32cd" points="72.44,-54 65.84,-62.29 76.17,-59.92 72.44,-54"/>
<text text-anchor="middle" x="401.5" y="-3" font-family="Helvetica,sans-Serif" font-size="10.00"> b_turnIndex</text>
</g>
<!-- Node5&#45;&gt;Node2 -->
<g id="edge4" class="edge">
<title>Node5&#45;&gt;Node2</title>
<path fill="none" stroke="#9a32cd" stroke-dasharray="5,2" d="M836.92,-86.78C809.68,-76.51 769.51,-63.17 733,-58 565.61,-34.31 513.23,-21.08 353,-75 311.42,-88.99 270.19,-122.11 251.46,-138.49"/>
<polygon fill="#9a32cd" stroke="#9a32cd" points="835.75,-90.08 846.34,-90.4 838.27,-83.55 835.75,-90.08"/>
<text text-anchor="middle" x="520" y="-47" font-family="Helvetica,sans-Serif" font-size="10.00"> p_board</text>
</g>
<!-- Node6 -->
<g id="node6" class="node">
<title>Node6</title>
<g id="a_node6"><a target="_parent" xlink:href="https://en.cppreference.com/w/cpp/container/array.html" xlink:title=" ">
<polygon fill="white" stroke="black" points="636,-117.5 636,-136.5 687,-136.5 687,-117.5 636,-117.5"/>
<text text-anchor="middle" x="661.5" y="-124.5" font-family="Helvetica,sans-Serif" font-size="10.00">BoardT</text>
</a>
</g>
</g>
<!-- Node6&#45;&gt;Node5 -->
<g id="edge5" class="edge">
<title>Node6&#45;&gt;Node5</title>
<path fill="none" stroke="#8b1a1a" d="M697.2,-122.47C737.46,-117.22 803.09,-108.66 840.66,-103.76"/>
<polygon fill="#8b1a1a" stroke="#8b1a1a" points="696.52,-119.03 687.06,-123.8 697.43,-125.97 696.52,-119.03"/>
</g>
<!-- Node7 -->
<g id="node7" class="node">
<title>Node7</title>
<g id="a_node7"><a xlink:title=" ">
<polygon fill="white" stroke="#bfbfbf" points="387,-84.5 387,-103.5 416,-103.5 416,-84.5 387,-84.5"/>
<text text-anchor="middle" x="401.5" y="-91.5" font-family="Helvetica,sans-Serif" font-size="10.00">T</text>
</a>
</g>
</g>
<!-- Node7&#45;&gt;Node6 -->
<g id="edge6" class="edge">
<title>Node7&#45;&gt;Node6</title>
<path fill="none" stroke="#9a32cd" stroke-dasharray="5,2" d="M426.21,-97.03C474.95,-103.27 585.99,-117.47 635.67,-123.82"/>
<polygon fill="#9a32cd" stroke="#9a32cd" points="426.37,-93.52 416.01,-95.73 425.48,-100.47 426.37,-93.52"/>
<text text-anchor="middle" x="520" y="-119" font-family="Helvetica,sans-Serif" font-size="10.00"> elements</text>
</g>
<!-- Node8 -->
<g id="node8" class="node">
<title>Node8</title>
<g id="a_node8"><a target="_parent" xlink:href="https://en.cppreference.com/w/cpp/utility/functional/function.html" xlink:title=" ">
<polygon fill="white" stroke="black" points="590,-68 590,-98 733,-98 733,-68 590,-68"/>
<text text-anchor="start" x="598" y="-86" font-family="Helvetica,sans-Serif" font-size="10.00">std::function&lt; PieceTypes</text>
<text text-anchor="middle" x="661.5" y="-75" font-family="Helvetica,sans-Serif" font-size="10.00">RetT(PieceTypesArgT)&gt;</text>
</a>
</g>
</g>
<!-- Node8&#45;&gt;Node5 -->
<g id="edge7" class="edge">
<title>Node8&#45;&gt;Node5</title>
<path fill="none" stroke="#9a32cd" stroke-dasharray="5,2" d="M743.33,-86.66C768.86,-88.18 797.14,-90.25 823,-93 828.68,-93.6 834.73,-94.4 840.53,-95.24"/>
<polygon fill="#9a32cd" stroke="#9a32cd" points="743.51,-83.16 733.32,-86.08 743.1,-90.15 743.51,-83.16"/>
<text text-anchor="middle" x="787" y="-96" font-family="Helvetica,sans-Serif" font-size="10.00"> b_pieceGetter</text>
</g>
<!-- Node9 -->
<g id="node9" class="node">
<title>Node9</title>
<g id="a_node9"><a target="_parent" xlink:href="https://en.cppreference.com/w/cpp/container/list.html" xlink:title=" ">
<polygon fill="white" stroke="black" points="602,-156 602,-186 721,-186 721,-156 602,-156"/>
<text text-anchor="start" x="610" y="-174" font-family="Helvetica,sans-Serif" font-size="10.00">std::list&lt; const Piece</text>
<text text-anchor="middle" x="661.5" y="-163" font-family="Helvetica,sans-Serif" font-size="10.00">::Turn * &gt;</text>
</a>
</g>
</g>
<!-- Node9&#45;&gt;Node5 -->
<g id="edge8" class="edge">
<title>Node9&#45;&gt;Node5</title>
<path fill="none" stroke="#9a32cd" stroke-dasharray="5,2" d="M731.08,-154.81C759.93,-147.11 793.58,-136.96 823,-125 833.53,-120.72 844.77,-114.72 853.56,-109.67"/>
<polygon fill="#9a32cd" stroke="#9a32cd" points="729.87,-151.51 721.08,-157.43 731.64,-158.28 729.87,-151.51"/>
<text text-anchor="middle" x="787" y="-151" font-family="Helvetica,sans-Serif" font-size="10.00"> b_history</text>
</g>
<!-- Node10&#45;&gt;Node9 -->
<g id="edge9" class="edge">
<title>Node10&#45;&gt;Node9</title>
<path fill="none" stroke="#9a32cd" stroke-dasharray="5,2" d="M453.27,-171C496,-171 557.13,-171 601.93,-171"/>
<polygon fill="#9a32cd" stroke="#9a32cd" points="453.1,-167.5 443.1,-171 453.1,-174.5 453.1,-167.5"/>
<text text-anchor="middle" x="520" y="-174" font-family="Helvetica,sans-Serif" font-size="10.00"> elements</text>
</g>
<!-- Node11&#45;&gt;Node5 -->
<g id="edge12" class="edge">
<title>Node11&#45;&gt;Node5</title>
<path fill="none" stroke="#9a32cd" stroke-dasharray="5,2" d="M582.37,-220.66C648.27,-222.42 752.95,-215.5 823,-163 842.36,-148.49 857.28,-123.7 864.57,-109.94"/>
<polygon fill="#9a32cd" stroke="#9a32cd" points="582.25,-217.15 572.13,-220.3 582.01,-224.15 582.25,-217.15"/>
<text text-anchor="middle" x="661.5" y="-223" font-family="Helvetica,sans-Serif" font-size="10.00"> b_capturedPieces</text>
</g>
</g>
</svg>
