<?xml version="1.0" encoding="UTF-8" standalone="no"?>
<!DOCTYPE svg PUBLIC "-//W3C//DTD SVG 1.1//EN"
 "http://www.w3.org/Graphics/SVG/1.1/DTD/svg11.dtd">
<!-- Generated by graphviz version 2.43.0 (0)
 -->
<!-- Title: tt::chess::ex::checkmate Pages: 1 -->
<svg width="144pt" height="308pt"
 viewBox="0.00 0.00 144.00 308.00" xmlns="http://www.w3.org/2000/svg" xmlns:xlink="http://www.w3.org/1999/xlink">
<g id="graph0" class="graph" transform="scale(1 1) rotate(0) translate(4 304)">
<title>tt::chess::ex::checkmate</title>
<polygon fill="white" stroke="transparent" points="-4,4 -4,-304 140,-304 140,4 -4,4"/>
<!-- Node1 -->
<g id="node1" class="node">
<title>Node1</title>
<g id="a_node1"><a xlink:title="Thrown when turn cannot be perfomred because of King is under checkmate.">
<polygon fill="#bfbfbf" stroke="black" points="0,-0.5 0,-19.5 136,-19.5 136,-0.5 0,-0.5"/>
<text text-anchor="middle" x="68" y="-7.5" font-family="Helvetica,sans-Serif" font-size="10.00">tt::chess::ex::checkmate</text>
</a>
</g>
</g>
<!-- Node2 -->
<g id="node2" class="node">
<title>Node2</title>
<g id="a_node2"><a xlink:href="classtt_1_1chess_1_1ex_1_1check.html" target="_top" xlink:title="Thrown when turn cannot be perfomred because of King beeing in check.">
<polygon fill="white" stroke="black" points="13,-56.5 13,-75.5 123,-75.5 123,-56.5 13,-56.5"/>
<text text-anchor="middle" x="68" y="-63.5" font-family="Helvetica,sans-Serif" font-size="10.00">tt::chess::ex::check</text>
</a>
</g>
</g>
<!-- Node2&#45;&gt;Node1 -->
<g id="edge1" class="edge">
<title>Node2&#45;&gt;Node1</title>
<path fill="none" stroke="midnightblue" d="M68,-45.8C68,-36.91 68,-26.78 68,-19.75"/>
<polygon fill="midnightblue" stroke="midnightblue" points="64.5,-46.08 68,-56.08 71.5,-46.08 64.5,-46.08"/>
</g>
<!-- Node3 -->
<g id="node3" class="node">
<title>Node3</title>
<g id="a_node3"><a xlink:href="classtt_1_1ex_1_1illegal__move.html" target="_top" xlink:title="Base class for Board::makeMove() function errors.">
<polygon fill="white" stroke="black" points="12.5,-112.5 12.5,-131.5 123.5,-131.5 123.5,-112.5 12.5,-112.5"/>
<text text-anchor="middle" x="68" y="-119.5" font-family="Helvetica,sans-Serif" font-size="10.00">tt::ex::illegal_move</text>
</a>
</g>
</g>
<!-- Node3&#45;&gt;Node2 -->
<g id="edge2" class="edge">
<title>Node3&#45;&gt;Node2</title>
<path fill="none" stroke="midnightblue" d="M68,-101.8C68,-92.91 68,-82.78 68,-75.75"/>
<polygon fill="midnightblue" stroke="midnightblue" points="64.5,-102.08 68,-112.08 71.5,-102.08 64.5,-102.08"/>
</g>
<!-- Node4 -->
<g id="node4" class="node">
<title>Node4</title>
<g id="a_node4"><a xlink:href="classtt_1_1ex_1_1tartan.html" target="_top" xlink:title="Base class for all tartan exceptions.">
<polygon fill="white" stroke="black" points="29.5,-168.5 29.5,-187.5 106.5,-187.5 106.5,-168.5 29.5,-168.5"/>
<text text-anchor="middle" x="68" y="-175.5" font-family="Helvetica,sans-Serif" font-size="10.00">tt::ex::tartan</text>
</a>
</g>
</g>
<!-- Node4&#45;&gt;Node3 -->
<g id="edge3" class="edge">
<title>Node4&#45;&gt;Node3</title>
<path fill="none" stroke="midnightblue" d="M68,-157.8C68,-148.91 68,-138.78 68,-131.75"/>
<polygon fill="midnightblue" stroke="midnightblue" points="64.5,-158.08 68,-168.08 71.5,-158.08 64.5,-158.08"/>
</g>
<!-- Node5 -->
<g id="node5" class="node">
<title>Node5</title>
<g id="a_node5"><a target="_parent" xlink:href="https://en.cppreference.com/w/cpp/error/logic_error.html" xlink:title=" ">
<polygon fill="white" stroke="black" points="23.5,-224.5 23.5,-243.5 112.5,-243.5 112.5,-224.5 23.5,-224.5"/>
<text text-anchor="middle" x="68" y="-231.5" font-family="Helvetica,sans-Serif" font-size="10.00">std::logic_error</text>
</a>
</g>
</g>
<!-- Node5&#45;&gt;Node4 -->
<g id="edge4" class="edge">
<title>Node5&#45;&gt;Node4</title>
<path fill="none" stroke="midnightblue" d="M68,-213.8C68,-204.91 68,-194.78 68,-187.75"/>
<polygon fill="midnightblue" stroke="midnightblue" points="64.5,-214.08 68,-224.08 71.5,-214.08 64.5,-214.08"/>
</g>
<!-- Node6 -->
<g id="node6" class="node">
<title>Node6</title>
<g id="a_node6"><a target="_parent" xlink:href="https://en.cppreference.com/w/cpp/error/exception.html" xlink:title=" ">
<polygon fill="white" stroke="black" points="25,-280.5 25,-299.5 111,-299.5 111,-280.5 25,-280.5"/>
<text text-anchor="middle" x="68" y="-287.5" font-family="Helvetica,sans-Serif" font-size="10.00">std::exception</text>
</a>
</g>
</g>
<!-- Node6&#45;&gt;Node5 -->
<g id="edge5" class="edge">
<title>Node6&#45;&gt;Node5</title>
<path fill="none" stroke="midnightblue" d="M68,-269.8C68,-260.91 68,-250.78 68,-243.75"/>
<polygon fill="midnightblue" stroke="midnightblue" points="64.5,-270.08 68,-280.08 71.5,-270.08 64.5,-270.08"/>
</g>
</g>
</svg>
