<?xml version="1.0" encoding="UTF-8" standalone="no"?>
<!DOCTYPE svg PUBLIC "-//W3C//DTD SVG 1.1//EN"
 "http://www.w3.org/Graphics/SVG/1.1/DTD/svg11.dtd">
<!-- Generated by graphviz version 2.43.0 (0)
 -->
<!-- Title: tt::Piece::TurnMap Pages: 1 -->
<svg width="1061pt" height="295pt"
 viewBox="0.00 0.00 1061.00 295.18" xmlns="http://www.w3.org/2000/svg" xmlns:xlink="http://www.w3.org/1999/xlink">
<g id="graph0" class="graph" transform="scale(1 1) rotate(0) translate(4 291.18)">
<title>tt::Piece::TurnMap</title>
<polygon fill="white" stroke="transparent" points="-4,4 -4,-291.18 1057,-291.18 1057,4 -4,4"/>
<!-- Node1 -->
<g id="node1" class="node">
<title>Node1</title>
<g id="a_node1"><a xlink:title="List of Turn objects.">
<polygon fill="#bfbfbf" stroke="black" points="592,-45.68 592,-64.68 696,-64.68 696,-45.68 592,-45.68"/>
<text text-anchor="middle" x="644" y="-52.68" font-family="Helvetica,sans-Serif" font-size="10.00">tt::Piece::TurnMap</text>
</a>
</g>
</g>
<!-- Node2 -->
<g id="node2" class="node">
<title>Node2</title>
<g id="a_node2"><a target="_parent" xlink:href="https://en.cppreference.com/w/cpp/container/list.html" xlink:title=" ">
<polygon fill="white" stroke="black" points="360.5,-45.68 360.5,-64.68 464.5,-64.68 464.5,-45.68 360.5,-45.68"/>
<text text-anchor="middle" x="412.5" y="-52.68" font-family="Helvetica,sans-Serif" font-size="10.00">std::list&lt; Turn * &gt;</text>
</a>
</g>
</g>
<!-- Node2&#45;&gt;Node1 -->
<g id="edge1" class="edge">
<title>Node2&#45;&gt;Node1</title>
<path fill="none" stroke="midnightblue" d="M474.78,-55.18C511.37,-55.18 557.32,-55.18 591.94,-55.18"/>
<polygon fill="midnightblue" stroke="midnightblue" points="474.72,-51.68 464.72,-55.18 474.72,-58.68 474.72,-51.68"/>
</g>
<!-- Node3 -->
<g id="node3" class="node">
<title>Node3</title>
<g id="a_node3"><a xlink:href="classtt_1_1Piece_1_1Turn.html" target="_top" xlink:title="Generic Piece Turn on Board.">
<polygon fill="white" stroke="black" points="173,-74.68 173,-93.68 256,-93.68 256,-74.68 173,-74.68"/>
<text text-anchor="middle" x="214.5" y="-81.68" font-family="Helvetica,sans-Serif" font-size="10.00">tt::Piece::Turn</text>
</a>
</g>
</g>
<!-- Node3&#45;&gt;Node2 -->
<g id="edge2" class="edge">
<title>Node3&#45;&gt;Node2</title>
<path fill="none" stroke="#9a32cd" stroke-dasharray="5,2" d="M266.04,-76.7C295.05,-72.41 331.37,-67.04 360.46,-62.73"/>
<polygon fill="#9a32cd" stroke="#9a32cd" points="265.49,-73.25 256.11,-78.17 266.52,-80.17 265.49,-73.25"/>
<text text-anchor="middle" x="298.5" y="-78.18" font-family="Helvetica,sans-Serif" font-size="10.00"> elements</text>
</g>
<!-- Node11 -->
<g id="node11" class="node">
<title>Node11</title>
<g id="a_node11"><a target="_parent" xlink:href="https://en.cppreference.com/w/cpp/container/list.html" xlink:title=" ">
<polygon fill="white" stroke="black" points="353,-122.18 353,-152.18 472,-152.18 472,-122.18 353,-122.18"/>
<text text-anchor="start" x="361" y="-140.18" font-family="Helvetica,sans-Serif" font-size="10.00">std::list&lt; const Piece</text>
<text text-anchor="middle" x="412.5" y="-129.18" font-family="Helvetica,sans-Serif" font-size="10.00">::Turn * &gt;</text>
</a>
</g>
</g>
<!-- Node3&#45;&gt;Node11 -->
<g id="edge11" class="edge">
<title>Node3&#45;&gt;Node11</title>
<path fill="none" stroke="#9a32cd" stroke-dasharray="5,2" d="M261.02,-96.49C289.31,-104.14 325.88,-114.03 355.89,-122.14"/>
<polygon fill="#9a32cd" stroke="#9a32cd" points="261.56,-93.01 250.99,-93.78 259.73,-99.77 261.56,-93.01"/>
<text text-anchor="middle" x="298.5" y="-116.18" font-family="Helvetica,sans-Serif" font-size="10.00"> elements</text>
</g>
<!-- Node4 -->
<g id="node4" class="node">
<title>Node4</title>
<g id="a_node4"><a xlink:href="classtt_1_1Piece.html" target="_top" xlink:title="Generic board memeber piece API.">
<polygon fill="white" stroke="black" points="791.5,-192.68 791.5,-211.68 847.5,-211.68 847.5,-192.68 791.5,-192.68"/>
<text text-anchor="middle" x="819.5" y="-199.68" font-family="Helvetica,sans-Serif" font-size="10.00">tt::Piece</text>
</a>
</g>
</g>
<!-- Node4&#45;&gt;Node3 -->
<g id="edge3" class="edge">
<title>Node4&#45;&gt;Node3</title>
<path fill="none" stroke="#9a32cd" stroke-dasharray="5,2" d="M810.93,-182.92C795.53,-146.69 756.78,-69.08 696,-36.18 537.12,49.83 305.24,-42.98 235.84,-74.5"/>
<polygon fill="#9a32cd" stroke="#9a32cd" points="807.77,-184.44 814.81,-192.36 814.24,-181.78 807.77,-184.44"/>
<text text-anchor="middle" x="538" y="-16.18" font-family="Helvetica,sans-Serif" font-size="10.00"> t_capture</text>
<text text-anchor="middle" x="538" y="-5.18" font-family="Helvetica,sans-Serif" font-size="10.00">t_piece</text>
</g>
<!-- Node12 -->
<g id="node12" class="node">
<title>Node12</title>
<g id="a_node12"><a target="_parent" xlink:href="https://en.cppreference.com/w/cpp/container/forward_list.html" xlink:title=" ">
<polygon fill="white" stroke="black" points="949,-237.18 949,-267.18 1053,-267.18 1053,-237.18 949,-237.18"/>
<text text-anchor="start" x="957" y="-255.18" font-family="Helvetica,sans-Serif" font-size="10.00">std::forward_list&lt;</text>
<text text-anchor="middle" x="1001" y="-244.18" font-family="Helvetica,sans-Serif" font-size="10.00"> const Piece * &gt;</text>
</a>
</g>
</g>
<!-- Node4&#45;&gt;Node12 -->
<g id="edge13" class="edge">
<title>Node4&#45;&gt;Node12</title>
<path fill="none" stroke="#9a32cd" stroke-dasharray="5,2" d="M857.74,-212.56C884.15,-219.91 919.9,-229.87 948.95,-237.96"/>
<polygon fill="#9a32cd" stroke="#9a32cd" points="858.33,-209.09 847.76,-209.78 856.46,-215.83 858.33,-209.09"/>
<text text-anchor="middle" x="906.5" y="-234.18" font-family="Helvetica,sans-Serif" font-size="10.00"> elements</text>
</g>
<!-- Node5 -->
<g id="node5" class="node">
<title>Node5</title>
<g id="a_node5"><a xlink:href="classtt_1_1Piece_1_1Position.html" target="_top" xlink:title="Piece position at the Board.">
<polygon fill="white" stroke="black" points="0,-196.68 0,-215.68 101,-215.68 101,-196.68 0,-196.68"/>
<text text-anchor="middle" x="50.5" y="-203.68" font-family="Helvetica,sans-Serif" font-size="10.00">tt::Piece::Position</text>
</a>
</g>
</g>
<!-- Node5&#45;&gt;Node3 -->
<g id="edge15" class="edge">
<title>Node5&#45;&gt;Node3</title>
<path fill="none" stroke="#9a32cd" stroke-dasharray="5,2" d="M72.54,-190.34C106.68,-164.63 173.1,-114.6 200.85,-93.71"/>
<polygon fill="#9a32cd" stroke="#9a32cd" points="70.09,-187.8 64.21,-196.61 74.31,-193.39 70.09,-187.8"/>
<text text-anchor="middle" x="137" y="-167.18" font-family="Helvetica,sans-Serif" font-size="10.00"> t_from</text>
<text text-anchor="middle" x="137" y="-156.18" font-family="Helvetica,sans-Serif" font-size="10.00">t_to</text>
</g>
<!-- Node5&#45;&gt;Node4 -->
<g id="edge4" class="edge">
<title>Node5&#45;&gt;Node4</title>
<path fill="none" stroke="#9a32cd" stroke-dasharray="5,2" d="M72.45,-221.85C102.19,-242.48 159.08,-276.18 213.5,-276.18 213.5,-276.18 213.5,-276.18 645,-276.18 661.25,-276.18 756.61,-231.69 798.63,-211.7"/>
<polygon fill="#9a32cd" stroke="#9a32cd" points="74.3,-218.87 64.13,-215.91 70.24,-224.57 74.3,-218.87"/>
<text text-anchor="middle" x="412.5" y="-279.18" font-family="Helvetica,sans-Serif" font-size="10.00"> p_position</text>
</g>
<!-- Node6 -->
<g id="node6" class="node">
<title>Node6</title>
<g id="a_node6"><a target="_parent" xlink:href="https://en.cppreference.com/w/cpp/types/size_t.html" xlink:title=" ">
<polygon fill="white" stroke="black" points="379.5,-83.68 379.5,-102.68 445.5,-102.68 445.5,-83.68 379.5,-83.68"/>
<text text-anchor="middle" x="412.5" y="-90.68" font-family="Helvetica,sans-Serif" font-size="10.00">std::size_t</text>
</a>
</g>
</g>
<!-- Node6&#45;&gt;Node4 -->
<g id="edge5" class="edge">
<title>Node6&#45;&gt;Node4</title>
<path fill="none" stroke="#9a32cd" stroke-dasharray="5,2" d="M455.63,-96.57C488.26,-99.76 534.43,-105.54 574,-115.18 658.26,-135.72 754.05,-174.56 796.39,-192.57"/>
<polygon fill="#9a32cd" stroke="#9a32cd" points="455.82,-93.07 445.53,-95.62 455.16,-100.04 455.82,-93.07"/>
<text text-anchor="middle" x="644" y="-167.18" font-family="Helvetica,sans-Serif" font-size="10.00"> p_movesMade</text>
<text text-anchor="middle" x="644" y="-156.18" font-family="Helvetica,sans-Serif" font-size="10.00">p_turnIndex</text>
</g>
<!-- Node7 -->
<g id="node7" class="node">
<title>Node7</title>
<g id="a_node7"><a xlink:href="classtt_1_1Board.html" target="_top" xlink:title="8x8 game board">
<polygon fill="white" stroke="black" points="614.5,-192.68 614.5,-211.68 673.5,-211.68 673.5,-192.68 614.5,-192.68"/>
<text text-anchor="middle" x="644" y="-199.68" font-family="Helvetica,sans-Serif" font-size="10.00">tt::Board</text>
</a>
</g>
</g>
<!-- Node6&#45;&gt;Node7 -->
<g id="edge14" class="edge">
<title>Node6&#45;&gt;Node7</title>
<path fill="none" stroke="#9a32cd" stroke-dasharray="5,2" d="M455.6,-100.68C489.24,-107.9 536.74,-120.91 574,-142.18 598.26,-156.03 621.78,-179.2 634.11,-192.32"/>
<polygon fill="#9a32cd" stroke="#9a32cd" points="456.14,-97.22 445.64,-98.62 454.72,-104.07 456.14,-97.22"/>
<text text-anchor="middle" x="538" y="-145.18" font-family="Helvetica,sans-Serif" font-size="10.00"> b_turnIndex</text>
</g>
<!-- Node7&#45;&gt;Node4 -->
<g id="edge6" class="edge">
<title>Node7&#45;&gt;Node4</title>
<path fill="none" stroke="#9a32cd" stroke-dasharray="5,2" d="M683.75,-202.18C716.42,-202.18 762.33,-202.18 791.24,-202.18"/>
<polygon fill="#9a32cd" stroke="#9a32cd" points="683.65,-198.68 673.65,-202.18 683.65,-205.68 683.65,-198.68"/>
<text text-anchor="middle" x="735.5" y="-205.18" font-family="Helvetica,sans-Serif" font-size="10.00"> p_board</text>
</g>
<!-- Node8 -->
<g id="node8" class="node">
<title>Node8</title>
<g id="a_node8"><a target="_parent" xlink:href="https://en.cppreference.com/w/cpp/container/array.html" xlink:title=" ">
<polygon fill="white" stroke="black" points="387,-220.68 387,-239.68 438,-239.68 438,-220.68 387,-220.68"/>
<text text-anchor="middle" x="412.5" y="-227.68" font-family="Helvetica,sans-Serif" font-size="10.00">BoardT</text>
</a>
</g>
</g>
<!-- Node8&#45;&gt;Node7 -->
<g id="edge7" class="edge">
<title>Node8&#45;&gt;Node7</title>
<path fill="none" stroke="#8b1a1a" d="M448.59,-226.15C481.12,-222.38 530.85,-216.55 574,-211.18 587.31,-209.53 602.05,-207.61 614.47,-205.98"/>
<polygon fill="#8b1a1a" stroke="#8b1a1a" points="447.79,-222.72 438.26,-227.34 448.59,-229.67 447.79,-222.72"/>
</g>
<!-- Node9 -->
<g id="node9" class="node">
<title>Node9</title>
<g id="a_node9"><a xlink:title=" ">
<polygon fill="white" stroke="#bfbfbf" points="200,-220.68 200,-239.68 229,-239.68 229,-220.68 200,-220.68"/>
<text text-anchor="middle" x="214.5" y="-227.68" font-family="Helvetica,sans-Serif" font-size="10.00">T</text>
</a>
</g>
</g>
<!-- Node9&#45;&gt;Node8 -->
<g id="edge8" class="edge">
<title>Node9&#45;&gt;Node8</title>
<path fill="none" stroke="#9a32cd" stroke-dasharray="5,2" d="M239.74,-230.18C277.23,-230.18 348.87,-230.18 386.7,-230.18"/>
<polygon fill="#9a32cd" stroke="#9a32cd" points="239.28,-226.68 229.28,-230.18 239.28,-233.68 239.28,-226.68"/>
<text text-anchor="middle" x="298.5" y="-233.18" font-family="Helvetica,sans-Serif" font-size="10.00"> elements</text>
</g>
<!-- Node10 -->
<g id="node10" class="node">
<title>Node10</title>
<g id="a_node10"><a target="_parent" xlink:href="https://en.cppreference.com/w/cpp/utility/functional/function.html" xlink:title=" ">
<polygon fill="white" stroke="black" points="341,-171.18 341,-201.18 484,-201.18 484,-171.18 341,-171.18"/>
<text text-anchor="start" x="349" y="-189.18" font-family="Helvetica,sans-Serif" font-size="10.00">std::function&lt; PieceTypes</text>
<text text-anchor="middle" x="412.5" y="-178.18" font-family="Helvetica,sans-Serif" font-size="10.00">RetT(PieceTypesArgT)&gt;</text>
</a>
</g>
</g>
<!-- Node10&#45;&gt;Node7 -->
<g id="edge9" class="edge">
<title>Node10&#45;&gt;Node7</title>
<path fill="none" stroke="#9a32cd" stroke-dasharray="5,2" d="M494.41,-191.82C536.18,-194.73 584.52,-198.1 614.43,-200.19"/>
<polygon fill="#9a32cd" stroke="#9a32cd" points="494.45,-188.32 484.23,-191.11 493.96,-195.3 494.45,-188.32"/>
<text text-anchor="middle" x="538" y="-199.18" font-family="Helvetica,sans-Serif" font-size="10.00"> b_pieceGetter</text>
</g>
<!-- Node11&#45;&gt;Node7 -->
<g id="edge10" class="edge">
<title>Node11&#45;&gt;Node7</title>
<path fill="none" stroke="#9a32cd" stroke-dasharray="5,2" d="M482.12,-152.63C510.71,-159.5 544.15,-168.08 574,-177.18 588.99,-181.75 605.5,-187.7 618.62,-192.65"/>
<polygon fill="#9a32cd" stroke="#9a32cd" points="482.76,-149.19 472.22,-150.28 481.14,-156 482.76,-149.19"/>
<text text-anchor="middle" x="538" y="-180.18" font-family="Helvetica,sans-Serif" font-size="10.00"> b_history</text>
</g>
<!-- Node12&#45;&gt;Node7 -->
<g id="edge12" class="edge">
<title>Node12&#45;&gt;Node7</title>
<path fill="none" stroke="#9a32cd" stroke-dasharray="5,2" d="M938.56,-250.46C920.32,-249.57 900.32,-248.22 882,-246.18 806.69,-237.8 788.37,-231.68 714,-217.18 700.76,-214.6 686.16,-211.47 673.81,-208.74"/>
<polygon fill="#9a32cd" stroke="#9a32cd" points="938.63,-253.96 948.78,-250.92 938.95,-246.97 938.63,-253.96"/>
<text text-anchor="middle" x="819.5" y="-246.18" font-family="Helvetica,sans-Serif" font-size="10.00"> b_capturedPieces</text>
</g>
</g>
</svg>
