<?xml version="1.0" encoding="UTF-8" standalone="no"?>
<!DOCTYPE svg PUBLIC "-//W3C//DTD SVG 1.1//EN"
 "http://www.w3.org/Graphics/SVG/1.1/DTD/svg11.dtd">
<!-- Generated by graphviz version 2.43.0 (0)
 -->
<!-- Title: tt::ex::illegal_move Pages: 1 -->
<!--zoomable 192 -->
<svg id="main" version="1.1" xmlns="http://www.w3.org/2000/svg" xmlns:xlink="http://www.w3.org/1999/xlink" xml:space="preserve" onload="init(evt)">
<style type="text/css"><![CDATA[
.edge:hover path { stroke: red; }
.edge:hover polygon { stroke: red; fill: red; }
]]></style>
<script type="text/javascript"><![CDATA[
var edges = document.getElementsByTagName('g');
if (edges && edges.length) {
  for (var i=0;i<edges.length;i++) {
    if (edges[i].id.substr(0,4)=='edge') {
      edges[i].setAttribute('class','edge');
    }
  }
}
]]></script>
        <defs>
                <circle id="rim" cx="0" cy="0" r="7"/>
                <circle id="rim2" cx="0" cy="0" r="3.5"/>
                <g id="zoomPlus">
                        <use xlink:href="#rim" fill="#404040">
                                <set attributeName="fill" to="#808080" begin="zoomplus.mouseover" end="zoomplus.mouseout"/>
                        </use>
                        <path d="M-4,0h8M0,-4v8" fill="none" stroke="white" stroke-width="1.5" pointer-events="none"/>
                </g>
                <g id="zoomMin">
                        <use xlink:href="#rim" fill="#404040">
                                <set attributeName="fill" to="#808080" begin="zoomminus.mouseover" end="zoomminus.mouseout"/>
                        </use>
                        <path d="M-4,0h8" fill="none" stroke="white" stroke-width="1.5" pointer-events="none"/>
                </g>
                <g id="dirArrow">
                        <path fill="none" stroke="white" stroke-width="1.5" d="M0,-3.0v7 M-2.5,-0.5L0,-3.0L2.5,-0.5"/>
                </g>
               <g id="resetDef">
                       <use xlink:href="#rim2" fill="#404040">
                               <set attributeName="fill" to="#808080" begin="reset.mouseover" end="reset.mouseout"/>
                       </use>
               </g>
        </defs>

<script type="text/javascript">
var viewWidth = 811;
var viewHeight = 192;
var sectionId = 'dynsection-0';
</script>
<script xlink:href="svgpan.js"/>
<svg id="graph" class="graph">
<g id="viewport">
<title>tt::ex::illegal_move</title>
<polygon fill="white" stroke="transparent" points="-4,4 -4,-188 807,-188 807,4 -4,4"/>
<!-- Node1 -->
<g id="node1" class="node">
<title>Node1</title>
<g id="a_node1"><a xlink:title="Base class for Board::makeMove() function errors.">
<polygon fill="#bfbfbf" stroke="black" points="360,-88.5 360,-107.5 471,-107.5 471,-88.5 360,-88.5"/>
<text text-anchor="middle" x="415.5" y="-95.5" font-family="Helvetica,sans-Serif" font-size="10.00">tt::ex::illegal_move</text>
</a>
</g>
</g>
<!-- Node5 -->
<g id="node5" class="node">
<title>Node5</title>
<g id="a_node5"><a xlink:href="classtt_1_1chess_1_1ex_1_1check.html" target="_top" xlink:title="Thrown when turn cannot be perfomred because of King beeing in check.">
<polygon fill="white" stroke="black" points="514,-164.5 514,-183.5 624,-183.5 624,-164.5 514,-164.5"/>
<text text-anchor="middle" x="569" y="-171.5" font-family="Helvetica,sans-Serif" font-size="10.00">tt::chess::ex::check</text>
</a>
</g>
</g>
<!-- Node1&#45;&gt;Node5 -->
<g id="edge4" class="edge">
<title>Node1&#45;&gt;Node5</title>
<path fill="none" stroke="midnightblue" d="M437.84,-113.69C455.63,-126.2 482.01,-143.48 507,-155 514.86,-158.62 523.59,-161.8 531.93,-164.47"/>
<polygon fill="midnightblue" stroke="midnightblue" points="439.55,-110.6 429.38,-107.63 435.48,-116.3 439.55,-110.6"/>
</g>
<!-- Node7 -->
<g id="node7" class="node">
<title>Node7</title>
<g id="a_node7"><a xlink:href="classtt_1_1ex_1_1can__not__move.html" target="_top" xlink:title="Thrown when Board::makeMove() is performed on Piece that can not make any moves.">
<polygon fill="white" stroke="black" points="509.5,-126.5 509.5,-145.5 628.5,-145.5 628.5,-126.5 509.5,-126.5"/>
<text text-anchor="middle" x="569" y="-133.5" font-family="Helvetica,sans-Serif" font-size="10.00">tt::ex::can_not_move</text>
</a>
</g>
</g>
<!-- Node1&#45;&gt;Node7 -->
<g id="edge6" class="edge">
<title>Node1&#45;&gt;Node7</title>
<path fill="none" stroke="midnightblue" d="M464.5,-110.04C485.67,-115.35 510.19,-121.5 530.05,-126.48"/>
<polygon fill="midnightblue" stroke="midnightblue" points="465.28,-106.63 454.73,-107.59 463.58,-113.42 465.28,-106.63"/>
</g>
<!-- Node8 -->
<g id="node8" class="node">
<title>Node8</title>
<g id="a_node8"><a xlink:href="classtt_1_1ex_1_1no__such__move.html" target="_top" xlink:title="Thrown when piece moved with Board::makeMove() can not have such move.">
<polygon fill="white" stroke="black" points="508.5,-88.5 508.5,-107.5 629.5,-107.5 629.5,-88.5 508.5,-88.5"/>
<text text-anchor="middle" x="569" y="-95.5" font-family="Helvetica,sans-Serif" font-size="10.00">tt::ex::no_such_move</text>
</a>
</g>
</g>
<!-- Node1&#45;&gt;Node8 -->
<g id="edge7" class="edge">
<title>Node1&#45;&gt;Node8</title>
<path fill="none" stroke="midnightblue" d="M481.21,-98C490.19,-98 499.38,-98 508.26,-98"/>
<polygon fill="midnightblue" stroke="midnightblue" points="481.2,-94.5 471.19,-98 481.19,-101.5 481.2,-94.5"/>
</g>
<!-- Node9 -->
<g id="node9" class="node">
<title>Node9</title>
<g id="a_node9"><a xlink:href="classtt_1_1ex_1_1piece__in__wrong__color.html" target="_top" xlink:title="Thrown when trying to Board::makeMove() on Piece that has wrong Piece::Color.">
<polygon fill="white" stroke="black" points="507,-39 507,-69 631,-69 631,-39 507,-39"/>
<text text-anchor="start" x="515" y="-57" font-family="Helvetica,sans-Serif" font-size="10.00">tt::ex::piece_in_wrong</text>
<text text-anchor="middle" x="569" y="-46" font-family="Helvetica,sans-Serif" font-size="10.00">_color</text>
</a>
</g>
</g>
<!-- Node1&#45;&gt;Node9 -->
<g id="edge8" class="edge">
<title>Node1&#45;&gt;Node9</title>
<path fill="none" stroke="midnightblue" d="M459.39,-85.54C477.04,-80.42 497.64,-74.44 516.13,-69.07"/>
<polygon fill="midnightblue" stroke="midnightblue" points="458,-82.3 449.37,-88.45 459.95,-89.02 458,-82.3"/>
</g>
<!-- Node10 -->
<g id="node10" class="node">
<title>Node10</title>
<g id="a_node10"><a xlink:href="classtt_1_1ex_1_1tile__is__empty.html" target="_top" xlink:title="Thrown when selected Piece location is empty of the Board.">
<polygon fill="white" stroke="black" points="512,-0.5 512,-19.5 626,-19.5 626,-0.5 512,-0.5"/>
<text text-anchor="middle" x="569" y="-7.5" font-family="Helvetica,sans-Serif" font-size="10.00">tt::ex::tile_is_empty</text>
</a>
</g>
</g>
<!-- Node1&#45;&gt;Node10 -->
<g id="edge9" class="edge">
<title>Node1&#45;&gt;Node10</title>
<path fill="none" stroke="midnightblue" d="M434.18,-81.49C451.55,-66.04 479.39,-43.26 507,-29 514.19,-25.28 522.25,-22.14 530.08,-19.55"/>
<polygon fill="midnightblue" stroke="midnightblue" points="431.6,-79.1 426.54,-88.41 436.3,-84.29 431.6,-79.1"/>
</g>
<!-- Node2 -->
<g id="node2" class="node">
<title>Node2</title>
<g id="a_node2"><a xlink:href="classtt_1_1ex_1_1tartan.html" target="_top" xlink:title="Base class for all tartan exceptions.">
<polygon fill="white" stroke="black" points="247,-88.5 247,-107.5 324,-107.5 324,-88.5 247,-88.5"/>
<text text-anchor="middle" x="285.5" y="-95.5" font-family="Helvetica,sans-Serif" font-size="10.00">tt::ex::tartan</text>
</a>
</g>
</g>
<!-- Node2&#45;&gt;Node1 -->
<g id="edge1" class="edge">
<title>Node2&#45;&gt;Node1</title>
<path fill="none" stroke="midnightblue" d="M334.22,-98C342.62,-98 351.42,-98 359.98,-98"/>
<polygon fill="midnightblue" stroke="midnightblue" points="334.21,-94.5 324.21,-98 334.21,-101.5 334.21,-94.5"/>
</g>
<!-- Node3 -->
<g id="node3" class="node">
<title>Node3</title>
<g id="a_node3"><a target="_parent" xlink:href="https://en.cppreference.com/w/cpp/error/logic_error.html" xlink:title=" ">
<polygon fill="white" stroke="black" points="122,-88.5 122,-107.5 211,-107.5 211,-88.5 122,-88.5"/>
<text text-anchor="middle" x="166.5" y="-95.5" font-family="Helvetica,sans-Serif" font-size="10.00">std::logic_error</text>
</a>
</g>
</g>
<!-- Node3&#45;&gt;Node2 -->
<g id="edge2" class="edge">
<title>Node3&#45;&gt;Node2</title>
<path fill="none" stroke="midnightblue" d="M221.09,-98C229.73,-98 238.5,-98 246.66,-98"/>
<polygon fill="midnightblue" stroke="midnightblue" points="221.07,-94.5 211.07,-98 221.07,-101.5 221.07,-94.5"/>
</g>
<!-- Node4 -->
<g id="node4" class="node">
<title>Node4</title>
<g id="a_node4"><a target="_parent" xlink:href="https://en.cppreference.com/w/cpp/error/exception.html" xlink:title=" ">
<polygon fill="white" stroke="black" points="0,-88.5 0,-107.5 86,-107.5 86,-88.5 0,-88.5"/>
<text text-anchor="middle" x="43" y="-95.5" font-family="Helvetica,sans-Serif" font-size="10.00">std::exception</text>
</a>
</g>
</g>
<!-- Node4&#45;&gt;Node3 -->
<g id="edge3" class="edge">
<title>Node4&#45;&gt;Node3</title>
<path fill="none" stroke="midnightblue" d="M96.34,-98C104.82,-98 113.52,-98 121.77,-98"/>
<polygon fill="midnightblue" stroke="midnightblue" points="96.15,-94.5 86.15,-98 96.15,-101.5 96.15,-94.5"/>
</g>
<!-- Node6 -->
<g id="node6" class="node">
<title>Node6</title>
<g id="a_node6"><a xlink:href="classtt_1_1chess_1_1ex_1_1checkmate.html" target="_top" xlink:title="Thrown when turn cannot be perfomred because of King is under checkmate.">
<polygon fill="white" stroke="black" points="667,-164.5 667,-183.5 803,-183.5 803,-164.5 667,-164.5"/>
<text text-anchor="middle" x="735" y="-171.5" font-family="Helvetica,sans-Serif" font-size="10.00">tt::chess::ex::checkmate</text>
</a>
</g>
</g>
<!-- Node5&#45;&gt;Node6 -->
<g id="edge5" class="edge">
<title>Node5&#45;&gt;Node6</title>
<path fill="none" stroke="midnightblue" d="M634.23,-174C644.9,-174 655.99,-174 666.74,-174"/>
<polygon fill="midnightblue" stroke="midnightblue" points="634.15,-170.5 624.15,-174 634.15,-177.5 634.15,-170.5"/>
</g>
</g>
</svg>
        <g id="navigator" transform="translate(0 0)" fill="#404254">
                <rect fill="#f2f5e9" fill-opacity="0.5" stroke="#606060" stroke-width=".5" x="0" y="0" width="60" height="60"/>
                <use id="zoomplus" xlink:href="#zoomPlus" x="17" y="9" onmousedown="handleZoom(evt,'in')"/>
                <use id="zoomminus" xlink:href="#zoomMin" x="42" y="9" onmousedown="handleZoom(evt,'out')"/>
                <use id="reset" xlink:href="#resetDef" x="30" y="36" onmousedown="handleReset()"/>
                <g id="arrowUp" xlink:href="#dirArrow" transform="translate(30 24)" onmousedown="handlePan(0,-1)">
                  <use xlink:href="#rim" fill="#404040">
                        <set attributeName="fill" to="#808080" begin="arrowUp.mouseover" end="arrowUp.mouseout"/>
                  </use>
                  <path fill="none" stroke="white" stroke-width="1.5" d="M0,-3.0v7 M-2.5,-0.5L0,-3.0L2.5,-0.5"/>
                </g>
                <g id="arrowRight" xlink:href="#dirArrow" transform="rotate(90) translate(36 -43)" onmousedown="handlePan(1,0)">
                  <use xlink:href="#rim" fill="#404040">
                        <set attributeName="fill" to="#808080" begin="arrowRight.mouseover" end="arrowRight.mouseout"/>
                  </use>
                  <path fill="none" stroke="white" stroke-width="1.5" d="M0,-3.0v7 M-2.5,-0.5L0,-3.0L2.5,-0.5"/>
                </g>
                <g id="arrowDown" xlink:href="#dirArrow" transform="rotate(180) translate(-30 -48)" onmousedown="handlePan(0,1)">
                  <use xlink:href="#rim" fill="#404040">
                        <set attributeName="fill" to="#808080" begin="arrowDown.mouseover" end="arrowDown.mouseout"/>
                  </use>
                  <path fill="none" stroke="white" stroke-width="1.5" d="M0,-3.0v7 M-2.5,-0.5L0,-3.0L2.5,-0.5"/>
                </g>
                <g id="arrowLeft" xlink:href="#dirArrow" transform="rotate(270) translate(-36 17)" onmousedown="handlePan(-1,0)">
                  <use xlink:href="#rim" fill="#404040">
                        <set attributeName="fill" to="#808080" begin="arrowLeft.mouseover" end="arrowLeft.mouseout"/>
                  </use>
                  <path fill="none" stroke="white" stroke-width="1.5" d="M0,-3.0v7 M-2.5,-0.5L0,-3.0L2.5,-0.5"/>
                </g>
        </g>
        <svg viewBox="0 0 15 15" width="100%" height="30px" preserveAspectRatio="xMaxYMin meet">
         <g id="arrow_out" transform="scale(0.3 0.3)">
          <a xlink:href="classtt_1_1ex_1_1illegal__move__inherit__graph_org.svg" target="_base">
           <rect id="button" ry="5" rx="5" y="6" x="6" height="38" width="38"
                fill="#f2f5e9" fill-opacity="0.5" stroke="#606060" stroke-width="1.0"/>
           <path id="arrow"
             d="M 11.500037,31.436501 C 11.940474,20.09759 22.043105,11.32322 32.158766,21.979434 L 37.068811,17.246167 C 37.068811,17.246167 37.088388,32 37.088388,32 L 22.160133,31.978069 C 22.160133,31.978069 26.997745,27.140456 26.997745,27.140456 C 18.528582,18.264221 13.291696,25.230495 11.500037,31.436501 z"
             style="fill:#404040;"/>
          </a>
         </g>
        </svg>
</svg>
