<?xml version="1.0" encoding="UTF-8" standalone="no"?>
<!DOCTYPE svg PUBLIC "-//W3C//DTD SVG 1.1//EN"
 "http://www.w3.org/Graphics/SVG/1.1/DTD/svg11.dtd">
<!-- Generated by graphviz version 2.43.0 (0)
 -->
<!-- Title: tt::chess::King Pages: 1 -->
<svg width="897pt" height="262pt"
 viewBox="0.00 0.00 897.00 262.00" xmlns="http://www.w3.org/2000/svg" xmlns:xlink="http://www.w3.org/1999/xlink">
<g id="graph0" class="graph" transform="scale(1 1) rotate(0) translate(4 258)">
<title>tt::chess::King</title>
<polygon fill="white" stroke="transparent" points="-4,4 -4,-258 893,-258 893,4 -4,4"/>
<!-- Node1 -->
<g id="node1" class="node">
<title>Node1</title>
<g id="a_node1"><a xlink:title="King chess Piece.">
<polygon fill="#bfbfbf" stroke="black" points="353,-122.5 353,-141.5 439,-141.5 439,-122.5 353,-122.5"/>
<text text-anchor="middle" x="396" y="-129.5" font-family="Helvetica,sans-Serif" font-size="10.00">tt::chess::King</text>
</a>
</g>
</g>
<!-- Node2 -->
<g id="node2" class="node">
<title>Node2</title>
<g id="a_node2"><a xlink:href="classtt_1_1Piece.html" target="_top" xlink:title="Generic board memeber piece API.">
<polygon fill="white" stroke="black" points="212,-138.5 212,-157.5 268,-157.5 268,-138.5 212,-138.5"/>
<text text-anchor="middle" x="240" y="-145.5" font-family="Helvetica,sans-Serif" font-size="10.00">tt::Piece</text>
</a>
</g>
</g>
<!-- Node2&#45;&gt;Node1 -->
<g id="edge1" class="edge">
<title>Node2&#45;&gt;Node1</title>
<path fill="none" stroke="midnightblue" d="M278.33,-144.12C300.78,-141.79 329.42,-138.81 352.71,-136.39"/>
<polygon fill="midnightblue" stroke="midnightblue" points="277.76,-140.66 268.18,-145.18 278.49,-147.62 277.76,-140.66"/>
</g>
<!-- Node10 -->
<g id="node10" class="node">
<title>Node10</title>
<g id="a_node10"><a xlink:href="classtt_1_1Piece_1_1Turn.html" target="_top" xlink:title="Generic Piece Turn on Board.">
<polygon fill="white" stroke="black" points="354.5,-161.5 354.5,-180.5 437.5,-180.5 437.5,-161.5 354.5,-161.5"/>
<text text-anchor="middle" x="396" y="-168.5" font-family="Helvetica,sans-Serif" font-size="10.00">tt::Piece::Turn</text>
</a>
</g>
</g>
<!-- Node2&#45;&gt;Node10 -->
<g id="edge10" class="edge">
<title>Node2&#45;&gt;Node10</title>
<path fill="none" stroke="#9a32cd" stroke-dasharray="5,2" d="M278.26,-153.56C301.3,-157.01 330.87,-161.42 354.49,-164.95"/>
<polygon fill="#9a32cd" stroke="#9a32cd" points="278.58,-150.07 268.18,-152.06 277.55,-157 278.58,-150.07"/>
<text text-anchor="middle" x="310.5" y="-175" font-family="Helvetica,sans-Serif" font-size="10.00"> t_capture</text>
<text text-anchor="middle" x="310.5" y="-164" font-family="Helvetica,sans-Serif" font-size="10.00">t_piece</text>
</g>
<!-- Node11 -->
<g id="node11" class="node">
<title>Node11</title>
<g id="a_node11"><a target="_parent" xlink:href="https://en.cppreference.com/w/cpp/container/forward_list.html" xlink:title=" ">
<polygon fill="white" stroke="black" points="457,-201 457,-231 561,-231 561,-201 457,-201"/>
<text text-anchor="start" x="465" y="-219" font-family="Helvetica,sans-Serif" font-size="10.00">std::forward_list&lt;</text>
<text text-anchor="middle" x="509" y="-208" font-family="Helvetica,sans-Serif" font-size="10.00"> const Piece * &gt;</text>
</a>
</g>
</g>
<!-- Node2&#45;&gt;Node11 -->
<g id="edge13" class="edge">
<title>Node2&#45;&gt;Node11</title>
<path fill="none" stroke="#9a32cd" stroke-dasharray="5,2" d="M256.33,-165.32C264.35,-173.25 274.82,-181.98 286,-187 340.78,-211.6 410.3,-217.07 456.81,-217.54"/>
<polygon fill="#9a32cd" stroke="#9a32cd" points="258.62,-162.65 249.18,-157.83 253.55,-167.48 258.62,-162.65"/>
<text text-anchor="middle" x="310.5" y="-205" font-family="Helvetica,sans-Serif" font-size="10.00"> elements</text>
</g>
<!-- Node3 -->
<g id="node3" class="node">
<title>Node3</title>
<g id="a_node3"><a xlink:href="classtt_1_1Piece_1_1Position.html" target="_top" xlink:title="Piece position at the Board.">
<polygon fill="white" stroke="black" points="0,-198.5 0,-217.5 101,-217.5 101,-198.5 0,-198.5"/>
<text text-anchor="middle" x="50.5" y="-205.5" font-family="Helvetica,sans-Serif" font-size="10.00">tt::Piece::Position</text>
</a>
</g>
</g>
<!-- Node3&#45;&gt;Node2 -->
<g id="edge2" class="edge">
<title>Node3&#45;&gt;Node2</title>
<path fill="none" stroke="#9a32cd" stroke-dasharray="5,2" d="M90.98,-195.37C127.27,-183.75 180.11,-166.84 211.86,-156.68"/>
<polygon fill="#9a32cd" stroke="#9a32cd" points="89.67,-192.11 81.21,-198.49 91.8,-198.78 89.67,-192.11"/>
<text text-anchor="middle" x="156.5" y="-188" font-family="Helvetica,sans-Serif" font-size="10.00"> p_position</text>
</g>
<!-- Node3&#45;&gt;Node10 -->
<g id="edge11" class="edge">
<title>Node3&#45;&gt;Node10</title>
<path fill="none" stroke="#9a32cd" stroke-dasharray="5,2" d="M99.83,-219.61C157.49,-231.2 256.03,-243.79 335,-217 356.13,-209.83 375.66,-191.9 386.39,-180.66"/>
<polygon fill="#9a32cd" stroke="#9a32cd" points="100.4,-216.15 89.89,-217.54 98.97,-223 100.4,-216.15"/>
<text text-anchor="middle" x="240" y="-246" font-family="Helvetica,sans-Serif" font-size="10.00"> t_from</text>
<text text-anchor="middle" x="240" y="-235" font-family="Helvetica,sans-Serif" font-size="10.00">t_to</text>
</g>
<!-- Node4 -->
<g id="node4" class="node">
<title>Node4</title>
<g id="a_node4"><a target="_parent" xlink:href="https://en.cppreference.com/w/cpp/types/size_t.html" xlink:title=" ">
<polygon fill="white" stroke="black" points="17.5,-62.5 17.5,-81.5 83.5,-81.5 83.5,-62.5 17.5,-62.5"/>
<text text-anchor="middle" x="50.5" y="-69.5" font-family="Helvetica,sans-Serif" font-size="10.00">std::size_t</text>
</a>
</g>
</g>
<!-- Node4&#45;&gt;Node2 -->
<g id="edge3" class="edge">
<title>Node4&#45;&gt;Node2</title>
<path fill="none" stroke="#9a32cd" stroke-dasharray="5,2" d="M84.74,-85.47C122.28,-100.69 182.44,-125.08 215.45,-138.45"/>
<polygon fill="#9a32cd" stroke="#9a32cd" points="85.83,-82.14 75.25,-81.63 83.2,-88.63 85.83,-82.14"/>
<text text-anchor="middle" x="156.5" y="-144" font-family="Helvetica,sans-Serif" font-size="10.00"> p_movesMade</text>
<text text-anchor="middle" x="156.5" y="-133" font-family="Helvetica,sans-Serif" font-size="10.00">p_turnIndex</text>
</g>
<!-- Node5 -->
<g id="node5" class="node">
<title>Node5</title>
<g id="a_node5"><a xlink:href="classtt_1_1Board.html" target="_top" xlink:title="8x8 game board">
<polygon fill="white" stroke="black" points="830,-90.5 830,-109.5 889,-109.5 889,-90.5 830,-90.5"/>
<text text-anchor="middle" x="859.5" y="-97.5" font-family="Helvetica,sans-Serif" font-size="10.00">tt::Board</text>
</a>
</g>
</g>
<!-- Node4&#45;&gt;Node5 -->
<g id="edge14" class="edge">
<title>Node4&#45;&gt;Node5</title>
<path fill="none" stroke="#9a32cd" stroke-dasharray="5,2" d="M74.63,-56.76C108.98,-35.62 176.21,0 239,0 239,0 239,0 651.5,0 727.35,0 746.97,-18.96 812,-58 826.92,-66.96 841.36,-81.13 850.08,-90.49"/>
<polygon fill="#9a32cd" stroke="#9a32cd" points="72.44,-54 65.84,-62.29 76.17,-59.92 72.44,-54"/>
<text text-anchor="middle" x="396" y="-3" font-family="Helvetica,sans-Serif" font-size="10.00"> b_turnIndex</text>
</g>
<!-- Node5&#45;&gt;Node2 -->
<g id="edge4" class="edge">
<title>Node5&#45;&gt;Node2</title>
<path fill="none" stroke="#9a32cd" stroke-dasharray="5,2" d="M825.92,-86.78C798.68,-76.51 758.51,-63.17 722,-58 559.45,-34.99 508.51,-22.37 353,-75 311.67,-88.99 270.64,-121.8 251.76,-138.25"/>
<polygon fill="#9a32cd" stroke="#9a32cd" points="824.75,-90.08 835.34,-90.4 827.27,-83.55 824.75,-90.08"/>
<text text-anchor="middle" x="509" y="-50" font-family="Helvetica,sans-Serif" font-size="10.00"> p_board</text>
</g>
<!-- Node6 -->
<g id="node6" class="node">
<title>Node6</title>
<g id="a_node6"><a target="_parent" xlink:href="https://en.cppreference.com/w/cpp/container/array.html" xlink:title=" ">
<polygon fill="white" stroke="black" points="625,-117.5 625,-136.5 676,-136.5 676,-117.5 625,-117.5"/>
<text text-anchor="middle" x="650.5" y="-124.5" font-family="Helvetica,sans-Serif" font-size="10.00">BoardT</text>
</a>
</g>
</g>
<!-- Node6&#45;&gt;Node5 -->
<g id="edge5" class="edge">
<title>Node6&#45;&gt;Node5</title>
<path fill="none" stroke="#8b1a1a" d="M686.2,-122.47C726.46,-117.22 792.09,-108.66 829.66,-103.76"/>
<polygon fill="#8b1a1a" stroke="#8b1a1a" points="685.52,-119.03 676.06,-123.8 686.43,-125.97 685.52,-119.03"/>
</g>
<!-- Node7 -->
<g id="node7" class="node">
<title>Node7</title>
<g id="a_node7"><a xlink:title=" ">
<polygon fill="white" stroke="#bfbfbf" points="381.5,-84.5 381.5,-103.5 410.5,-103.5 410.5,-84.5 381.5,-84.5"/>
<text text-anchor="middle" x="396" y="-91.5" font-family="Helvetica,sans-Serif" font-size="10.00">T</text>
</a>
</g>
</g>
<!-- Node7&#45;&gt;Node6 -->
<g id="edge6" class="edge">
<title>Node7&#45;&gt;Node6</title>
<path fill="none" stroke="#9a32cd" stroke-dasharray="5,2" d="M420.6,-97.08C468.41,-103.33 576.28,-117.43 624.91,-123.79"/>
<polygon fill="#9a32cd" stroke="#9a32cd" points="420.94,-93.6 410.58,-95.77 420.04,-100.54 420.94,-93.6"/>
<text text-anchor="middle" x="509" y="-119" font-family="Helvetica,sans-Serif" font-size="10.00"> elements</text>
</g>
<!-- Node8 -->
<g id="node8" class="node">
<title>Node8</title>
<g id="a_node8"><a target="_parent" xlink:href="https://en.cppreference.com/w/cpp/utility/functional/function.html" xlink:title=" ">
<polygon fill="white" stroke="black" points="579,-68 579,-98 722,-98 722,-68 579,-68"/>
<text text-anchor="start" x="587" y="-86" font-family="Helvetica,sans-Serif" font-size="10.00">std::function&lt; PieceTypes</text>
<text text-anchor="middle" x="650.5" y="-75" font-family="Helvetica,sans-Serif" font-size="10.00">RetT(PieceTypesArgT)&gt;</text>
</a>
</g>
</g>
<!-- Node8&#45;&gt;Node5 -->
<g id="edge7" class="edge">
<title>Node8&#45;&gt;Node5</title>
<path fill="none" stroke="#9a32cd" stroke-dasharray="5,2" d="M732.33,-86.66C757.86,-88.18 786.14,-90.25 812,-93 817.68,-93.6 823.73,-94.4 829.53,-95.24"/>
<polygon fill="#9a32cd" stroke="#9a32cd" points="732.51,-83.16 722.32,-86.08 732.1,-90.15 732.51,-83.16"/>
<text text-anchor="middle" x="776" y="-96" font-family="Helvetica,sans-Serif" font-size="10.00"> b_pieceGetter</text>
</g>
<!-- Node9 -->
<g id="node9" class="node">
<title>Node9</title>
<g id="a_node9"><a target="_parent" xlink:href="https://en.cppreference.com/w/cpp/container/list.html" xlink:title=" ">
<polygon fill="white" stroke="black" points="591,-156 591,-186 710,-186 710,-156 591,-156"/>
<text text-anchor="start" x="599" y="-174" font-family="Helvetica,sans-Serif" font-size="10.00">std::list&lt; const Piece</text>
<text text-anchor="middle" x="650.5" y="-163" font-family="Helvetica,sans-Serif" font-size="10.00">::Turn * &gt;</text>
</a>
</g>
</g>
<!-- Node9&#45;&gt;Node5 -->
<g id="edge8" class="edge">
<title>Node9&#45;&gt;Node5</title>
<path fill="none" stroke="#9a32cd" stroke-dasharray="5,2" d="M720.08,-154.81C748.93,-147.11 782.58,-136.96 812,-125 822.53,-120.72 833.77,-114.72 842.56,-109.67"/>
<polygon fill="#9a32cd" stroke="#9a32cd" points="718.87,-151.51 710.08,-157.43 720.64,-158.28 718.87,-151.51"/>
<text text-anchor="middle" x="776" y="-151" font-family="Helvetica,sans-Serif" font-size="10.00"> b_history</text>
</g>
<!-- Node10&#45;&gt;Node9 -->
<g id="edge9" class="edge">
<title>Node10&#45;&gt;Node9</title>
<path fill="none" stroke="#9a32cd" stroke-dasharray="5,2" d="M447.68,-171C488.97,-171 547.33,-171 590.68,-171"/>
<polygon fill="#9a32cd" stroke="#9a32cd" points="447.57,-167.5 437.57,-171 447.57,-174.5 447.57,-167.5"/>
<text text-anchor="middle" x="509" y="-174" font-family="Helvetica,sans-Serif" font-size="10.00"> elements</text>
</g>
<!-- Node11&#45;&gt;Node5 -->
<g id="edge12" class="edge">
<title>Node11&#45;&gt;Node5</title>
<path fill="none" stroke="#9a32cd" stroke-dasharray="5,2" d="M571.37,-220.66C637.27,-222.42 741.95,-215.5 812,-163 831.36,-148.49 846.28,-123.7 853.57,-109.94"/>
<polygon fill="#9a32cd" stroke="#9a32cd" points="571.25,-217.15 561.13,-220.3 571.01,-224.15 571.25,-217.15"/>
<text text-anchor="middle" x="650.5" y="-223" font-family="Helvetica,sans-Serif" font-size="10.00"> b_capturedPieces</text>
</g>
</g>
</svg>
