<?xml version="1.0" encoding="UTF-8" standalone="no"?>
<!DOCTYPE svg PUBLIC "-//W3C//DTD SVG 1.1//EN"
 "http://www.w3.org/Graphics/SVG/1.1/DTD/svg11.dtd">
<!-- Generated by graphviz version 2.43.0 (0)
 -->
<!-- Title: tt::Piece Pages: 1 -->
<svg width="894pt" height="260pt"
 viewBox="0.00 0.00 894.00 259.50" xmlns="http://www.w3.org/2000/svg" xmlns:xlink="http://www.w3.org/1999/xlink">
<g id="graph0" class="graph" transform="scale(1 1) rotate(0) translate(4 255.5)">
<title>tt::Piece</title>
<polygon fill="white" stroke="transparent" points="-4,4 -4,-255.5 890,-255.5 890,4 -4,4"/>
<!-- Node1 -->
<g id="node1" class="node">
<title>Node1</title>
<g id="a_node1"><a xlink:title="Generic board memeber piece API.">
<polygon fill="#bfbfbf" stroke="black" points="212,-147 212,-166 268,-166 268,-147 212,-147"/>
<text text-anchor="middle" x="240" y="-154" font-family="Helvetica,sans-Serif" font-size="10.00">tt::Piece</text>
</a>
</g>
</g>
<!-- Node9 -->
<g id="node9" class="node">
<title>Node9</title>
<g id="a_node9"><a xlink:href="classtt_1_1Piece_1_1Turn.html" target="_top" xlink:title="Generic Piece Turn on Board.">
<polygon fill="white" stroke="black" points="353,-94 353,-113 436,-113 436,-94 353,-94"/>
<text text-anchor="middle" x="394.5" y="-101" font-family="Helvetica,sans-Serif" font-size="10.00">tt::Piece::Turn</text>
</a>
</g>
</g>
<!-- Node1&#45;&gt;Node9 -->
<g id="edge9" class="edge">
<title>Node1&#45;&gt;Node9</title>
<path fill="none" stroke="#9a32cd" stroke-dasharray="5,2" d="M253.89,-138.95C261.96,-129.38 273.24,-118.33 286,-112.5 306.69,-103.04 331.96,-100.53 352.8,-100.51"/>
<polygon fill="#9a32cd" stroke="#9a32cd" points="251.13,-136.79 247.66,-146.81 256.61,-141.14 251.13,-136.79"/>
<text text-anchor="middle" x="310.5" y="-126.5" font-family="Helvetica,sans-Serif" font-size="10.00"> t_capture</text>
<text text-anchor="middle" x="310.5" y="-115.5" font-family="Helvetica,sans-Serif" font-size="10.00">t_piece</text>
</g>
<!-- Node10 -->
<g id="node10" class="node">
<title>Node10</title>
<g id="a_node10"><a target="_parent" xlink:href="https://en.cppreference.com/w/cpp/container/forward_list.html" xlink:title=" ">
<polygon fill="white" stroke="black" points="454,-140.5 454,-170.5 558,-170.5 558,-140.5 454,-140.5"/>
<text text-anchor="start" x="462" y="-158.5" font-family="Helvetica,sans-Serif" font-size="10.00">std::forward_list&lt;</text>
<text text-anchor="middle" x="506" y="-147.5" font-family="Helvetica,sans-Serif" font-size="10.00"> const Piece * &gt;</text>
</a>
</g>
</g>
<!-- Node1&#45;&gt;Node10 -->
<g id="edge12" class="edge">
<title>Node1&#45;&gt;Node10</title>
<path fill="none" stroke="#9a32cd" stroke-dasharray="5,2" d="M278.37,-156.36C324.25,-156.18 402.3,-155.89 453.76,-155.69"/>
<polygon fill="#9a32cd" stroke="#9a32cd" points="278.24,-152.86 268.26,-156.4 278.27,-159.86 278.24,-152.86"/>
<text text-anchor="middle" x="310.5" y="-158.5" font-family="Helvetica,sans-Serif" font-size="10.00"> elements</text>
</g>
<!-- Node2 -->
<g id="node2" class="node">
<title>Node2</title>
<g id="a_node2"><a xlink:href="classtt_1_1Piece_1_1Position.html" target="_top" xlink:title="Piece position at the Board.">
<polygon fill="white" stroke="black" points="0,-117 0,-136 101,-136 101,-117 0,-117"/>
<text text-anchor="middle" x="50.5" y="-124" font-family="Helvetica,sans-Serif" font-size="10.00">tt::Piece::Position</text>
</a>
</g>
</g>
<!-- Node2&#45;&gt;Node1 -->
<g id="edge1" class="edge">
<title>Node2&#45;&gt;Node1</title>
<path fill="none" stroke="#9a32cd" stroke-dasharray="5,2" d="M110.99,-134.58C136.58,-138.23 166.81,-142.78 194,-147.5 199.81,-148.51 206.02,-149.69 211.91,-150.85"/>
<polygon fill="#9a32cd" stroke="#9a32cd" points="111.45,-131.11 101.06,-133.17 110.47,-138.04 111.45,-131.11"/>
<text text-anchor="middle" x="156.5" y="-150.5" font-family="Helvetica,sans-Serif" font-size="10.00"> p_position</text>
</g>
<!-- Node2&#45;&gt;Node9 -->
<g id="edge10" class="edge">
<title>Node2&#45;&gt;Node9</title>
<path fill="none" stroke="#9a32cd" stroke-dasharray="5,2" d="M109.99,-115.25C167.22,-105.49 256.92,-93.51 335,-97.5 340.81,-97.8 346.94,-98.26 352.94,-98.8"/>
<polygon fill="#9a32cd" stroke="#9a32cd" points="109.3,-111.82 100.04,-116.98 110.5,-118.72 109.3,-111.82"/>
<text text-anchor="middle" x="240" y="-115.5" font-family="Helvetica,sans-Serif" font-size="10.00"> t_from</text>
<text text-anchor="middle" x="240" y="-104.5" font-family="Helvetica,sans-Serif" font-size="10.00">t_to</text>
</g>
<!-- Node3 -->
<g id="node3" class="node">
<title>Node3</title>
<g id="a_node3"><a target="_parent" xlink:href="https://en.cppreference.com/w/cpp/types/size_t.html" xlink:title=" ">
<polygon fill="white" stroke="black" points="17.5,-175 17.5,-194 83.5,-194 83.5,-175 17.5,-175"/>
<text text-anchor="middle" x="50.5" y="-182" font-family="Helvetica,sans-Serif" font-size="10.00">std::size_t</text>
</a>
</g>
</g>
<!-- Node3&#45;&gt;Node1 -->
<g id="edge2" class="edge">
<title>Node3&#45;&gt;Node1</title>
<path fill="none" stroke="#9a32cd" stroke-dasharray="5,2" d="M93.96,-178.16C130.07,-172.77 180.85,-165.18 211.75,-160.57"/>
<polygon fill="#9a32cd" stroke="#9a32cd" points="93.11,-174.75 83.73,-179.69 94.14,-181.67 93.11,-174.75"/>
<text text-anchor="middle" x="156.5" y="-187.5" font-family="Helvetica,sans-Serif" font-size="10.00"> p_movesMade</text>
<text text-anchor="middle" x="156.5" y="-176.5" font-family="Helvetica,sans-Serif" font-size="10.00">p_turnIndex</text>
</g>
<!-- Node4 -->
<g id="node4" class="node">
<title>Node4</title>
<g id="a_node4"><a xlink:href="classtt_1_1Board.html" target="_top" xlink:title="8x8 game board">
<polygon fill="white" stroke="black" points="827,-133 827,-152 886,-152 886,-133 827,-133"/>
<text text-anchor="middle" x="856.5" y="-140" font-family="Helvetica,sans-Serif" font-size="10.00">tt::Board</text>
</a>
</g>
</g>
<!-- Node3&#45;&gt;Node4 -->
<g id="edge13" class="edge">
<title>Node3&#45;&gt;Node4</title>
<path fill="none" stroke="#9a32cd" stroke-dasharray="5,2" d="M79.75,-198.54C115.79,-215.13 180.46,-240.5 239,-240.5 239,-240.5 239,-240.5 648.5,-240.5 730.41,-240.5 814.53,-177.04 844.27,-152.25"/>
<polygon fill="#9a32cd" stroke="#9a32cd" points="80.91,-195.22 70.38,-194.13 77.93,-201.56 80.91,-195.22"/>
<text text-anchor="middle" x="394.5" y="-243.5" font-family="Helvetica,sans-Serif" font-size="10.00"> b_turnIndex</text>
</g>
<!-- Node4&#45;&gt;Node1 -->
<g id="edge3" class="edge">
<title>Node4&#45;&gt;Node1</title>
<path fill="none" stroke="#9a32cd" stroke-dasharray="5,2" d="M823.56,-155.41C818.74,-157 813.78,-158.43 809,-159.5 769.81,-168.25 759.09,-165.1 719,-167.5 526.9,-179.01 476.09,-200.55 286,-170.5 279.86,-169.53 273.4,-167.9 267.35,-166.09"/>
<polygon fill="#9a32cd" stroke="#9a32cd" points="824.89,-158.65 833.15,-152.01 822.56,-152.05 824.89,-158.65"/>
<text text-anchor="middle" x="506" y="-188.5" font-family="Helvetica,sans-Serif" font-size="10.00"> p_board</text>
</g>
<!-- Node5 -->
<g id="node5" class="node">
<title>Node5</title>
<g id="a_node5"><a target="_parent" xlink:href="https://en.cppreference.com/w/cpp/container/array.html" xlink:title=" ">
<polygon fill="white" stroke="black" points="622,-50 622,-69 673,-69 673,-50 622,-50"/>
<text text-anchor="middle" x="647.5" y="-57" font-family="Helvetica,sans-Serif" font-size="10.00">BoardT</text>
</a>
</g>
</g>
<!-- Node5&#45;&gt;Node4 -->
<g id="edge4" class="edge">
<title>Node5&#45;&gt;Node4</title>
<path fill="none" stroke="#8b1a1a" d="M682.76,-67.65C716.08,-76.3 767.57,-91.6 809,-112.5 820.67,-118.38 833.06,-126.48 842.12,-132.78"/>
<polygon fill="#8b1a1a" stroke="#8b1a1a" points="683.6,-64.25 673.04,-65.18 681.87,-71.04 683.6,-64.25"/>
</g>
<!-- Node6 -->
<g id="node6" class="node">
<title>Node6</title>
<g id="a_node6"><a xlink:title=" ">
<polygon fill="white" stroke="#bfbfbf" points="380,-50 380,-69 409,-69 409,-50 380,-50"/>
<text text-anchor="middle" x="394.5" y="-57" font-family="Helvetica,sans-Serif" font-size="10.00">T</text>
</a>
</g>
</g>
<!-- Node6&#45;&gt;Node5 -->
<g id="edge5" class="edge">
<title>Node6&#45;&gt;Node5</title>
<path fill="none" stroke="#9a32cd" stroke-dasharray="5,2" d="M419.36,-59.5C466.98,-59.5 573.42,-59.5 621.76,-59.5"/>
<polygon fill="#9a32cd" stroke="#9a32cd" points="419.35,-56 409.35,-59.5 419.35,-63 419.35,-56"/>
<text text-anchor="middle" x="506" y="-62.5" font-family="Helvetica,sans-Serif" font-size="10.00"> elements</text>
</g>
<!-- Node7 -->
<g id="node7" class="node">
<title>Node7</title>
<g id="a_node7"><a target="_parent" xlink:href="https://en.cppreference.com/w/cpp/utility/functional/function.html" xlink:title=" ">
<polygon fill="white" stroke="black" points="576,-0.5 576,-30.5 719,-30.5 719,-0.5 576,-0.5"/>
<text text-anchor="start" x="584" y="-18.5" font-family="Helvetica,sans-Serif" font-size="10.00">std::function&lt; PieceTypes</text>
<text text-anchor="middle" x="647.5" y="-7.5" font-family="Helvetica,sans-Serif" font-size="10.00">RetT(PieceTypesArgT)&gt;</text>
</a>
</g>
</g>
<!-- Node7&#45;&gt;Node4 -->
<g id="edge6" class="edge">
<title>Node7&#45;&gt;Node4</title>
<path fill="none" stroke="#9a32cd" stroke-dasharray="5,2" d="M728.66,-31.62C756.12,-39.95 785.75,-52.32 809,-70.5 830.57,-87.37 845.15,-117.18 851.65,-132.62"/>
<polygon fill="#9a32cd" stroke="#9a32cd" points="729.63,-28.25 719.05,-28.84 727.69,-34.98 729.63,-28.25"/>
<text text-anchor="middle" x="773" y="-73.5" font-family="Helvetica,sans-Serif" font-size="10.00"> b_pieceGetter</text>
</g>
<!-- Node8 -->
<g id="node8" class="node">
<title>Node8</title>
<g id="a_node8"><a target="_parent" xlink:href="https://en.cppreference.com/w/cpp/container/list.html" xlink:title=" ">
<polygon fill="white" stroke="black" points="588,-88.5 588,-118.5 707,-118.5 707,-88.5 588,-88.5"/>
<text text-anchor="start" x="596" y="-106.5" font-family="Helvetica,sans-Serif" font-size="10.00">std::list&lt; const Piece</text>
<text text-anchor="middle" x="647.5" y="-95.5" font-family="Helvetica,sans-Serif" font-size="10.00">::Turn * &gt;</text>
</a>
</g>
</g>
<!-- Node8&#45;&gt;Node4 -->
<g id="edge7" class="edge">
<title>Node8&#45;&gt;Node4</title>
<path fill="none" stroke="#9a32cd" stroke-dasharray="5,2" d="M716.94,-113.68C745.5,-118.28 778.96,-124.11 809,-130.5 814.71,-131.71 820.77,-133.16 826.57,-134.62"/>
<polygon fill="#9a32cd" stroke="#9a32cd" points="717.48,-110.23 707.05,-112.11 716.38,-117.14 717.48,-110.23"/>
<text text-anchor="middle" x="773" y="-133.5" font-family="Helvetica,sans-Serif" font-size="10.00"> b_history</text>
</g>
<!-- Node9&#45;&gt;Node8 -->
<g id="edge8" class="edge">
<title>Node9&#45;&gt;Node8</title>
<path fill="none" stroke="#9a32cd" stroke-dasharray="5,2" d="M446.13,-103.5C487.05,-103.5 544.72,-103.5 587.69,-103.5"/>
<polygon fill="#9a32cd" stroke="#9a32cd" points="446.11,-100 436.11,-103.5 446.11,-107 446.11,-100"/>
<text text-anchor="middle" x="506" y="-106.5" font-family="Helvetica,sans-Serif" font-size="10.00"> elements</text>
</g>
<!-- Node10&#45;&gt;Node4 -->
<g id="edge11" class="edge">
<title>Node10&#45;&gt;Node4</title>
<path fill="none" stroke="#9a32cd" stroke-dasharray="5,2" d="M568.42,-153.21C644.37,-150.38 770.49,-145.67 826.81,-143.57"/>
<polygon fill="#9a32cd" stroke="#9a32cd" points="567.91,-149.73 558.05,-153.6 568.17,-156.72 567.91,-149.73"/>
<text text-anchor="middle" x="647.5" y="-155.5" font-family="Helvetica,sans-Serif" font-size="10.00"> b_capturedPieces</text>
</g>
</g>
</svg>
