<?xml version="1.0" encoding="UTF-8" standalone="no"?>
<!DOCTYPE svg PUBLIC "-//W3C//DTD SVG 1.1//EN"
 "http://www.w3.org/Graphics/SVG/1.1/DTD/svg11.dtd">
<!-- Generated by graphviz version 2.43.0 (0)
 -->
<!-- Title: tt::chess::Chessboard Pages: 1 -->
<svg width="1100pt" height="213pt"
 viewBox="0.00 0.00 1100.00 212.82" xmlns="http://www.w3.org/2000/svg" xmlns:xlink="http://www.w3.org/1999/xlink">
<g id="graph0" class="graph" transform="scale(1 1) rotate(0) translate(4 208.82)">
<title>tt::chess::Chessboard</title>
<polygon fill="white" stroke="transparent" points="-4,4 -4,-208.82 1096,-208.82 1096,4 -4,4"/>
<!-- Node1 -->
<g id="node1" class="node">
<title>Node1</title>
<g id="a_node1"><a xlink:title="Chess game board.">
<polygon fill="#bfbfbf" stroke="black" points="971,-9.32 971,-28.32 1092,-28.32 1092,-9.32 971,-9.32"/>
<text text-anchor="middle" x="1031.5" y="-16.32" font-family="Helvetica,sans-Serif" font-size="10.00">tt::chess::Chessboard</text>
</a>
</g>
</g>
<!-- Node2 -->
<g id="node2" class="node">
<title>Node2</title>
<g id="a_node2"><a xlink:href="classtt_1_1Board.html" target="_top" xlink:title="8x8 game board">
<polygon fill="white" stroke="black" points="386,-58.32 386,-77.32 445,-77.32 445,-58.32 386,-58.32"/>
<text text-anchor="middle" x="415.5" y="-65.32" font-family="Helvetica,sans-Serif" font-size="10.00">tt::Board</text>
</a>
</g>
</g>
<!-- Node2&#45;&gt;Node1 -->
<g id="edge1" class="edge">
<title>Node2&#45;&gt;Node1</title>
<path fill="none" stroke="midnightblue" d="M441.3,-53.29C453.8,-46.4 469.38,-38.46 484,-32.82 514.88,-20.91 523.31,-18.99 556,-13.82 703.69,9.56 880.47,-2.72 970.86,-11.85"/>
<polygon fill="midnightblue" stroke="midnightblue" points="439.4,-50.34 432.4,-58.3 442.83,-56.44 439.4,-50.34"/>
</g>
<!-- Node8 -->
<g id="node8" class="node">
<title>Node8</title>
<g id="a_node8"><a xlink:href="classtt_1_1Piece.html" target="_top" xlink:title="Generic board memeber piece API.">
<polygon fill="white" stroke="black" points="572.5,-117.32 572.5,-136.32 628.5,-136.32 628.5,-117.32 572.5,-117.32"/>
<text text-anchor="middle" x="600.5" y="-124.32" font-family="Helvetica,sans-Serif" font-size="10.00">tt::Piece</text>
</a>
</g>
</g>
<!-- Node2&#45;&gt;Node8 -->
<g id="edge10" class="edge">
<title>Node2&#45;&gt;Node8</title>
<path fill="none" stroke="#9a32cd" stroke-dasharray="5,2" d="M455.08,-77.42C479.13,-83.7 510.62,-92.46 538,-101.82 551.41,-106.41 566.14,-112.36 577.81,-117.3"/>
<polygon fill="#9a32cd" stroke="#9a32cd" points="455.81,-74 445.26,-74.89 454.07,-80.77 455.81,-74"/>
<text text-anchor="middle" x="511" y="-104.82" font-family="Helvetica,sans-Serif" font-size="10.00"> p_board</text>
</g>
<!-- Node3 -->
<g id="node3" class="node">
<title>Node3</title>
<g id="a_node3"><a target="_parent" xlink:href="https://en.cppreference.com/w/cpp/container/array.html" xlink:title=" ">
<polygon fill="white" stroke="black" points="160,-67.32 160,-86.32 211,-86.32 211,-67.32 160,-67.32"/>
<text text-anchor="middle" x="185.5" y="-74.32" font-family="Helvetica,sans-Serif" font-size="10.00">BoardT</text>
</a>
</g>
</g>
<!-- Node3&#45;&gt;Node2 -->
<g id="edge2" class="edge">
<title>Node3&#45;&gt;Node2</title>
<path fill="none" stroke="#8b1a1a" d="M221.51,-75.44C266.57,-73.66 344,-70.6 385.77,-68.95"/>
<polygon fill="#8b1a1a" stroke="#8b1a1a" points="221.19,-71.95 211.33,-75.84 221.46,-78.94 221.19,-71.95"/>
</g>
<!-- Node4 -->
<g id="node4" class="node">
<title>Node4</title>
<g id="a_node4"><a xlink:title=" ">
<polygon fill="white" stroke="#bfbfbf" points="0,-67.32 0,-86.32 29,-86.32 29,-67.32 0,-67.32"/>
<text text-anchor="middle" x="14.5" y="-74.32" font-family="Helvetica,sans-Serif" font-size="10.00">T</text>
</a>
</g>
</g>
<!-- Node4&#45;&gt;Node3 -->
<g id="edge3" class="edge">
<title>Node4&#45;&gt;Node3</title>
<path fill="none" stroke="#9a32cd" stroke-dasharray="5,2" d="M39.22,-76.82C71.12,-76.82 127.55,-76.82 159.89,-76.82"/>
<polygon fill="#9a32cd" stroke="#9a32cd" points="39.04,-73.32 29.04,-76.82 39.04,-80.32 39.04,-73.32"/>
<text text-anchor="middle" x="71.5" y="-79.82" font-family="Helvetica,sans-Serif" font-size="10.00"> elements</text>
</g>
<!-- Node5 -->
<g id="node5" class="node">
<title>Node5</title>
<g id="a_node5"><a target="_parent" xlink:href="https://en.cppreference.com/w/cpp/utility/functional/function.html" xlink:title=" ">
<polygon fill="white" stroke="black" points="114,-17.82 114,-47.82 257,-47.82 257,-17.82 114,-17.82"/>
<text text-anchor="start" x="122" y="-35.82" font-family="Helvetica,sans-Serif" font-size="10.00">std::function&lt; PieceTypes</text>
<text text-anchor="middle" x="185.5" y="-24.82" font-family="Helvetica,sans-Serif" font-size="10.00">RetT(PieceTypesArgT)&gt;</text>
</a>
</g>
</g>
<!-- Node5&#45;&gt;Node2 -->
<g id="edge4" class="edge">
<title>Node5&#45;&gt;Node2</title>
<path fill="none" stroke="#9a32cd" stroke-dasharray="5,2" d="M267.3,-43.86C292.82,-47.49 321.11,-51.66 347,-55.82 359.81,-57.88 373.95,-60.36 385.96,-62.53"/>
<polygon fill="#9a32cd" stroke="#9a32cd" points="267.68,-40.38 257.29,-42.44 266.7,-47.31 267.68,-40.38"/>
<text text-anchor="middle" x="311" y="-58.82" font-family="Helvetica,sans-Serif" font-size="10.00"> b_pieceGetter</text>
</g>
<!-- Node6 -->
<g id="node6" class="node">
<title>Node6</title>
<g id="a_node6"><a target="_parent" xlink:href="https://en.cppreference.com/w/cpp/container/list.html" xlink:title=" ">
<polygon fill="white" stroke="black" points="972,-76.82 972,-106.82 1091,-106.82 1091,-76.82 972,-76.82"/>
<text text-anchor="start" x="980" y="-94.82" font-family="Helvetica,sans-Serif" font-size="10.00">std::list&lt; const Piece</text>
<text text-anchor="middle" x="1031.5" y="-83.82" font-family="Helvetica,sans-Serif" font-size="10.00">::Turn * &gt;</text>
</a>
</g>
</g>
<!-- Node6&#45;&gt;Node2 -->
<g id="edge5" class="edge">
<title>Node6&#45;&gt;Node2</title>
<path fill="none" stroke="#9a32cd" stroke-dasharray="5,2" d="M1008.39,-70.01C993.94,-57.35 973.92,-42.59 953,-35.82 767.23,24.27 526.71,-35.25 445.05,-59"/>
<polygon fill="#9a32cd" stroke="#9a32cd" points="1006.07,-72.63 1015.82,-76.77 1010.78,-67.45 1006.07,-72.63"/>
<text text-anchor="middle" x="687.5" y="-18.82" font-family="Helvetica,sans-Serif" font-size="10.00"> b_history</text>
</g>
<!-- Node7 -->
<g id="node7" class="node">
<title>Node7</title>
<g id="a_node7"><a xlink:href="classtt_1_1Piece_1_1Turn.html" target="_top" xlink:title="Generic Piece Turn on Board.">
<polygon fill="white" stroke="black" points="740.5,-150.32 740.5,-169.32 823.5,-169.32 823.5,-150.32 740.5,-150.32"/>
<text text-anchor="middle" x="782" y="-157.32" font-family="Helvetica,sans-Serif" font-size="10.00">tt::Piece::Turn</text>
</a>
</g>
</g>
<!-- Node7&#45;&gt;Node6 -->
<g id="edge6" class="edge">
<title>Node7&#45;&gt;Node6</title>
<path fill="none" stroke="#9a32cd" stroke-dasharray="5,2" d="M833.81,-150.53C867.86,-143.8 913.53,-133.8 953,-121.82 966.94,-117.59 981.95,-112.03 995.01,-106.84"/>
<polygon fill="#9a32cd" stroke="#9a32cd" points="832.77,-147.16 823.63,-152.51 834.11,-154.03 832.77,-147.16"/>
<text text-anchor="middle" x="902.5" y="-148.82" font-family="Helvetica,sans-Serif" font-size="10.00"> elements</text>
</g>
<!-- Node8&#45;&gt;Node7 -->
<g id="edge7" class="edge">
<title>Node8&#45;&gt;Node7</title>
<path fill="none" stroke="#9a32cd" stroke-dasharray="5,2" d="M638.73,-133.66C668.42,-139.12 709.94,-146.76 740.46,-152.37"/>
<polygon fill="#9a32cd" stroke="#9a32cd" points="639.23,-130.2 628.76,-131.83 637.96,-137.08 639.23,-130.2"/>
<text text-anchor="middle" x="687.5" y="-159.82" font-family="Helvetica,sans-Serif" font-size="10.00"> t_capture</text>
<text text-anchor="middle" x="687.5" y="-148.82" font-family="Helvetica,sans-Serif" font-size="10.00">t_piece</text>
</g>
<!-- Node11 -->
<g id="node11" class="node">
<title>Node11</title>
<g id="a_node11"><a target="_parent" xlink:href="https://en.cppreference.com/w/cpp/container/forward_list.html" xlink:title=" ">
<polygon fill="white" stroke="black" points="730,-55.82 730,-85.82 834,-85.82 834,-55.82 730,-55.82"/>
<text text-anchor="start" x="738" y="-73.82" font-family="Helvetica,sans-Serif" font-size="10.00">std::forward_list&lt;</text>
<text text-anchor="middle" x="782" y="-62.82" font-family="Helvetica,sans-Serif" font-size="10.00"> const Piece * &gt;</text>
</a>
</g>
</g>
<!-- Node8&#45;&gt;Node11 -->
<g id="edge13" class="edge">
<title>Node8&#45;&gt;Node11</title>
<path fill="none" stroke="#9a32cd" stroke-dasharray="5,2" d="M638.33,-114.72C646.45,-112.09 655.01,-109.34 663,-106.82 685.27,-99.8 709.96,-92.23 730.99,-85.86"/>
<polygon fill="#9a32cd" stroke="#9a32cd" points="637.14,-111.43 628.71,-117.85 639.31,-118.08 637.14,-111.43"/>
<text text-anchor="middle" x="687.5" y="-109.82" font-family="Helvetica,sans-Serif" font-size="10.00"> elements</text>
</g>
<!-- Node12 -->
<g id="node12" class="node">
<title>Node12</title>
<g id="a_node12"><a xlink:href="classtt_1_1chess_1_1King.html" target="_top" xlink:title="King chess Piece.">
<polygon fill="white" stroke="black" points="739,-110.32 739,-129.32 825,-129.32 825,-110.32 739,-110.32"/>
<text text-anchor="middle" x="782" y="-117.32" font-family="Helvetica,sans-Serif" font-size="10.00">tt::chess::King</text>
</a>
</g>
</g>
<!-- Node8&#45;&gt;Node12 -->
<g id="edge16" class="edge">
<title>Node8&#45;&gt;Node12</title>
<path fill="none" stroke="midnightblue" d="M638.94,-125.36C668.07,-124.22 708.48,-122.65 738.76,-121.47"/>
<polygon fill="midnightblue" stroke="midnightblue" points="638.62,-121.87 628.76,-125.76 638.89,-128.86 638.62,-121.87"/>
</g>
<!-- Node9 -->
<g id="node9" class="node">
<title>Node9</title>
<g id="a_node9"><a xlink:href="classtt_1_1Piece_1_1Position.html" target="_top" xlink:title="Piece position at the Board.">
<polygon fill="white" stroke="black" points="365,-177.32 365,-196.32 466,-196.32 466,-177.32 365,-177.32"/>
<text text-anchor="middle" x="415.5" y="-184.32" font-family="Helvetica,sans-Serif" font-size="10.00">tt::Piece::Position</text>
</a>
</g>
</g>
<!-- Node9&#45;&gt;Node7 -->
<g id="edge11" class="edge">
<title>Node9&#45;&gt;Node7</title>
<path fill="none" stroke="#9a32cd" stroke-dasharray="5,2" d="M476.08,-185.92C535.88,-184.51 630.57,-180.93 712,-171.82 721.18,-170.79 731,-169.32 740.25,-167.75"/>
<polygon fill="#9a32cd" stroke="#9a32cd" points="475.98,-182.42 466.06,-186.14 476.13,-189.42 475.98,-182.42"/>
<text text-anchor="middle" x="600.5" y="-196.82" font-family="Helvetica,sans-Serif" font-size="10.00"> t_from</text>
<text text-anchor="middle" x="600.5" y="-185.82" font-family="Helvetica,sans-Serif" font-size="10.00">t_to</text>
</g>
<!-- Node9&#45;&gt;Node8 -->
<g id="edge8" class="edge">
<title>Node9&#45;&gt;Node8</title>
<path fill="none" stroke="#9a32cd" stroke-dasharray="5,2" d="M455.42,-174.06C490.61,-162.52 541.49,-145.84 572.43,-135.7"/>
<polygon fill="#9a32cd" stroke="#9a32cd" points="453.91,-170.87 445.5,-177.31 456.09,-177.52 453.91,-170.87"/>
<text text-anchor="middle" x="511" y="-166.82" font-family="Helvetica,sans-Serif" font-size="10.00"> p_position</text>
</g>
<!-- Node10 -->
<g id="node10" class="node">
<title>Node10</title>
<g id="a_node10"><a target="_parent" xlink:href="https://en.cppreference.com/w/cpp/types/size_t.html" xlink:title=" ">
<polygon fill="white" stroke="black" points="152.5,-106.32 152.5,-125.32 218.5,-125.32 218.5,-106.32 152.5,-106.32"/>
<text text-anchor="middle" x="185.5" y="-113.32" font-family="Helvetica,sans-Serif" font-size="10.00">std::size_t</text>
</a>
</g>
</g>
<!-- Node10&#45;&gt;Node2 -->
<g id="edge14" class="edge">
<title>Node10&#45;&gt;Node2</title>
<path fill="none" stroke="#9a32cd" stroke-dasharray="5,2" d="M228.58,-106.96C274.28,-97.34 346.05,-82.23 385.72,-73.88"/>
<polygon fill="#9a32cd" stroke="#9a32cd" points="227.75,-103.56 218.68,-109.04 229.19,-110.41 227.75,-103.56"/>
<text text-anchor="middle" x="311" y="-98.82" font-family="Helvetica,sans-Serif" font-size="10.00"> b_turnIndex</text>
</g>
<!-- Node10&#45;&gt;Node8 -->
<g id="edge9" class="edge">
<title>Node10&#45;&gt;Node8</title>
<path fill="none" stroke="#9a32cd" stroke-dasharray="5,2" d="M228.6,-116.94C313.27,-119.2 502.05,-124.22 572.4,-126.1"/>
<polygon fill="#9a32cd" stroke="#9a32cd" points="228.65,-113.44 218.56,-116.67 228.47,-120.44 228.65,-113.44"/>
<text text-anchor="middle" x="415.5" y="-136.82" font-family="Helvetica,sans-Serif" font-size="10.00"> p_movesMade</text>
<text text-anchor="middle" x="415.5" y="-125.82" font-family="Helvetica,sans-Serif" font-size="10.00">p_turnIndex</text>
</g>
<!-- Node11&#45;&gt;Node2 -->
<g id="edge12" class="edge">
<title>Node11&#45;&gt;Node2</title>
<path fill="none" stroke="#9a32cd" stroke-dasharray="5,2" d="M719.55,-70.31C639.82,-69.66 503.97,-68.54 445.1,-68.05"/>
<polygon fill="#9a32cd" stroke="#9a32cd" points="719.91,-73.82 729.94,-70.4 719.97,-66.82 719.91,-73.82"/>
<text text-anchor="middle" x="600.5" y="-72.82" font-family="Helvetica,sans-Serif" font-size="10.00"> b_capturedPieces</text>
</g>
<!-- Node12&#45;&gt;Node1 -->
<g id="edge15" class="edge">
<title>Node12&#45;&gt;Node1</title>
<path fill="none" stroke="#9a32cd" stroke-dasharray="5,2" d="M818.2,-105.81C823.73,-102.9 829.21,-99.56 834,-95.82 843.96,-88.05 841.52,-80.87 852,-73.82 887.65,-49.84 934.22,-35.95 970.85,-28.13"/>
<polygon fill="#9a32cd" stroke="#9a32cd" points="816.4,-102.79 808.92,-110.3 819.45,-109.09 816.4,-102.79"/>
<text text-anchor="middle" x="902.5" y="-109.82" font-family="Helvetica,sans-Serif" font-size="10.00"> c_blackKing</text>
<text text-anchor="middle" x="902.5" y="-98.82" font-family="Helvetica,sans-Serif" font-size="10.00">c_currentEnemyKing</text>
<text text-anchor="middle" x="902.5" y="-87.82" font-family="Helvetica,sans-Serif" font-size="10.00">c_currentKing</text>
<text text-anchor="middle" x="902.5" y="-76.82" font-family="Helvetica,sans-Serif" font-size="10.00">c_whiteKing</text>
</g>
</g>
</svg>
