<?xml version="1.0" encoding="UTF-8" standalone="no"?>
<!DOCTYPE svg PUBLIC "-//W3C//DTD SVG 1.1//EN"
 "http://www.w3.org/Graphics/SVG/1.1/DTD/svg11.dtd">
<!-- Generated by graphviz version 2.43.0 (0)
 -->
<!-- Title: tt::ex::illegal_turn Pages: 1 -->
<svg width="111pt" height="192pt"
 viewBox="0.00 0.00 111.00 192.00" xmlns="http://www.w3.org/2000/svg" xmlns:xlink="http://www.w3.org/1999/xlink">

<svg id="main" version="1.1" xmlns="http://www.w3.org/2000/svg" xmlns:xlink="http://www.w3.org/1999/xlink" xml:space="preserve" onload="init(evt)">
<style type="text/css"><![CDATA[
.node, .edge {opacity: 0.7;}
.node.selected, .edge.selected {opacity: 1;}
.edge:hover path { stroke: red; }
.edge:hover polygon { stroke: red; fill: red; }
]]></style>
<script type="application/ecmascript" xlink:href="svg.min.js"/>
<svg id="graph" class="graph">
<g id="graph0" class="graph" transform="scale(1 1) rotate(0) translate(4 188)">
<title>tt::ex::illegal_turn</title>
<!-- Node1 -->
<g id="Node000001" class="node">
<title>Node1</title>
<g id="a_Node000001"><a xlink:title="Thrown when constructed Piece::Turn object is malformed.">
<polygon fill="#999999" stroke="#666666" points="103,-19 0,-19 0,0 103,0 103,-19"/>
<text text-anchor="middle" x="51.5" y="-7" font-family="Helvetica,sans-Serif" font-size="10.00">tt::ex::illegal_turn</text>
</a>
</g>
</g>
<!-- Node2 -->
<g id="Node000002" class="node">
<title>Node2</title>
<g id="a_Node000002"><a xlink:href="classtt_1_1ex_1_1tartan.html" target="_top" xlink:title="Base class for all tartan exceptions.">
<polygon fill="white" stroke="#666666" points="90,-74 13,-74 13,-55 90,-55 90,-74"/>
<text text-anchor="middle" x="51.5" y="-62" font-family="Helvetica,sans-Serif" font-size="10.00">tt::ex::tartan</text>
</a>
</g>
</g>
<!-- Node2&#45;&gt;Node1 -->
<g id="edge1_Node000001_Node000002" class="edge">
<title>Node2&#45;&gt;Node1</title>
<g id="a_edge1_Node000001_Node000002"><a xlink:title=" ">
<path fill="none" stroke="#63b8ff" d="M51.5,-44.66C51.5,-35.93 51.5,-25.99 51.5,-19.09"/>
<polygon fill="#63b8ff" stroke="#63b8ff" points="48,-44.75 51.5,-54.75 55,-44.75 48,-44.75"/>
</a>
</g>
</g>
<!-- Node3 -->
<g id="Node000003" class="node">
<title>Node3</title>
<g id="a_Node000003"><a target="_parent" xlink:href="https://en.cppreference.com/w/cpp/error/logic_error.html" xlink:title=" ">
<polygon fill="white" stroke="#666666" points="96,-129 7,-129 7,-110 96,-110 96,-129"/>
<text text-anchor="middle" x="51.5" y="-117" font-family="Helvetica,sans-Serif" font-size="10.00">std::logic_error</text>
</a>
</g>
</g>
<!-- Node3&#45;&gt;Node2 -->
<g id="edge2_Node000002_Node000003" class="edge">
<title>Node3&#45;&gt;Node2</title>
<g id="a_edge2_Node000002_Node000003"><a xlink:title=" ">
<path fill="none" stroke="#63b8ff" d="M51.5,-99.66C51.5,-90.93 51.5,-80.99 51.5,-74.09"/>
<polygon fill="#63b8ff" stroke="#63b8ff" points="48,-99.75 51.5,-109.75 55,-99.75 48,-99.75"/>
</a>
</g>
</g>
<!-- Node4 -->
<g id="Node000004" class="node">
<title>Node4</title>
<g id="a_Node000004"><a target="_parent" xlink:href="https://en.cppreference.com/w/cpp/error/exception.html" xlink:title=" ">
<polygon fill="white" stroke="#666666" points="94.5,-184 8.5,-184 8.5,-165 94.5,-165 94.5,-184"/>
<text text-anchor="middle" x="51.5" y="-172" font-family="Helvetica,sans-Serif" font-size="10.00">std::exception</text>
</a>
</g>
</g>
<!-- Node4&#45;&gt;Node3 -->
<g id="edge3_Node000003_Node000004" class="edge">
<title>Node4&#45;&gt;Node3</title>
<g id="a_edge3_Node000003_Node000004"><a xlink:title=" ">
<path fill="none" stroke="#63b8ff" d="M51.5,-154.66C51.5,-145.93 51.5,-135.99 51.5,-129.09"/>
<polygon fill="#63b8ff" stroke="#63b8ff" points="48,-154.75 51.5,-164.75 55,-154.75 48,-154.75"/>
</a>
</g>
</g>
</g>
</svg>
</svg>

<style type='text/css'>
<![CDATA[
[data-mouse-over-selected='false'] { opacity: 0.7; }
[data-mouse-over-selected='true']  { opacity: 1.0; }
]]>
</style>
<script type="application/ecmascript"><![CDATA[
document.addEventListener('DOMContentLoaded', (event) => {
  highlightEdges();
  highlightAdjacentNodes();
});
]]></script>
</svg>
