<?xml version="1.0" encoding="UTF-8" standalone="no"?>
<!DOCTYPE svg PUBLIC "-//W3C//DTD SVG 1.1//EN"
 "http://www.w3.org/Graphics/SVG/1.1/DTD/svg11.dtd">
<!-- Generated by graphviz version 2.43.0 (0)
 -->
<!-- Title: tt::Piece::Turn Pages: 1 -->
<svg width="250pt" height="218pt"
 viewBox="0.00 0.00 250.00 218.00" xmlns="http://www.w3.org/2000/svg" xmlns:xlink="http://www.w3.org/1999/xlink">
<g id="graph0" class="graph" transform="scale(1 1) rotate(0) translate(4 214)">
<title>tt::Piece::Turn</title>
<polygon fill="white" stroke="transparent" points="-4,4 -4,-214 246,-214 246,4 -4,4"/>
<!-- Node1 -->
<g id="node1" class="node">
<title>Node1</title>
<g id="a_node1"><a xlink:title="Generic Piece Turn on Board.">
<polygon fill="#bfbfbf" stroke="black" points="0,-95.5 0,-114.5 83,-114.5 83,-95.5 0,-95.5"/>
<text text-anchor="middle" x="41.5" y="-102.5" font-family="Helvetica,sans-Serif" font-size="10.00">tt::Piece::Turn</text>
</a>
</g>
</g>
<!-- Node2 -->
<g id="node2" class="node">
<title>Node2</title>
<g id="a_node2"><a xlink:href="classtt_1_1chess_1_1Bishop_1_1Turn.html" target="_top" xlink:title="Bishop Turn.">
<polygon fill="white" stroke="black" points="119,-190.5 119,-209.5 242,-209.5 242,-190.5 119,-190.5"/>
<text text-anchor="middle" x="180.5" y="-197.5" font-family="Helvetica,sans-Serif" font-size="10.00">tt::chess::Bishop::Turn</text>
</a>
</g>
</g>
<!-- Node1&#45;&gt;Node2 -->
<g id="edge1" class="edge">
<title>Node1&#45;&gt;Node2</title>
<path fill="none" stroke="midnightblue" d="M56.09,-122.76C70.11,-139.94 93.48,-165.59 119,-181 125.31,-184.81 132.47,-187.93 139.59,-190.46"/>
<polygon fill="midnightblue" stroke="midnightblue" points="58.6,-120.3 49.65,-114.64 53.12,-124.65 58.6,-120.3"/>
</g>
<!-- Node3 -->
<g id="node3" class="node">
<title>Node3</title>
<g id="a_node3"><a xlink:href="classtt_1_1chess_1_1King_1_1Turn.html" target="_top" xlink:title="King Turn.">
<polygon fill="white" stroke="black" points="124.5,-152.5 124.5,-171.5 236.5,-171.5 236.5,-152.5 124.5,-152.5"/>
<text text-anchor="middle" x="180.5" y="-159.5" font-family="Helvetica,sans-Serif" font-size="10.00">tt::chess::King::Turn</text>
</a>
</g>
</g>
<!-- Node1&#45;&gt;Node3 -->
<g id="edge2" class="edge">
<title>Node1&#45;&gt;Node3</title>
<path fill="none" stroke="midnightblue" d="M68.7,-119.29C83.25,-126.9 101.85,-136.1 119,-143 127.58,-146.45 137.04,-149.69 145.88,-152.47"/>
<polygon fill="midnightblue" stroke="midnightblue" points="70.24,-116.15 59.77,-114.55 66.96,-122.33 70.24,-116.15"/>
</g>
<!-- Node4 -->
<g id="node4" class="node">
<title>Node4</title>
<g id="a_node4"><a xlink:href="classtt_1_1chess_1_1Knight_1_1Turn.html" target="_top" xlink:title="Knight Turn.">
<polygon fill="white" stroke="black" points="119.5,-114.5 119.5,-133.5 241.5,-133.5 241.5,-114.5 119.5,-114.5"/>
<text text-anchor="middle" x="180.5" y="-121.5" font-family="Helvetica,sans-Serif" font-size="10.00">tt::chess::Knight::Turn</text>
</a>
</g>
</g>
<!-- Node1&#45;&gt;Node4 -->
<g id="edge3" class="edge">
<title>Node1&#45;&gt;Node4</title>
<path fill="none" stroke="midnightblue" d="M93.35,-112.05C101.84,-113.23 110.71,-114.46 119.4,-115.66"/>
<polygon fill="midnightblue" stroke="midnightblue" points="93.62,-108.56 83.23,-110.65 92.66,-115.49 93.62,-108.56"/>
</g>
<!-- Node5 -->
<g id="node5" class="node">
<title>Node5</title>
<g id="a_node5"><a xlink:href="classtt_1_1chess_1_1Pawn_1_1Turn.html" target="_top" xlink:title="Pawn Turn.">
<polygon fill="white" stroke="black" points="122.5,-76.5 122.5,-95.5 238.5,-95.5 238.5,-76.5 122.5,-76.5"/>
<text text-anchor="middle" x="180.5" y="-83.5" font-family="Helvetica,sans-Serif" font-size="10.00">tt::chess::Pawn::Turn</text>
</a>
</g>
</g>
<!-- Node1&#45;&gt;Node5 -->
<g id="edge4" class="edge">
<title>Node1&#45;&gt;Node5</title>
<path fill="none" stroke="midnightblue" d="M93.31,-97.95C102.8,-96.64 112.78,-95.25 122.44,-93.91"/>
<polygon fill="midnightblue" stroke="midnightblue" points="92.66,-94.51 83.23,-99.35 93.62,-101.44 92.66,-94.51"/>
</g>
<!-- Node6 -->
<g id="node6" class="node">
<title>Node6</title>
<g id="a_node6"><a xlink:href="classtt_1_1chess_1_1Queen_1_1Turn.html" target="_top" xlink:title="Queen Turn.">
<polygon fill="white" stroke="black" points="119.5,-38.5 119.5,-57.5 241.5,-57.5 241.5,-38.5 119.5,-38.5"/>
<text text-anchor="middle" x="180.5" y="-45.5" font-family="Helvetica,sans-Serif" font-size="10.00">tt::chess::Queen::Turn</text>
</a>
</g>
</g>
<!-- Node1&#45;&gt;Node6 -->
<g id="edge5" class="edge">
<title>Node1&#45;&gt;Node6</title>
<path fill="none" stroke="midnightblue" d="M68.7,-90.71C83.25,-83.1 101.85,-73.9 119,-67 127.58,-63.55 137.04,-60.31 145.88,-57.53"/>
<polygon fill="midnightblue" stroke="midnightblue" points="66.96,-87.67 59.77,-95.45 70.24,-93.85 66.96,-87.67"/>
</g>
<!-- Node7 -->
<g id="node7" class="node">
<title>Node7</title>
<g id="a_node7"><a xlink:href="classtt_1_1chess_1_1Rook_1_1Turn.html" target="_top" xlink:title="Rook Turn.">
<polygon fill="white" stroke="black" points="123,-0.5 123,-19.5 238,-19.5 238,-0.5 123,-0.5"/>
<text text-anchor="middle" x="180.5" y="-7.5" font-family="Helvetica,sans-Serif" font-size="10.00">tt::chess::Rook::Turn</text>
</a>
</g>
</g>
<!-- Node1&#45;&gt;Node7 -->
<g id="edge6" class="edge">
<title>Node1&#45;&gt;Node7</title>
<path fill="none" stroke="midnightblue" d="M56.09,-87.24C70.11,-70.06 93.48,-44.41 119,-29 125.31,-25.19 132.47,-22.07 139.59,-19.54"/>
<polygon fill="midnightblue" stroke="midnightblue" points="53.12,-85.35 49.65,-95.36 58.6,-89.7 53.12,-85.35"/>
</g>
</g>
</svg>
