<?xml version="1.0" encoding="UTF-8" standalone="no"?>
<!DOCTYPE svg PUBLIC "-//W3C//DTD SVG 1.1//EN"
 "http://www.w3.org/Graphics/SVG/1.1/DTD/svg11.dtd">
<!-- Generated by graphviz version 2.43.0 (0)
 -->
<!-- Title: tt::chess::Rook Pages: 1 -->
<svg width="900pt" height="262pt"
 viewBox="0.00 0.00 900.00 262.00" xmlns="http://www.w3.org/2000/svg" xmlns:xlink="http://www.w3.org/1999/xlink">
<g id="graph0" class="graph" transform="scale(1 1) rotate(0) translate(4 258)">
<title>tt::chess::Rook</title>
<polygon fill="white" stroke="transparent" points="-4,4 -4,-258 896,-258 896,4 -4,4"/>
<!-- Node1 -->
<g id="node1" class="node">
<title>Node1</title>
<g id="a_node1"><a xlink:title="Rook chess Piece.">
<polygon fill="#bfbfbf" stroke="black" points="353,-122.5 353,-141.5 442,-141.5 442,-122.5 353,-122.5"/>
<text text-anchor="middle" x="397.5" y="-129.5" font-family="Helvetica,sans-Serif" font-size="10.00">tt::chess::Rook</text>
</a>
</g>
</g>
<!-- Node2 -->
<g id="node2" class="node">
<title>Node2</title>
<g id="a_node2"><a xlink:href="classtt_1_1Piece.html" target="_top" xlink:title="Generic board memeber piece API.">
<polygon fill="white" stroke="black" points="212,-138.5 212,-157.5 268,-157.5 268,-138.5 212,-138.5"/>
<text text-anchor="middle" x="240" y="-145.5" font-family="Helvetica,sans-Serif" font-size="10.00">tt::Piece</text>
</a>
</g>
</g>
<!-- Node2&#45;&gt;Node1 -->
<g id="edge1" class="edge">
<title>Node2&#45;&gt;Node1</title>
<path fill="none" stroke="midnightblue" d="M278.25,-144.17C300.73,-141.85 329.48,-138.9 353,-136.48"/>
<polygon fill="midnightblue" stroke="midnightblue" points="277.68,-140.71 268.09,-145.21 278.39,-147.67 277.68,-140.71"/>
</g>
<!-- Node10 -->
<g id="node10" class="node">
<title>Node10</title>
<g id="a_node10"><a xlink:href="classtt_1_1Piece_1_1Turn.html" target="_top" xlink:title="Generic Piece Turn on Board.">
<polygon fill="white" stroke="black" points="356,-161.5 356,-180.5 439,-180.5 439,-161.5 356,-161.5"/>
<text text-anchor="middle" x="397.5" y="-168.5" font-family="Helvetica,sans-Serif" font-size="10.00">tt::Piece::Turn</text>
</a>
</g>
</g>
<!-- Node2&#45;&gt;Node10 -->
<g id="edge10" class="edge">
<title>Node2&#45;&gt;Node10</title>
<path fill="none" stroke="#9a32cd" stroke-dasharray="5,2" d="M278.29,-153.52C301.64,-156.97 331.73,-161.42 355.71,-164.97"/>
<polygon fill="#9a32cd" stroke="#9a32cd" points="278.49,-150.01 268.09,-152.01 277.47,-156.93 278.49,-150.01"/>
<text text-anchor="middle" x="310.5" y="-175" font-family="Helvetica,sans-Serif" font-size="10.00"> t_capture</text>
<text text-anchor="middle" x="310.5" y="-164" font-family="Helvetica,sans-Serif" font-size="10.00">t_piece</text>
</g>
<!-- Node11 -->
<g id="node11" class="node">
<title>Node11</title>
<g id="a_node11"><a target="_parent" xlink:href="https://en.cppreference.com/w/cpp/container/forward_list.html" xlink:title=" ">
<polygon fill="white" stroke="black" points="460,-201 460,-231 564,-231 564,-201 460,-201"/>
<text text-anchor="start" x="468" y="-219" font-family="Helvetica,sans-Serif" font-size="10.00">std::forward_list&lt;</text>
<text text-anchor="middle" x="512" y="-208" font-family="Helvetica,sans-Serif" font-size="10.00"> const Piece * &gt;</text>
</a>
</g>
</g>
<!-- Node2&#45;&gt;Node11 -->
<g id="edge13" class="edge">
<title>Node2&#45;&gt;Node11</title>
<path fill="none" stroke="#9a32cd" stroke-dasharray="5,2" d="M256.32,-165.33C264.35,-173.26 274.82,-181.99 286,-187 341.71,-211.96 412.44,-217.32 459.58,-217.67"/>
<polygon fill="#9a32cd" stroke="#9a32cd" points="258.61,-162.66 249.18,-157.83 253.54,-167.49 258.61,-162.66"/>
<text text-anchor="middle" x="310.5" y="-205" font-family="Helvetica,sans-Serif" font-size="10.00"> elements</text>
</g>
<!-- Node3 -->
<g id="node3" class="node">
<title>Node3</title>
<g id="a_node3"><a xlink:href="classtt_1_1Piece_1_1Position.html" target="_top" xlink:title="Piece position at the Board.">
<polygon fill="white" stroke="black" points="0,-198.5 0,-217.5 101,-217.5 101,-198.5 0,-198.5"/>
<text text-anchor="middle" x="50.5" y="-205.5" font-family="Helvetica,sans-Serif" font-size="10.00">tt::Piece::Position</text>
</a>
</g>
</g>
<!-- Node3&#45;&gt;Node2 -->
<g id="edge2" class="edge">
<title>Node3&#45;&gt;Node2</title>
<path fill="none" stroke="#9a32cd" stroke-dasharray="5,2" d="M90.98,-195.37C127.27,-183.75 180.11,-166.84 211.86,-156.68"/>
<polygon fill="#9a32cd" stroke="#9a32cd" points="89.67,-192.11 81.21,-198.49 91.8,-198.78 89.67,-192.11"/>
<text text-anchor="middle" x="156.5" y="-188" font-family="Helvetica,sans-Serif" font-size="10.00"> p_position</text>
</g>
<!-- Node3&#45;&gt;Node10 -->
<g id="edge11" class="edge">
<title>Node3&#45;&gt;Node10</title>
<path fill="none" stroke="#9a32cd" stroke-dasharray="5,2" d="M100.25,-219.54C157.94,-230.95 256.1,-243.24 335,-217 356.51,-209.85 376.57,-191.91 387.62,-180.66"/>
<polygon fill="#9a32cd" stroke="#9a32cd" points="100.81,-216.08 90.31,-217.5 99.41,-222.94 100.81,-216.08"/>
<text text-anchor="middle" x="240" y="-246" font-family="Helvetica,sans-Serif" font-size="10.00"> t_from</text>
<text text-anchor="middle" x="240" y="-235" font-family="Helvetica,sans-Serif" font-size="10.00">t_to</text>
</g>
<!-- Node4 -->
<g id="node4" class="node">
<title>Node4</title>
<g id="a_node4"><a target="_parent" xlink:href="https://en.cppreference.com/w/cpp/types/size_t.html" xlink:title=" ">
<polygon fill="white" stroke="black" points="17.5,-62.5 17.5,-81.5 83.5,-81.5 83.5,-62.5 17.5,-62.5"/>
<text text-anchor="middle" x="50.5" y="-69.5" font-family="Helvetica,sans-Serif" font-size="10.00">std::size_t</text>
</a>
</g>
</g>
<!-- Node4&#45;&gt;Node2 -->
<g id="edge3" class="edge">
<title>Node4&#45;&gt;Node2</title>
<path fill="none" stroke="#9a32cd" stroke-dasharray="5,2" d="M84.74,-85.47C122.28,-100.69 182.44,-125.08 215.45,-138.45"/>
<polygon fill="#9a32cd" stroke="#9a32cd" points="85.83,-82.14 75.25,-81.63 83.2,-88.63 85.83,-82.14"/>
<text text-anchor="middle" x="156.5" y="-144" font-family="Helvetica,sans-Serif" font-size="10.00"> p_movesMade</text>
<text text-anchor="middle" x="156.5" y="-133" font-family="Helvetica,sans-Serif" font-size="10.00">p_turnIndex</text>
</g>
<!-- Node5 -->
<g id="node5" class="node">
<title>Node5</title>
<g id="a_node5"><a xlink:href="classtt_1_1Board.html" target="_top" xlink:title="8x8 game board">
<polygon fill="white" stroke="black" points="833,-90.5 833,-109.5 892,-109.5 892,-90.5 833,-90.5"/>
<text text-anchor="middle" x="862.5" y="-97.5" font-family="Helvetica,sans-Serif" font-size="10.00">tt::Board</text>
</a>
</g>
</g>
<!-- Node4&#45;&gt;Node5 -->
<g id="edge14" class="edge">
<title>Node4&#45;&gt;Node5</title>
<path fill="none" stroke="#9a32cd" stroke-dasharray="5,2" d="M74.63,-56.76C108.98,-35.62 176.21,0 239,0 239,0 239,0 654.5,0 730.35,0 749.97,-18.96 815,-58 829.92,-66.96 844.36,-81.13 853.08,-90.49"/>
<polygon fill="#9a32cd" stroke="#9a32cd" points="72.44,-54 65.84,-62.29 76.17,-59.92 72.44,-54"/>
<text text-anchor="middle" x="397.5" y="-3" font-family="Helvetica,sans-Serif" font-size="10.00"> b_turnIndex</text>
</g>
<!-- Node5&#45;&gt;Node2 -->
<g id="edge4" class="edge">
<title>Node5&#45;&gt;Node2</title>
<path fill="none" stroke="#9a32cd" stroke-dasharray="5,2" d="M828.92,-86.78C801.68,-76.51 761.51,-63.17 725,-58 561.13,-34.8 509.8,-22.02 353,-75 311.66,-88.97 270.64,-121.79 251.76,-138.24"/>
<polygon fill="#9a32cd" stroke="#9a32cd" points="827.75,-90.08 838.34,-90.4 830.27,-83.55 827.75,-90.08"/>
<text text-anchor="middle" x="512" y="-49" font-family="Helvetica,sans-Serif" font-size="10.00"> p_board</text>
</g>
<!-- Node6 -->
<g id="node6" class="node">
<title>Node6</title>
<g id="a_node6"><a target="_parent" xlink:href="https://en.cppreference.com/w/cpp/container/array.html" xlink:title=" ">
<polygon fill="white" stroke="black" points="628,-117.5 628,-136.5 679,-136.5 679,-117.5 628,-117.5"/>
<text text-anchor="middle" x="653.5" y="-124.5" font-family="Helvetica,sans-Serif" font-size="10.00">BoardT</text>
</a>
</g>
</g>
<!-- Node6&#45;&gt;Node5 -->
<g id="edge5" class="edge">
<title>Node6&#45;&gt;Node5</title>
<path fill="none" stroke="#8b1a1a" d="M689.2,-122.47C729.46,-117.22 795.09,-108.66 832.66,-103.76"/>
<polygon fill="#8b1a1a" stroke="#8b1a1a" points="688.52,-119.03 679.06,-123.8 689.43,-125.97 688.52,-119.03"/>
</g>
<!-- Node7 -->
<g id="node7" class="node">
<title>Node7</title>
<g id="a_node7"><a xlink:title=" ">
<polygon fill="white" stroke="#bfbfbf" points="383,-84.5 383,-103.5 412,-103.5 412,-84.5 383,-84.5"/>
<text text-anchor="middle" x="397.5" y="-91.5" font-family="Helvetica,sans-Serif" font-size="10.00">T</text>
</a>
</g>
</g>
<!-- Node7&#45;&gt;Node6 -->
<g id="edge6" class="edge">
<title>Node7&#45;&gt;Node6</title>
<path fill="none" stroke="#9a32cd" stroke-dasharray="5,2" d="M422.24,-97.08C470.33,-103.33 578.85,-117.43 627.76,-123.79"/>
<polygon fill="#9a32cd" stroke="#9a32cd" points="422.52,-93.59 412.16,-95.77 421.62,-100.53 422.52,-93.59"/>
<text text-anchor="middle" x="512" y="-119" font-family="Helvetica,sans-Serif" font-size="10.00"> elements</text>
</g>
<!-- Node8 -->
<g id="node8" class="node">
<title>Node8</title>
<g id="a_node8"><a target="_parent" xlink:href="https://en.cppreference.com/w/cpp/utility/functional/function.html" xlink:title=" ">
<polygon fill="white" stroke="black" points="582,-68 582,-98 725,-98 725,-68 582,-68"/>
<text text-anchor="start" x="590" y="-86" font-family="Helvetica,sans-Serif" font-size="10.00">std::function&lt; PieceTypes</text>
<text text-anchor="middle" x="653.5" y="-75" font-family="Helvetica,sans-Serif" font-size="10.00">RetT(PieceTypesArgT)&gt;</text>
</a>
</g>
</g>
<!-- Node8&#45;&gt;Node5 -->
<g id="edge7" class="edge">
<title>Node8&#45;&gt;Node5</title>
<path fill="none" stroke="#9a32cd" stroke-dasharray="5,2" d="M735.33,-86.66C760.86,-88.18 789.14,-90.25 815,-93 820.68,-93.6 826.73,-94.4 832.53,-95.24"/>
<polygon fill="#9a32cd" stroke="#9a32cd" points="735.51,-83.16 725.32,-86.08 735.1,-90.15 735.51,-83.16"/>
<text text-anchor="middle" x="779" y="-96" font-family="Helvetica,sans-Serif" font-size="10.00"> b_pieceGetter</text>
</g>
<!-- Node9 -->
<g id="node9" class="node">
<title>Node9</title>
<g id="a_node9"><a target="_parent" xlink:href="https://en.cppreference.com/w/cpp/container/list.html" xlink:title=" ">
<polygon fill="white" stroke="black" points="594,-156 594,-186 713,-186 713,-156 594,-156"/>
<text text-anchor="start" x="602" y="-174" font-family="Helvetica,sans-Serif" font-size="10.00">std::list&lt; const Piece</text>
<text text-anchor="middle" x="653.5" y="-163" font-family="Helvetica,sans-Serif" font-size="10.00">::Turn * &gt;</text>
</a>
</g>
</g>
<!-- Node9&#45;&gt;Node5 -->
<g id="edge8" class="edge">
<title>Node9&#45;&gt;Node5</title>
<path fill="none" stroke="#9a32cd" stroke-dasharray="5,2" d="M723.08,-154.81C751.93,-147.11 785.58,-136.96 815,-125 825.53,-120.72 836.77,-114.72 845.56,-109.67"/>
<polygon fill="#9a32cd" stroke="#9a32cd" points="721.87,-151.51 713.08,-157.43 723.64,-158.28 721.87,-151.51"/>
<text text-anchor="middle" x="779" y="-151" font-family="Helvetica,sans-Serif" font-size="10.00"> b_history</text>
</g>
<!-- Node10&#45;&gt;Node9 -->
<g id="edge9" class="edge">
<title>Node10&#45;&gt;Node9</title>
<path fill="none" stroke="#9a32cd" stroke-dasharray="5,2" d="M449.22,-171C490.89,-171 549.94,-171 593.67,-171"/>
<polygon fill="#9a32cd" stroke="#9a32cd" points="449.03,-167.5 439.03,-171 449.03,-174.5 449.03,-167.5"/>
<text text-anchor="middle" x="512" y="-174" font-family="Helvetica,sans-Serif" font-size="10.00"> elements</text>
</g>
<!-- Node11&#45;&gt;Node5 -->
<g id="edge12" class="edge">
<title>Node11&#45;&gt;Node5</title>
<path fill="none" stroke="#9a32cd" stroke-dasharray="5,2" d="M574.37,-220.66C640.27,-222.42 744.95,-215.5 815,-163 834.36,-148.49 849.28,-123.7 856.57,-109.94"/>
<polygon fill="#9a32cd" stroke="#9a32cd" points="574.25,-217.15 564.13,-220.3 574.01,-224.15 574.25,-217.15"/>
<text text-anchor="middle" x="653.5" y="-223" font-family="Helvetica,sans-Serif" font-size="10.00"> b_capturedPieces</text>
</g>
</g>
</svg>
