<?xml version="1.0" encoding="UTF-8" standalone="no"?>
<!DOCTYPE svg PUBLIC "-//W3C//DTD SVG 1.1//EN"
 "http://www.w3.org/Graphics/SVG/1.1/DTD/svg11.dtd">
<!-- Generated by graphviz version 2.43.0 (0)
 -->
<!-- Title: tt::Piece::Turn Pages: 1 -->
<svg width="1032pt" height="267pt"
 viewBox="0.00 0.00 1032.00 266.50" xmlns="http://www.w3.org/2000/svg" xmlns:xlink="http://www.w3.org/1999/xlink">
<g id="graph0" class="graph" transform="scale(1 1) rotate(0) translate(4 262.5)">
<title>tt::Piece::Turn</title>
<polygon fill="white" stroke="transparent" points="-4,4 -4,-262.5 1028,-262.5 1028,4 -4,4"/>
<!-- Node1 -->
<g id="node1" class="node">
<title>Node1</title>
<g id="a_node1"><a xlink:title="Generic Piece Turn on Board.">
<polygon fill="#bfbfbf" stroke="black" points="173,-192 173,-211 256,-211 256,-192 173,-192"/>
<text text-anchor="middle" x="214.5" y="-199" font-family="Helvetica,sans-Serif" font-size="10.00">tt::Piece::Turn</text>
</a>
</g>
</g>
<!-- Node9 -->
<g id="node9" class="node">
<title>Node9</title>
<g id="a_node9"><a target="_parent" xlink:href="https://en.cppreference.com/w/cpp/container/list.html" xlink:title=" ">
<polygon fill="white" stroke="black" points="353,-90.5 353,-120.5 472,-120.5 472,-90.5 353,-90.5"/>
<text text-anchor="start" x="361" y="-108.5" font-family="Helvetica,sans-Serif" font-size="10.00">std::list&lt; const Piece</text>
<text text-anchor="middle" x="412.5" y="-97.5" font-family="Helvetica,sans-Serif" font-size="10.00">::Turn * &gt;</text>
</a>
</g>
</g>
<!-- Node1&#45;&gt;Node9 -->
<g id="edge9" class="edge">
<title>Node1&#45;&gt;Node9</title>
<path fill="none" stroke="#9a32cd" stroke-dasharray="5,2" d="M239.68,-186.53C264.53,-171.5 304.62,-148.23 341,-131.5 349.41,-127.63 358.59,-123.91 367.44,-120.55"/>
<polygon fill="#9a32cd" stroke="#9a32cd" points="237.66,-183.66 230.94,-191.85 241.3,-189.64 237.66,-183.66"/>
<text text-anchor="middle" x="298.5" y="-168.5" font-family="Helvetica,sans-Serif" font-size="10.00"> elements</text>
</g>
<!-- Node2 -->
<g id="node2" class="node">
<title>Node2</title>
<g id="a_node2"><a xlink:href="classtt_1_1Piece.html" target="_top" xlink:title="Generic board memeber piece API.">
<polygon fill="white" stroke="black" points="762.5,-142 762.5,-161 818.5,-161 818.5,-142 762.5,-142"/>
<text text-anchor="middle" x="790.5" y="-149" font-family="Helvetica,sans-Serif" font-size="10.00">tt::Piece</text>
</a>
</g>
</g>
<!-- Node2&#45;&gt;Node1 -->
<g id="edge1" class="edge">
<title>Node2&#45;&gt;Node1</title>
<path fill="none" stroke="#9a32cd" stroke-dasharray="5,2" d="M752.62,-160.56C728.43,-166.13 696.02,-172.86 667,-176.5 516.27,-195.41 335.45,-200.01 256.14,-201.14"/>
<polygon fill="#9a32cd" stroke="#9a32cd" points="753.51,-163.95 762.45,-158.26 751.92,-157.13 753.51,-163.95"/>
<text text-anchor="middle" x="538" y="-204.5" font-family="Helvetica,sans-Serif" font-size="10.00"> t_capture</text>
<text text-anchor="middle" x="538" y="-193.5" font-family="Helvetica,sans-Serif" font-size="10.00">t_piece</text>
</g>
<!-- Node10 -->
<g id="node10" class="node">
<title>Node10</title>
<g id="a_node10"><a target="_parent" xlink:href="https://en.cppreference.com/w/cpp/container/forward_list.html" xlink:title=" ">
<polygon fill="white" stroke="black" points="920,-93.5 920,-123.5 1024,-123.5 1024,-93.5 920,-93.5"/>
<text text-anchor="start" x="928" y="-111.5" font-family="Helvetica,sans-Serif" font-size="10.00">std::forward_list&lt;</text>
<text text-anchor="middle" x="972" y="-100.5" font-family="Helvetica,sans-Serif" font-size="10.00"> const Piece * &gt;</text>
</a>
</g>
</g>
<!-- Node2&#45;&gt;Node10 -->
<g id="edge11" class="edge">
<title>Node2&#45;&gt;Node10</title>
<path fill="none" stroke="#9a32cd" stroke-dasharray="5,2" d="M828.74,-142.58C855.15,-136.25 890.9,-127.69 919.95,-120.73"/>
<polygon fill="#9a32cd" stroke="#9a32cd" points="827.67,-139.24 818.76,-144.97 829.3,-146.04 827.67,-139.24"/>
<text text-anchor="middle" x="877.5" y="-138.5" font-family="Helvetica,sans-Serif" font-size="10.00"> elements</text>
</g>
<!-- Node3 -->
<g id="node3" class="node">
<title>Node3</title>
<g id="a_node3"><a xlink:href="classtt_1_1Piece_1_1Position.html" target="_top" xlink:title="Piece position at the Board.">
<polygon fill="white" stroke="black" points="0,-215 0,-234 101,-234 101,-215 0,-215"/>
<text text-anchor="middle" x="50.5" y="-222" font-family="Helvetica,sans-Serif" font-size="10.00">tt::Piece::Position</text>
</a>
</g>
</g>
<!-- Node3&#45;&gt;Node1 -->
<g id="edge13" class="edge">
<title>Node3&#45;&gt;Node1</title>
<path fill="none" stroke="#9a32cd" stroke-dasharray="5,2" d="M108.38,-213.19C111.97,-212.59 115.53,-212.02 119,-211.5 136.62,-208.88 156.2,-206.69 172.94,-205.03"/>
<polygon fill="#9a32cd" stroke="#9a32cd" points="107.5,-209.79 98.25,-214.96 108.71,-216.69 107.5,-209.79"/>
<text text-anchor="middle" x="137" y="-225.5" font-family="Helvetica,sans-Serif" font-size="10.00"> t_from</text>
<text text-anchor="middle" x="137" y="-214.5" font-family="Helvetica,sans-Serif" font-size="10.00">t_to</text>
</g>
<!-- Node3&#45;&gt;Node2 -->
<g id="edge2" class="edge">
<title>Node3&#45;&gt;Node2</title>
<path fill="none" stroke="#9a32cd" stroke-dasharray="5,2" d="M104.8,-235.92C136.27,-241.7 176.97,-247.5 213.5,-247.5 213.5,-247.5 213.5,-247.5 630.5,-247.5 696.93,-247.5 759.4,-185.34 781.27,-161.06"/>
<polygon fill="#9a32cd" stroke="#9a32cd" points="105.4,-232.47 94.92,-234.05 104.1,-239.35 105.4,-232.47"/>
<text text-anchor="middle" x="412.5" y="-250.5" font-family="Helvetica,sans-Serif" font-size="10.00"> p_position</text>
</g>
<!-- Node4 -->
<g id="node4" class="node">
<title>Node4</title>
<g id="a_node4"><a target="_parent" xlink:href="https://en.cppreference.com/w/cpp/types/size_t.html" xlink:title=" ">
<polygon fill="white" stroke="black" points="379.5,-141 379.5,-160 445.5,-160 445.5,-141 379.5,-141"/>
<text text-anchor="middle" x="412.5" y="-148" font-family="Helvetica,sans-Serif" font-size="10.00">std::size_t</text>
</a>
</g>
</g>
<!-- Node4&#45;&gt;Node2 -->
<g id="edge3" class="edge">
<title>Node4&#45;&gt;Node2</title>
<path fill="none" stroke="#9a32cd" stroke-dasharray="5,2" d="M455.95,-150.61C533.79,-150.82 697.31,-151.25 762.16,-151.43"/>
<polygon fill="#9a32cd" stroke="#9a32cd" points="455.57,-147.11 445.56,-150.59 455.55,-154.11 455.57,-147.11"/>
<text text-anchor="middle" x="629.5" y="-164.5" font-family="Helvetica,sans-Serif" font-size="10.00"> p_movesMade</text>
<text text-anchor="middle" x="629.5" y="-153.5" font-family="Helvetica,sans-Serif" font-size="10.00">p_turnIndex</text>
</g>
<!-- Node5 -->
<g id="node5" class="node">
<title>Node5</title>
<g id="a_node5"><a xlink:href="classtt_1_1Board.html" target="_top" xlink:title="8x8 game board">
<polygon fill="white" stroke="black" points="600,-82 600,-101 659,-101 659,-82 600,-82"/>
<text text-anchor="middle" x="629.5" y="-89" font-family="Helvetica,sans-Serif" font-size="10.00">tt::Board</text>
</a>
</g>
</g>
<!-- Node4&#45;&gt;Node5 -->
<g id="edge12" class="edge">
<title>Node4&#45;&gt;Node5</title>
<path fill="none" stroke="#9a32cd" stroke-dasharray="5,2" d="M455.48,-138.98C498.07,-127.29 562.86,-109.51 599.88,-99.35"/>
<polygon fill="#9a32cd" stroke="#9a32cd" points="454.4,-135.65 445.69,-141.67 456.26,-142.4 454.4,-135.65"/>
<text text-anchor="middle" x="538" y="-127.5" font-family="Helvetica,sans-Serif" font-size="10.00"> b_turnIndex</text>
</g>
<!-- Node5&#45;&gt;Node2 -->
<g id="edge4" class="edge">
<title>Node5&#45;&gt;Node2</title>
<path fill="none" stroke="#9a32cd" stroke-dasharray="5,2" d="M667.61,-104.42C685.87,-110.87 708.16,-118.91 728,-126.5 740.81,-131.4 755,-137.15 766.52,-141.89"/>
<polygon fill="#9a32cd" stroke="#9a32cd" points="668.52,-101.03 657.93,-101 666.2,-107.63 668.52,-101.03"/>
<text text-anchor="middle" x="706.5" y="-129.5" font-family="Helvetica,sans-Serif" font-size="10.00"> p_board</text>
</g>
<!-- Node6 -->
<g id="node6" class="node">
<title>Node6</title>
<g id="a_node6"><a target="_parent" xlink:href="https://en.cppreference.com/w/cpp/container/array.html" xlink:title=" ">
<polygon fill="white" stroke="black" points="387,-50 387,-69 438,-69 438,-50 387,-50"/>
<text text-anchor="middle" x="412.5" y="-57" font-family="Helvetica,sans-Serif" font-size="10.00">BoardT</text>
</a>
</g>
</g>
<!-- Node6&#45;&gt;Node5 -->
<g id="edge5" class="edge">
<title>Node6&#45;&gt;Node5</title>
<path fill="none" stroke="#8b1a1a" d="M448.22,-64.67C490.31,-70.93 560.47,-81.37 599.7,-87.21"/>
<polygon fill="#8b1a1a" stroke="#8b1a1a" points="448.57,-61.18 438.16,-63.17 447.54,-68.1 448.57,-61.18"/>
</g>
<!-- Node7 -->
<g id="node7" class="node">
<title>Node7</title>
<g id="a_node7"><a xlink:title=" ">
<polygon fill="white" stroke="#bfbfbf" points="200,-50 200,-69 229,-69 229,-50 200,-50"/>
<text text-anchor="middle" x="214.5" y="-57" font-family="Helvetica,sans-Serif" font-size="10.00">T</text>
</a>
</g>
</g>
<!-- Node7&#45;&gt;Node6 -->
<g id="edge6" class="edge">
<title>Node7&#45;&gt;Node6</title>
<path fill="none" stroke="#9a32cd" stroke-dasharray="5,2" d="M239.74,-59.5C277.23,-59.5 348.87,-59.5 386.7,-59.5"/>
<polygon fill="#9a32cd" stroke="#9a32cd" points="239.28,-56 229.28,-59.5 239.28,-63 239.28,-56"/>
<text text-anchor="middle" x="298.5" y="-62.5" font-family="Helvetica,sans-Serif" font-size="10.00"> elements</text>
</g>
<!-- Node8 -->
<g id="node8" class="node">
<title>Node8</title>
<g id="a_node8"><a target="_parent" xlink:href="https://en.cppreference.com/w/cpp/utility/functional/function.html" xlink:title=" ">
<polygon fill="white" stroke="black" points="341,-0.5 341,-30.5 484,-30.5 484,-0.5 341,-0.5"/>
<text text-anchor="start" x="349" y="-18.5" font-family="Helvetica,sans-Serif" font-size="10.00">std::function&lt; PieceTypes</text>
<text text-anchor="middle" x="412.5" y="-7.5" font-family="Helvetica,sans-Serif" font-size="10.00">RetT(PieceTypesArgT)&gt;</text>
</a>
</g>
</g>
<!-- Node8&#45;&gt;Node5 -->
<g id="edge7" class="edge">
<title>Node8&#45;&gt;Node5</title>
<path fill="none" stroke="#9a32cd" stroke-dasharray="5,2" d="M493.92,-32.31C520,-39 548.71,-47.71 574,-58.5 588.85,-64.84 604.49,-74.68 615.19,-81.97"/>
<polygon fill="#9a32cd" stroke="#9a32cd" points="494.62,-28.87 484.07,-29.84 492.92,-35.66 494.62,-28.87"/>
<text text-anchor="middle" x="538" y="-61.5" font-family="Helvetica,sans-Serif" font-size="10.00"> b_pieceGetter</text>
</g>
<!-- Node9&#45;&gt;Node5 -->
<g id="edge8" class="edge">
<title>Node9&#45;&gt;Node5</title>
<path fill="none" stroke="#9a32cd" stroke-dasharray="5,2" d="M482.63,-94.41C489.17,-93.64 495.7,-92.99 502,-92.5 535.5,-89.92 574.14,-90.07 599.82,-90.6"/>
<polygon fill="#9a32cd" stroke="#9a32cd" points="481.89,-90.98 472.4,-95.69 482.76,-97.92 481.89,-90.98"/>
<text text-anchor="middle" x="538" y="-95.5" font-family="Helvetica,sans-Serif" font-size="10.00"> b_history</text>
</g>
<!-- Node10&#45;&gt;Node5 -->
<g id="edge10" class="edge">
<title>Node10&#45;&gt;Node5</title>
<path fill="none" stroke="#9a32cd" stroke-dasharray="5,2" d="M909.72,-105.44C835.71,-101.75 714.29,-95.68 659.24,-92.93"/>
<polygon fill="#9a32cd" stroke="#9a32cd" points="909.68,-108.94 919.84,-105.95 910.03,-101.95 909.68,-108.94"/>
<text text-anchor="middle" x="790.5" y="-104.5" font-family="Helvetica,sans-Serif" font-size="10.00"> b_capturedPieces</text>
</g>
</g>
</svg>
