<?xml version="1.0" encoding="UTF-8" standalone="no"?>
<!DOCTYPE svg PUBLIC "-//W3C//DTD SVG 1.1//EN"
 "http://www.w3.org/Graphics/SVG/1.1/DTD/svg11.dtd">
<!-- Generated by graphviz version 2.43.0 (0)
 -->
<!-- Title: tt::ex::piece_in_wrong_color Pages: 1 -->
<svg width="132pt" height="263pt"
 viewBox="0.00 0.00 132.00 263.00" xmlns="http://www.w3.org/2000/svg" xmlns:xlink="http://www.w3.org/1999/xlink">
<g id="graph0" class="graph" transform="scale(1 1) rotate(0) translate(4 259)">
<title>tt::ex::piece_in_wrong_color</title>
<polygon fill="white" stroke="transparent" points="-4,4 -4,-259 128,-259 128,4 -4,4"/>
<!-- Node1 -->
<g id="node1" class="node">
<title>Node1</title>
<g id="a_node1"><a xlink:title="Thrown when trying to Board::makeMove() on Piece that has wrong Piece::Color.">
<polygon fill="#bfbfbf" stroke="black" points="0,-0.5 0,-30.5 124,-30.5 124,-0.5 0,-0.5"/>
<text text-anchor="start" x="8" y="-18.5" font-family="Helvetica,sans-Serif" font-size="10.00">tt::ex::piece_in_wrong</text>
<text text-anchor="middle" x="62" y="-7.5" font-family="Helvetica,sans-Serif" font-size="10.00">_color</text>
</a>
</g>
</g>
<!-- Node2 -->
<g id="node2" class="node">
<title>Node2</title>
<g id="a_node2"><a xlink:href="classtt_1_1ex_1_1illegal__move.html" target="_top" xlink:title="Base class for Board::makeMove() function errors.">
<polygon fill="white" stroke="black" points="6.5,-67.5 6.5,-86.5 117.5,-86.5 117.5,-67.5 6.5,-67.5"/>
<text text-anchor="middle" x="62" y="-74.5" font-family="Helvetica,sans-Serif" font-size="10.00">tt::ex::illegal_move</text>
</a>
</g>
</g>
<!-- Node2&#45;&gt;Node1 -->
<g id="edge1" class="edge">
<title>Node2&#45;&gt;Node1</title>
<path fill="none" stroke="midnightblue" d="M62,-57.23C62,-48.59 62,-38.5 62,-30.52"/>
<polygon fill="midnightblue" stroke="midnightblue" points="58.5,-57.48 62,-67.48 65.5,-57.48 58.5,-57.48"/>
</g>
<!-- Node3 -->
<g id="node3" class="node">
<title>Node3</title>
<g id="a_node3"><a xlink:href="classtt_1_1ex_1_1tartan.html" target="_top" xlink:title="Base class for all tartan exceptions.">
<polygon fill="white" stroke="black" points="23.5,-123.5 23.5,-142.5 100.5,-142.5 100.5,-123.5 23.5,-123.5"/>
<text text-anchor="middle" x="62" y="-130.5" font-family="Helvetica,sans-Serif" font-size="10.00">tt::ex::tartan</text>
</a>
</g>
</g>
<!-- Node3&#45;&gt;Node2 -->
<g id="edge2" class="edge">
<title>Node3&#45;&gt;Node2</title>
<path fill="none" stroke="midnightblue" d="M62,-112.8C62,-103.91 62,-93.78 62,-86.75"/>
<polygon fill="midnightblue" stroke="midnightblue" points="58.5,-113.08 62,-123.08 65.5,-113.08 58.5,-113.08"/>
</g>
<!-- Node4 -->
<g id="node4" class="node">
<title>Node4</title>
<g id="a_node4"><a target="_parent" xlink:href="https://en.cppreference.com/w/cpp/error/logic_error.html" xlink:title=" ">
<polygon fill="white" stroke="black" points="17.5,-179.5 17.5,-198.5 106.5,-198.5 106.5,-179.5 17.5,-179.5"/>
<text text-anchor="middle" x="62" y="-186.5" font-family="Helvetica,sans-Serif" font-size="10.00">std::logic_error</text>
</a>
</g>
</g>
<!-- Node4&#45;&gt;Node3 -->
<g id="edge3" class="edge">
<title>Node4&#45;&gt;Node3</title>
<path fill="none" stroke="midnightblue" d="M62,-168.8C62,-159.91 62,-149.78 62,-142.75"/>
<polygon fill="midnightblue" stroke="midnightblue" points="58.5,-169.08 62,-179.08 65.5,-169.08 58.5,-169.08"/>
</g>
<!-- Node5 -->
<g id="node5" class="node">
<title>Node5</title>
<g id="a_node5"><a target="_parent" xlink:href="https://en.cppreference.com/w/cpp/error/exception.html" xlink:title=" ">
<polygon fill="white" stroke="black" points="19,-235.5 19,-254.5 105,-254.5 105,-235.5 19,-235.5"/>
<text text-anchor="middle" x="62" y="-242.5" font-family="Helvetica,sans-Serif" font-size="10.00">std::exception</text>
</a>
</g>
</g>
<!-- Node5&#45;&gt;Node4 -->
<g id="edge4" class="edge">
<title>Node5&#45;&gt;Node4</title>
<path fill="none" stroke="midnightblue" d="M62,-224.8C62,-215.91 62,-205.78 62,-198.75"/>
<polygon fill="midnightblue" stroke="midnightblue" points="58.5,-225.08 62,-235.08 65.5,-225.08 58.5,-225.08"/>
</g>
</g>
</svg>
