<?xml version="1.0" encoding="UTF-8" standalone="no"?>
<!DOCTYPE svg PUBLIC "-//W3C//DTD SVG 1.1//EN"
 "http://www.w3.org/Graphics/SVG/1.1/DTD/svg11.dtd">
<!-- Generated by graphviz version 2.43.0 (0)
 -->
<!-- Title: tt::ex::tartan Pages: 1 -->
<!--zoomable 394 -->
<svg id="main" version="1.1" xmlns="http://www.w3.org/2000/svg" xmlns:xlink="http://www.w3.org/1999/xlink" xml:space="preserve" onload="init(evt)">
<style type="text/css"><![CDATA[
.edge:hover path { stroke: red; }
.edge:hover polygon { stroke: red; fill: red; }
]]></style>
<script type="text/javascript"><![CDATA[
var edges = document.getElementsByTagName('g');
if (edges && edges.length) {
  for (var i=0;i<edges.length;i++) {
    if (edges[i].id.substr(0,4)=='edge') {
      edges[i].setAttribute('class','edge');
    }
  }
}
]]></script>
        <defs>
                <circle id="rim" cx="0" cy="0" r="7"/>
                <circle id="rim2" cx="0" cy="0" r="3.5"/>
                <g id="zoomPlus">
                        <use xlink:href="#rim" fill="#404040">
                                <set attributeName="fill" to="#808080" begin="zoomplus.mouseover" end="zoomplus.mouseout"/>
                        </use>
                        <path d="M-4,0h8M0,-4v8" fill="none" stroke="white" stroke-width="1.5" pointer-events="none"/>
                </g>
                <g id="zoomMin">
                        <use xlink:href="#rim" fill="#404040">
                                <set attributeName="fill" to="#808080" begin="zoomminus.mouseover" end="zoomminus.mouseout"/>
                        </use>
                        <path d="M-4,0h8" fill="none" stroke="white" stroke-width="1.5" pointer-events="none"/>
                </g>
                <g id="dirArrow">
                        <path fill="none" stroke="white" stroke-width="1.5" d="M0,-3.0v7 M-2.5,-0.5L0,-3.0L2.5,-0.5"/>
                </g>
               <g id="resetDef">
                       <use xlink:href="#rim2" fill="#404040">
                               <set attributeName="fill" to="#808080" begin="reset.mouseover" end="reset.mouseout"/>
                       </use>
               </g>
        </defs>

<script type="text/javascript">
var viewWidth = 854;
var viewHeight = 394;
var sectionId = 'dynsection-0';
</script>
<script xlink:href="svgpan.js"/>
<svg id="graph" class="graph">
<g id="viewport">
<title>tt::ex::tartan</title>
<polygon fill="white" stroke="transparent" points="-4,4 -4,-390 850,-390 850,4 -4,4"/>
<!-- Node1 -->
<g id="node1" class="node">
<title>Node1</title>
<g id="a_node1"><a xlink:title="Base class for all tartan exceptions.">
<polygon fill="#bfbfbf" stroke="black" points="247,-189.5 247,-208.5 324,-208.5 324,-189.5 247,-189.5"/>
<text text-anchor="middle" x="285.5" y="-196.5" font-family="Helvetica,sans-Serif" font-size="10.00">tt::ex::tartan</text>
</a>
</g>
</g>
<!-- Node4 -->
<g id="node4" class="node">
<title>Node4</title>
<g id="a_node4"><a xlink:href="classtt_1_1chess_1_1ex_1_1no__king.html" target="_top" xlink:title="Thrown when tt::chess::Chessboard has no King object of certain tt::Piece::Color.">
<polygon fill="white" stroke="black" points="362.5,-290.5 362.5,-309.5 482.5,-309.5 482.5,-290.5 362.5,-290.5"/>
<text text-anchor="middle" x="422.5" y="-297.5" font-family="Helvetica,sans-Serif" font-size="10.00">tt::chess::ex::no_king</text>
</a>
</g>
</g>
<!-- Node1&#45;&gt;Node4 -->
<g id="edge3" class="edge">
<title>Node1&#45;&gt;Node4</title>
<path fill="none" stroke="midnightblue" d="M298.27,-217.1C311.27,-235.7 333.84,-264.24 360,-281 366.02,-284.86 372.88,-287.98 379.77,-290.48"/>
<polygon fill="midnightblue" stroke="midnightblue" points="301.04,-214.95 292.54,-208.63 295.25,-218.88 301.04,-214.95"/>
</g>
<!-- Node5 -->
<g id="node5" class="node">
<title>Node5</title>
<g id="a_node5"><a xlink:href="classtt_1_1ex_1_1bad__piece.html" target="_top" xlink:title="Base class for exceptions about pieces.">
<polygon fill="white" stroke="black" points="373.5,-252.5 373.5,-271.5 471.5,-271.5 471.5,-252.5 373.5,-252.5"/>
<text text-anchor="middle" x="422.5" y="-259.5" font-family="Helvetica,sans-Serif" font-size="10.00">tt::ex::bad_piece</text>
</a>
</g>
</g>
<!-- Node1&#45;&gt;Node5 -->
<g id="edge4" class="edge">
<title>Node1&#45;&gt;Node5</title>
<path fill="none" stroke="midnightblue" d="M312.79,-213.33C326.68,-220.71 344.1,-229.68 360,-237 371.83,-242.45 385.2,-247.96 396.44,-252.41"/>
<polygon fill="midnightblue" stroke="midnightblue" points="314.27,-210.15 303.8,-208.51 310.96,-216.32 314.27,-210.15"/>
</g>
<!-- Node11 -->
<g id="node11" class="node">
<title>Node11</title>
<g id="a_node11"><a xlink:href="classtt_1_1ex_1_1bad__piece__type.html" target="_top" xlink:title="Thrown when tt::Board::getPieceType() returns std::type_info that is not mentioned in its argument.">
<polygon fill="white" stroke="black" points="360,-208.5 360,-227.5 485,-227.5 485,-208.5 360,-208.5"/>
<text text-anchor="middle" x="422.5" y="-215.5" font-family="Helvetica,sans-Serif" font-size="10.00">tt::ex::bad_piece_type</text>
</a>
</g>
</g>
<!-- Node1&#45;&gt;Node11 -->
<g id="edge10" class="edge">
<title>Node1&#45;&gt;Node11</title>
<path fill="none" stroke="midnightblue" d="M334.01,-205.69C342.35,-206.86 351.13,-208.1 359.78,-209.31"/>
<polygon fill="midnightblue" stroke="midnightblue" points="334.5,-202.22 324.11,-204.29 333.52,-209.15 334.5,-202.22"/>
</g>
<!-- Node12 -->
<g id="node12" class="node">
<title>Node12</title>
<g id="a_node12"><a xlink:href="classtt_1_1ex_1_1bad__set.html" target="_top" xlink:title="Exception when Board::set() functions fail.">
<polygon fill="white" stroke="black" points="379.5,-170.5 379.5,-189.5 465.5,-189.5 465.5,-170.5 379.5,-170.5"/>
<text text-anchor="middle" x="422.5" y="-177.5" font-family="Helvetica,sans-Serif" font-size="10.00">tt::ex::bad_set</text>
</a>
</g>
</g>
<!-- Node1&#45;&gt;Node12 -->
<g id="edge11" class="edge">
<title>Node1&#45;&gt;Node12</title>
<path fill="none" stroke="midnightblue" d="M334.06,-192.31C348.82,-190.23 364.98,-187.95 379.35,-185.93"/>
<polygon fill="midnightblue" stroke="midnightblue" points="333.52,-188.85 324.11,-193.71 334.5,-195.78 333.52,-188.85"/>
</g>
<!-- Node13 -->
<g id="node13" class="node">
<title>Node13</title>
<g id="a_node13"><a xlink:href="classtt_1_1ex_1_1illegal__move.html" target="_top" xlink:title="Base class for Board::makeMove() function errors.">
<polygon fill="white" stroke="black" points="367,-126.5 367,-145.5 478,-145.5 478,-126.5 367,-126.5"/>
<text text-anchor="middle" x="422.5" y="-133.5" font-family="Helvetica,sans-Serif" font-size="10.00">tt::ex::illegal_move</text>
</a>
</g>
</g>
<!-- Node1&#45;&gt;Node13 -->
<g id="edge12" class="edge">
<title>Node1&#45;&gt;Node13</title>
<path fill="none" stroke="midnightblue" d="M312.79,-184.67C326.68,-177.29 344.1,-168.32 360,-161 371.83,-155.55 385.2,-150.04 396.44,-145.59"/>
<polygon fill="midnightblue" stroke="midnightblue" points="310.96,-181.68 303.8,-189.49 314.27,-187.85 310.96,-181.68"/>
</g>
<!-- Node20 -->
<g id="node20" class="node">
<title>Node20</title>
<g id="a_node20"><a xlink:href="classtt_1_1ex_1_1illegal__turn.html" target="_top" xlink:title="Thrown when constructed Piece::Turn object is malformed.">
<polygon fill="white" stroke="black" points="371,-88.5 371,-107.5 474,-107.5 474,-88.5 371,-88.5"/>
<text text-anchor="middle" x="422.5" y="-95.5" font-family="Helvetica,sans-Serif" font-size="10.00">tt::ex::illegal_turn</text>
</a>
</g>
</g>
<!-- Node1&#45;&gt;Node20 -->
<g id="edge19" class="edge">
<title>Node1&#45;&gt;Node20</title>
<path fill="none" stroke="midnightblue" d="M298.27,-180.9C311.27,-162.3 333.84,-133.76 360,-117 366.02,-113.14 372.88,-110.02 379.77,-107.52"/>
<polygon fill="midnightblue" stroke="midnightblue" points="295.25,-179.12 292.54,-189.37 301.04,-183.05 295.25,-179.12"/>
</g>
<!-- Node2 -->
<g id="node2" class="node">
<title>Node2</title>
<g id="a_node2"><a target="_parent" xlink:href="https://en.cppreference.com/w/cpp/error/logic_error.html" xlink:title=" ">
<polygon fill="white" stroke="black" points="122,-189.5 122,-208.5 211,-208.5 211,-189.5 122,-189.5"/>
<text text-anchor="middle" x="166.5" y="-196.5" font-family="Helvetica,sans-Serif" font-size="10.00">std::logic_error</text>
</a>
</g>
</g>
<!-- Node2&#45;&gt;Node1 -->
<g id="edge1" class="edge">
<title>Node2&#45;&gt;Node1</title>
<path fill="none" stroke="midnightblue" d="M221.09,-199C229.73,-199 238.5,-199 246.66,-199"/>
<polygon fill="midnightblue" stroke="midnightblue" points="221.07,-195.5 211.07,-199 221.07,-202.5 221.07,-195.5"/>
</g>
<!-- Node3 -->
<g id="node3" class="node">
<title>Node3</title>
<g id="a_node3"><a target="_parent" xlink:href="https://en.cppreference.com/w/cpp/error/exception.html" xlink:title=" ">
<polygon fill="white" stroke="black" points="0,-189.5 0,-208.5 86,-208.5 86,-189.5 0,-189.5"/>
<text text-anchor="middle" x="43" y="-196.5" font-family="Helvetica,sans-Serif" font-size="10.00">std::exception</text>
</a>
</g>
</g>
<!-- Node3&#45;&gt;Node2 -->
<g id="edge2" class="edge">
<title>Node3&#45;&gt;Node2</title>
<path fill="none" stroke="midnightblue" d="M96.34,-199C104.82,-199 113.52,-199 121.77,-199"/>
<polygon fill="midnightblue" stroke="midnightblue" points="96.15,-195.5 86.15,-199 96.15,-202.5 96.15,-195.5"/>
</g>
<!-- Node6 -->
<g id="node6" class="node">
<title>Node6</title>
<g id="a_node6"><a xlink:href="classtt_1_1chess_1_1ex_1_1duplicate__king.html" target="_top" xlink:title="Thrown when inserted King is already provided.">
<polygon fill="white" stroke="black" points="521,-366.5 521,-385.5 674,-385.5 674,-366.5 521,-366.5"/>
<text text-anchor="middle" x="597.5" y="-373.5" font-family="Helvetica,sans-Serif" font-size="10.00">tt::chess::ex::duplicate_king</text>
</a>
</g>
</g>
<!-- Node5&#45;&gt;Node6 -->
<g id="edge5" class="edge">
<title>Node5&#45;&gt;Node6</title>
<path fill="none" stroke="midnightblue" d="M478.72,-276.35C480.93,-277.76 483.04,-279.3 485,-281 513.25,-305.48 492.11,-333.28 521,-357 525.7,-360.86 531.08,-363.95 536.76,-366.42"/>
<polygon fill="midnightblue" stroke="midnightblue" points="480.21,-273.18 469.74,-271.58 476.93,-279.36 480.21,-273.18"/>
</g>
<!-- Node7 -->
<g id="node7" class="node">
<title>Node7</title>
<g id="a_node7"><a xlink:href="classtt_1_1ex_1_1bad__piece__spec.html" target="_top" xlink:title="Thrown when Board::piece() can not recognize Piece specification.">
<polygon fill="white" stroke="black" points="535,-328.5 535,-347.5 660,-347.5 660,-328.5 535,-328.5"/>
<text text-anchor="middle" x="597.5" y="-335.5" font-family="Helvetica,sans-Serif" font-size="10.00">tt::ex::bad_piece_spec</text>
</a>
</g>
</g>
<!-- Node5&#45;&gt;Node7 -->
<g id="edge6" class="edge">
<title>Node5&#45;&gt;Node7</title>
<path fill="none" stroke="midnightblue" d="M474.27,-275.34C478,-277.02 481.63,-278.9 485,-281 504.76,-293.28 500.92,-307.25 521,-319 527.65,-322.89 535.08,-325.99 542.62,-328.46"/>
<polygon fill="midnightblue" stroke="midnightblue" points="475.4,-272.02 464.82,-271.54 472.79,-278.52 475.4,-272.02"/>
</g>
<!-- Node8 -->
<g id="node8" class="node">
<title>Node8</title>
<g id="a_node8"><a xlink:href="classtt_1_1ex_1_1foreign__piece.html" target="_top" xlink:title="Thrown when piece does not belong to Board object in which it is being processed.">
<polygon fill="white" stroke="black" points="540.5,-290.5 540.5,-309.5 654.5,-309.5 654.5,-290.5 540.5,-290.5"/>
<text text-anchor="middle" x="597.5" y="-297.5" font-family="Helvetica,sans-Serif" font-size="10.00">tt::ex::foreign_piece</text>
</a>
</g>
</g>
<!-- Node5&#45;&gt;Node8 -->
<g id="edge7" class="edge">
<title>Node5&#45;&gt;Node8</title>
<path fill="none" stroke="midnightblue" d="M477.01,-273.75C501.47,-279.13 530.07,-285.41 553.16,-290.48"/>
<polygon fill="midnightblue" stroke="midnightblue" points="477.67,-270.32 467.16,-271.59 476.17,-277.15 477.67,-270.32"/>
</g>
<!-- Node9 -->
<g id="node9" class="node">
<title>Node9</title>
<g id="a_node9"><a xlink:href="classtt_1_1ex_1_1null__piece.html" target="_top" xlink:title="Thrown when Piece pointer is nullptr when it should not be.">
<polygon fill="white" stroke="black" points="548.5,-252.5 548.5,-271.5 646.5,-271.5 646.5,-252.5 548.5,-252.5"/>
<text text-anchor="middle" x="597.5" y="-259.5" font-family="Helvetica,sans-Serif" font-size="10.00">tt::ex::null_piece</text>
</a>
</g>
</g>
<!-- Node5&#45;&gt;Node9 -->
<g id="edge8" class="edge">
<title>Node5&#45;&gt;Node9</title>
<path fill="none" stroke="midnightblue" d="M481.74,-262C503.36,-262 527.64,-262 548.27,-262"/>
<polygon fill="midnightblue" stroke="midnightblue" points="481.69,-258.5 471.69,-262 481.69,-265.5 481.69,-258.5"/>
</g>
<!-- Node10 -->
<g id="node10" class="node">
<title>Node10</title>
<g id="a_node10"><a xlink:href="classtt_1_1ex_1_1position__is__taken.html" target="_top" xlink:title="Thrown when Piece Position on Board is occupied when it should not to.">
<polygon fill="white" stroke="black" points="547,-203 547,-233 648,-233 648,-203 547,-203"/>
<text text-anchor="start" x="555" y="-221" font-family="Helvetica,sans-Serif" font-size="10.00">tt::ex::position_is</text>
<text text-anchor="middle" x="597.5" y="-210" font-family="Helvetica,sans-Serif" font-size="10.00">_taken</text>
</a>
</g>
</g>
<!-- Node5&#45;&gt;Node10 -->
<g id="edge9" class="edge">
<title>Node5&#45;&gt;Node10</title>
<path fill="none" stroke="midnightblue" d="M470.82,-249.96C494.43,-243.96 522.97,-236.7 546.88,-230.62"/>
<polygon fill="midnightblue" stroke="midnightblue" points="469.87,-246.6 461.04,-252.45 471.59,-253.38 469.87,-246.6"/>
</g>
<!-- Node14 -->
<g id="node14" class="node">
<title>Node14</title>
<g id="a_node14"><a xlink:href="classtt_1_1chess_1_1ex_1_1check.html" target="_top" xlink:title="Thrown when turn cannot be perfomred because of King beeing in check.">
<polygon fill="white" stroke="black" points="542.5,-164.5 542.5,-183.5 652.5,-183.5 652.5,-164.5 542.5,-164.5"/>
<text text-anchor="middle" x="597.5" y="-171.5" font-family="Helvetica,sans-Serif" font-size="10.00">tt::chess::ex::check</text>
</a>
</g>
</g>
<!-- Node13&#45;&gt;Node14 -->
<g id="edge13" class="edge">
<title>Node13&#45;&gt;Node14</title>
<path fill="none" stroke="midnightblue" d="M477.01,-147.75C501.47,-153.13 530.07,-159.41 553.16,-164.48"/>
<polygon fill="midnightblue" stroke="midnightblue" points="477.67,-144.32 467.16,-145.59 476.17,-151.15 477.67,-144.32"/>
</g>
<!-- Node16 -->
<g id="node16" class="node">
<title>Node16</title>
<g id="a_node16"><a xlink:href="classtt_1_1ex_1_1can__not__move.html" target="_top" xlink:title="Thrown when Board::makeMove() is performed on Piece that can not make any moves.">
<polygon fill="white" stroke="black" points="538,-126.5 538,-145.5 657,-145.5 657,-126.5 538,-126.5"/>
<text text-anchor="middle" x="597.5" y="-133.5" font-family="Helvetica,sans-Serif" font-size="10.00">tt::ex::can_not_move</text>
</a>
</g>
</g>
<!-- Node13&#45;&gt;Node16 -->
<g id="edge15" class="edge">
<title>Node13&#45;&gt;Node16</title>
<path fill="none" stroke="midnightblue" d="M488.69,-136C504.86,-136 522.1,-136 537.93,-136"/>
<polygon fill="midnightblue" stroke="midnightblue" points="488.24,-132.5 478.24,-136 488.24,-139.5 488.24,-132.5"/>
</g>
<!-- Node17 -->
<g id="node17" class="node">
<title>Node17</title>
<g id="a_node17"><a xlink:href="classtt_1_1ex_1_1no__such__move.html" target="_top" xlink:title="Thrown when piece moved with Board::makeMove() can not have such move.">
<polygon fill="white" stroke="black" points="537,-88.5 537,-107.5 658,-107.5 658,-88.5 537,-88.5"/>
<text text-anchor="middle" x="597.5" y="-95.5" font-family="Helvetica,sans-Serif" font-size="10.00">tt::ex::no_such_move</text>
</a>
</g>
</g>
<!-- Node13&#45;&gt;Node17 -->
<g id="edge16" class="edge">
<title>Node13&#45;&gt;Node17</title>
<path fill="none" stroke="midnightblue" d="M477.01,-124.25C501.47,-118.87 530.07,-112.59 553.16,-107.52"/>
<polygon fill="midnightblue" stroke="midnightblue" points="476.17,-120.85 467.16,-126.41 477.67,-127.68 476.17,-120.85"/>
</g>
<!-- Node18 -->
<g id="node18" class="node">
<title>Node18</title>
<g id="a_node18"><a xlink:href="classtt_1_1ex_1_1piece__in__wrong__color.html" target="_top" xlink:title="Thrown when trying to Board::makeMove() on Piece that has wrong Piece::Color.">
<polygon fill="white" stroke="black" points="535.5,-39 535.5,-69 659.5,-69 659.5,-39 535.5,-39"/>
<text text-anchor="start" x="543.5" y="-57" font-family="Helvetica,sans-Serif" font-size="10.00">tt::ex::piece_in_wrong</text>
<text text-anchor="middle" x="597.5" y="-46" font-family="Helvetica,sans-Serif" font-size="10.00">_color</text>
</a>
</g>
</g>
<!-- Node13&#45;&gt;Node18 -->
<g id="edge17" class="edge">
<title>Node13&#45;&gt;Node18</title>
<path fill="none" stroke="midnightblue" d="M474.27,-122.66C478,-120.98 481.63,-119.1 485,-117 504.76,-104.72 501.36,-91.48 521,-79 526.94,-75.22 533.52,-71.96 540.23,-69.15"/>
<polygon fill="midnightblue" stroke="midnightblue" points="472.79,-119.48 464.82,-126.46 475.4,-125.98 472.79,-119.48"/>
</g>
<!-- Node19 -->
<g id="node19" class="node">
<title>Node19</title>
<g id="a_node19"><a xlink:href="classtt_1_1ex_1_1tile__is__empty.html" target="_top" xlink:title="Thrown when selected Piece location is empty of the Board.">
<polygon fill="white" stroke="black" points="540.5,-0.5 540.5,-19.5 654.5,-19.5 654.5,-0.5 540.5,-0.5"/>
<text text-anchor="middle" x="597.5" y="-7.5" font-family="Helvetica,sans-Serif" font-size="10.00">tt::ex::tile_is_empty</text>
</a>
</g>
</g>
<!-- Node13&#45;&gt;Node19 -->
<g id="edge18" class="edge">
<title>Node13&#45;&gt;Node19</title>
<path fill="none" stroke="midnightblue" d="M479.53,-121.31C481.46,-120 483.29,-118.56 485,-117 516.18,-88.47 489.08,-56.69 521,-29 526.62,-24.13 533.3,-20.47 540.34,-17.74"/>
<polygon fill="midnightblue" stroke="midnightblue" points="477.56,-118.41 470.56,-126.36 480.99,-124.51 477.56,-118.41"/>
</g>
<!-- Node15 -->
<g id="node15" class="node">
<title>Node15</title>
<g id="a_node15"><a xlink:href="classtt_1_1chess_1_1ex_1_1checkmate.html" target="_top" xlink:title="Thrown when turn cannot be perfomred because of King is under checkmate.">
<polygon fill="white" stroke="black" points="710,-164.5 710,-183.5 846,-183.5 846,-164.5 710,-164.5"/>
<text text-anchor="middle" x="778" y="-171.5" font-family="Helvetica,sans-Serif" font-size="10.00">tt::chess::ex::checkmate</text>
</a>
</g>
</g>
<!-- Node14&#45;&gt;Node15 -->
<g id="edge14" class="edge">
<title>Node14&#45;&gt;Node15</title>
<path fill="none" stroke="midnightblue" d="M662.92,-174C678.18,-174 694.5,-174 709.88,-174"/>
<polygon fill="midnightblue" stroke="midnightblue" points="662.54,-170.5 652.54,-174 662.54,-177.5 662.54,-170.5"/>
</g>
</g>
</svg>
        <g id="navigator" transform="translate(0 0)" fill="#404254">
                <rect fill="#f2f5e9" fill-opacity="0.5" stroke="#606060" stroke-width=".5" x="0" y="0" width="60" height="60"/>
                <use id="zoomplus" xlink:href="#zoomPlus" x="17" y="9" onmousedown="handleZoom(evt,'in')"/>
                <use id="zoomminus" xlink:href="#zoomMin" x="42" y="9" onmousedown="handleZoom(evt,'out')"/>
                <use id="reset" xlink:href="#resetDef" x="30" y="36" onmousedown="handleReset()"/>
                <g id="arrowUp" xlink:href="#dirArrow" transform="translate(30 24)" onmousedown="handlePan(0,-1)">
                  <use xlink:href="#rim" fill="#404040">
                        <set attributeName="fill" to="#808080" begin="arrowUp.mouseover" end="arrowUp.mouseout"/>
                  </use>
                  <path fill="none" stroke="white" stroke-width="1.5" d="M0,-3.0v7 M-2.5,-0.5L0,-3.0L2.5,-0.5"/>
                </g>
                <g id="arrowRight" xlink:href="#dirArrow" transform="rotate(90) translate(36 -43)" onmousedown="handlePan(1,0)">
                  <use xlink:href="#rim" fill="#404040">
                        <set attributeName="fill" to="#808080" begin="arrowRight.mouseover" end="arrowRight.mouseout"/>
                  </use>
                  <path fill="none" stroke="white" stroke-width="1.5" d="M0,-3.0v7 M-2.5,-0.5L0,-3.0L2.5,-0.5"/>
                </g>
                <g id="arrowDown" xlink:href="#dirArrow" transform="rotate(180) translate(-30 -48)" onmousedown="handlePan(0,1)">
                  <use xlink:href="#rim" fill="#404040">
                        <set attributeName="fill" to="#808080" begin="arrowDown.mouseover" end="arrowDown.mouseout"/>
                  </use>
                  <path fill="none" stroke="white" stroke-width="1.5" d="M0,-3.0v7 M-2.5,-0.5L0,-3.0L2.5,-0.5"/>
                </g>
                <g id="arrowLeft" xlink:href="#dirArrow" transform="rotate(270) translate(-36 17)" onmousedown="handlePan(-1,0)">
                  <use xlink:href="#rim" fill="#404040">
                        <set attributeName="fill" to="#808080" begin="arrowLeft.mouseover" end="arrowLeft.mouseout"/>
                  </use>
                  <path fill="none" stroke="white" stroke-width="1.5" d="M0,-3.0v7 M-2.5,-0.5L0,-3.0L2.5,-0.5"/>
                </g>
        </g>
        <svg viewBox="0 0 15 15" width="100%" height="30px" preserveAspectRatio="xMaxYMin meet">
         <g id="arrow_out" transform="scale(0.3 0.3)">
          <a xlink:href="classtt_1_1ex_1_1tartan__inherit__graph_org.svg" target="_base">
           <rect id="button" ry="5" rx="5" y="6" x="6" height="38" width="38"
                fill="#f2f5e9" fill-opacity="0.5" stroke="#606060" stroke-width="1.0"/>
           <path id="arrow"
             d="M 11.500037,31.436501 C 11.940474,20.09759 22.043105,11.32322 32.158766,21.979434 L 37.068811,17.246167 C 37.068811,17.246167 37.088388,32 37.088388,32 L 22.160133,31.978069 C 22.160133,31.978069 26.997745,27.140456 26.997745,27.140456 C 18.528582,18.264221 13.291696,25.230495 11.500037,31.436501 z"
             style="fill:#404040;"/>
          </a>
         </g>
        </svg>
</svg>
