<?xml version="1.0" encoding="UTF-8" standalone="no"?>
<!DOCTYPE svg PUBLIC "-//W3C//DTD SVG 1.1//EN"
 "http://www.w3.org/Graphics/SVG/1.1/DTD/svg11.dtd">
<!-- Generated by graphviz version 2.43.0 (0)
 -->
<!-- Title: tt::chess::Pawn::Turn Pages: 1 -->
<!--zoomable 289 -->
<svg id="main" version="1.1" xmlns="http://www.w3.org/2000/svg" xmlns:xlink="http://www.w3.org/1999/xlink" xml:space="preserve" onload="init(evt)">
<style type="text/css"><![CDATA[
.edge:hover path { stroke: red; }
.edge:hover polygon { stroke: red; fill: red; }
]]></style>
<script type="text/javascript"><![CDATA[
var edges = document.getElementsByTagName('g');
if (edges && edges.length) {
  for (var i=0;i<edges.length;i++) {
    if (edges[i].id.substr(0,4)=='edge') {
      edges[i].setAttribute('class','edge');
    }
  }
}
]]></script>
        <defs>
                <circle id="rim" cx="0" cy="0" r="7"/>
                <circle id="rim2" cx="0" cy="0" r="3.5"/>
                <g id="zoomPlus">
                        <use xlink:href="#rim" fill="#404040">
                                <set attributeName="fill" to="#808080" begin="zoomplus.mouseover" end="zoomplus.mouseout"/>
                        </use>
                        <path d="M-4,0h8M0,-4v8" fill="none" stroke="white" stroke-width="1.5" pointer-events="none"/>
                </g>
                <g id="zoomMin">
                        <use xlink:href="#rim" fill="#404040">
                                <set attributeName="fill" to="#808080" begin="zoomminus.mouseover" end="zoomminus.mouseout"/>
                        </use>
                        <path d="M-4,0h8" fill="none" stroke="white" stroke-width="1.5" pointer-events="none"/>
                </g>
                <g id="dirArrow">
                        <path fill="none" stroke="white" stroke-width="1.5" d="M0,-3.0v7 M-2.5,-0.5L0,-3.0L2.5,-0.5"/>
                </g>
               <g id="resetDef">
                       <use xlink:href="#rim2" fill="#404040">
                               <set attributeName="fill" to="#808080" begin="reset.mouseover" end="reset.mouseout"/>
                       </use>
               </g>
        </defs>

<script type="text/javascript">
var viewWidth = 1032;
var viewHeight = 289;
var sectionId = 'dynsection-1';
</script>
<script xlink:href="svgpan.js"/>
<svg id="graph" class="graph">
<g id="viewport">
<title>tt::chess::Pawn::Turn</title>
<polygon fill="white" stroke="transparent" points="-4,4 -4,-285 1028,-285 1028,4 -4,4"/>
<!-- Node1 -->
<g id="node1" class="node">
<title>Node1</title>
<g id="a_node1"><a xlink:title="Pawn Turn.">
<polygon fill="#bfbfbf" stroke="black" points="354.5,-88.5 354.5,-107.5 470.5,-107.5 470.5,-88.5 354.5,-88.5"/>
<text text-anchor="middle" x="412.5" y="-95.5" font-family="Helvetica,sans-Serif" font-size="10.00">tt::chess::Pawn::Turn</text>
</a>
</g>
</g>
<!-- Node2 -->
<g id="node2" class="node">
<title>Node2</title>
<g id="a_node2"><a xlink:href="classtt_1_1Piece_1_1Turn.html" target="_top" xlink:title="Generic Piece Turn on Board.">
<polygon fill="white" stroke="black" points="173,-176.5 173,-195.5 256,-195.5 256,-176.5 173,-176.5"/>
<text text-anchor="middle" x="214.5" y="-183.5" font-family="Helvetica,sans-Serif" font-size="10.00">tt::Piece::Turn</text>
</a>
</g>
</g>
<!-- Node2&#45;&gt;Node1 -->
<g id="edge1" class="edge">
<title>Node2&#45;&gt;Node1</title>
<path fill="none" stroke="midnightblue" d="M239.49,-170.93C264.19,-155.91 304.16,-132.99 341,-118 350.78,-114.02 361.63,-110.52 371.83,-107.6"/>
<polygon fill="midnightblue" stroke="midnightblue" points="237.49,-168.05 230.81,-176.26 241.16,-174.01 237.49,-168.05"/>
</g>
<!-- Node10 -->
<g id="node10" class="node">
<title>Node10</title>
<g id="a_node10"><a target="_parent" xlink:href="https://en.cppreference.com/w/cpp/container/list.html" xlink:title=" ">
<polygon fill="white" stroke="black" points="353,-127 353,-157 472,-157 472,-127 353,-127"/>
<text text-anchor="start" x="361" y="-145" font-family="Helvetica,sans-Serif" font-size="10.00">std::list&lt; const Piece</text>
<text text-anchor="middle" x="412.5" y="-134" font-family="Helvetica,sans-Serif" font-size="10.00">::Turn * &gt;</text>
</a>
</g>
</g>
<!-- Node2&#45;&gt;Node10 -->
<g id="edge10" class="edge">
<title>Node2&#45;&gt;Node10</title>
<path fill="none" stroke="#9a32cd" stroke-dasharray="5,2" d="M265.95,-174.68C292.45,-168.73 325.08,-161.4 352.72,-155.2"/>
<polygon fill="#9a32cd" stroke="#9a32cd" points="265.1,-171.28 256.11,-176.88 266.64,-178.11 265.1,-171.28"/>
<text text-anchor="middle" x="298.5" y="-174" font-family="Helvetica,sans-Serif" font-size="10.00"> elements</text>
</g>
<!-- Node3 -->
<g id="node3" class="node">
<title>Node3</title>
<g id="a_node3"><a xlink:href="classtt_1_1Piece.html" target="_top" xlink:title="Generic board memeber piece API.">
<polygon fill="white" stroke="black" points="762.5,-164.5 762.5,-183.5 818.5,-183.5 818.5,-164.5 762.5,-164.5"/>
<text text-anchor="middle" x="790.5" y="-171.5" font-family="Helvetica,sans-Serif" font-size="10.00">tt::Piece</text>
</a>
</g>
</g>
<!-- Node3&#45;&gt;Node2 -->
<g id="edge2" class="edge">
<title>Node3&#45;&gt;Node2</title>
<path fill="none" stroke="#9a32cd" stroke-dasharray="5,2" d="M752.39,-186.34C728.35,-193.67 696.19,-202.25 667,-206 523.29,-224.46 485.46,-216.16 341,-205 312.44,-202.79 280.52,-197.93 256.02,-193.67"/>
<polygon fill="#9a32cd" stroke="#9a32cd" points="753.66,-189.61 762.17,-183.29 751.58,-182.93 753.66,-189.61"/>
<text text-anchor="middle" x="538" y="-230" font-family="Helvetica,sans-Serif" font-size="10.00"> t_capture</text>
<text text-anchor="middle" x="538" y="-219" font-family="Helvetica,sans-Serif" font-size="10.00">t_piece</text>
</g>
<!-- Node11 -->
<g id="node11" class="node">
<title>Node11</title>
<g id="a_node11"><a target="_parent" xlink:href="https://en.cppreference.com/w/cpp/container/forward_list.html" xlink:title=" ">
<polygon fill="white" stroke="black" points="920,-116 920,-146 1024,-146 1024,-116 920,-116"/>
<text text-anchor="start" x="928" y="-134" font-family="Helvetica,sans-Serif" font-size="10.00">std::forward_list&lt;</text>
<text text-anchor="middle" x="972" y="-123" font-family="Helvetica,sans-Serif" font-size="10.00"> const Piece * &gt;</text>
</a>
</g>
</g>
<!-- Node3&#45;&gt;Node11 -->
<g id="edge12" class="edge">
<title>Node3&#45;&gt;Node11</title>
<path fill="none" stroke="#9a32cd" stroke-dasharray="5,2" d="M828.74,-165.08C855.15,-158.75 890.9,-150.19 919.95,-143.23"/>
<polygon fill="#9a32cd" stroke="#9a32cd" points="827.67,-161.74 818.76,-167.47 829.3,-168.54 827.67,-161.74"/>
<text text-anchor="middle" x="877.5" y="-161" font-family="Helvetica,sans-Serif" font-size="10.00"> elements</text>
</g>
<!-- Node4 -->
<g id="node4" class="node">
<title>Node4</title>
<g id="a_node4"><a xlink:href="classtt_1_1Piece_1_1Position.html" target="_top" xlink:title="Piece position at the Board.">
<polygon fill="white" stroke="black" points="0,-210.5 0,-229.5 101,-229.5 101,-210.5 0,-210.5"/>
<text text-anchor="middle" x="50.5" y="-217.5" font-family="Helvetica,sans-Serif" font-size="10.00">tt::Piece::Position</text>
</a>
</g>
</g>
<!-- Node4&#45;&gt;Node2 -->
<g id="edge14" class="edge">
<title>Node4&#45;&gt;Node2</title>
<path fill="none" stroke="#9a32cd" stroke-dasharray="5,2" d="M107.1,-208.33C128.73,-203.79 153.05,-198.69 172.98,-194.51"/>
<polygon fill="#9a32cd" stroke="#9a32cd" points="106.12,-204.96 97.06,-210.44 107.56,-211.81 106.12,-204.96"/>
<text text-anchor="middle" x="137" y="-219" font-family="Helvetica,sans-Serif" font-size="10.00"> t_from</text>
<text text-anchor="middle" x="137" y="-208" font-family="Helvetica,sans-Serif" font-size="10.00">t_to</text>
</g>
<!-- Node4&#45;&gt;Node3 -->
<g id="edge3" class="edge">
<title>Node4&#45;&gt;Node3</title>
<path fill="none" stroke="#9a32cd" stroke-dasharray="5,2" d="M78.94,-233.99C110.54,-248.79 164.42,-270 213.5,-270 213.5,-270 213.5,-270 630.5,-270 696.93,-270 759.4,-207.84 781.27,-183.56"/>
<polygon fill="#9a32cd" stroke="#9a32cd" points="80.41,-230.82 69.88,-229.64 77.38,-237.13 80.41,-230.82"/>
<text text-anchor="middle" x="412.5" y="-273" font-family="Helvetica,sans-Serif" font-size="10.00"> p_position</text>
</g>
<!-- Node5 -->
<g id="node5" class="node">
<title>Node5</title>
<g id="a_node5"><a target="_parent" xlink:href="https://en.cppreference.com/w/cpp/types/size_t.html" xlink:title=" ">
<polygon fill="white" stroke="black" points="379.5,-176.5 379.5,-195.5 445.5,-195.5 445.5,-176.5 379.5,-176.5"/>
<text text-anchor="middle" x="412.5" y="-183.5" font-family="Helvetica,sans-Serif" font-size="10.00">std::size_t</text>
</a>
</g>
</g>
<!-- Node5&#45;&gt;Node3 -->
<g id="edge4" class="edge">
<title>Node5&#45;&gt;Node3</title>
<path fill="none" stroke="#9a32cd" stroke-dasharray="5,2" d="M455.95,-184.65C533.79,-182.16 697.31,-176.94 762.16,-174.87"/>
<polygon fill="#9a32cd" stroke="#9a32cd" points="455.44,-181.16 445.56,-184.98 455.66,-188.16 455.44,-181.16"/>
<text text-anchor="middle" x="629.5" y="-194" font-family="Helvetica,sans-Serif" font-size="10.00"> p_movesMade</text>
<text text-anchor="middle" x="629.5" y="-183" font-family="Helvetica,sans-Serif" font-size="10.00">p_turnIndex</text>
</g>
<!-- Node6 -->
<g id="node6" class="node">
<title>Node6</title>
<g id="a_node6"><a xlink:href="classtt_1_1Board.html" target="_top" xlink:title="8x8 game board">
<polygon fill="white" stroke="black" points="600,-105.5 600,-124.5 659,-124.5 659,-105.5 600,-105.5"/>
<text text-anchor="middle" x="629.5" y="-112.5" font-family="Helvetica,sans-Serif" font-size="10.00">tt::Board</text>
</a>
</g>
</g>
<!-- Node5&#45;&gt;Node6 -->
<g id="edge13" class="edge">
<title>Node5&#45;&gt;Node6</title>
<path fill="none" stroke="#9a32cd" stroke-dasharray="5,2" d="M455.69,-178.47C465.38,-175.71 475.37,-171.99 484,-167 493.79,-161.34 492.2,-154.66 502,-149 518.54,-139.44 567.85,-127.79 599.8,-120.9"/>
<polygon fill="#9a32cd" stroke="#9a32cd" points="454.59,-175.14 445.77,-181 456.32,-181.92 454.59,-175.14"/>
<text text-anchor="middle" x="538" y="-152" font-family="Helvetica,sans-Serif" font-size="10.00"> b_turnIndex</text>
</g>
<!-- Node6&#45;&gt;Node3 -->
<g id="edge5" class="edge">
<title>Node6&#45;&gt;Node3</title>
<path fill="none" stroke="#9a32cd" stroke-dasharray="5,2" d="M668.82,-127.86C686.85,-134.04 708.61,-141.68 728,-149 740.94,-153.88 755.26,-159.68 766.83,-164.46"/>
<polygon fill="#9a32cd" stroke="#9a32cd" points="669.82,-124.5 659.22,-124.59 667.56,-131.13 669.82,-124.5"/>
<text text-anchor="middle" x="706.5" y="-152" font-family="Helvetica,sans-Serif" font-size="10.00"> p_board</text>
</g>
<!-- Node7 -->
<g id="node7" class="node">
<title>Node7</title>
<g id="a_node7"><a target="_parent" xlink:href="https://en.cppreference.com/w/cpp/container/array.html" xlink:title=" ">
<polygon fill="white" stroke="black" points="387,-0.5 387,-19.5 438,-19.5 438,-0.5 387,-0.5"/>
<text text-anchor="middle" x="412.5" y="-7.5" font-family="Helvetica,sans-Serif" font-size="10.00">BoardT</text>
</a>
</g>
</g>
<!-- Node7&#45;&gt;Node6 -->
<g id="edge6" class="edge">
<title>Node7&#45;&gt;Node6</title>
<path fill="none" stroke="#8b1a1a" d="M448.04,-18.61C459.6,-21.8 472.47,-25.71 484,-30 525.37,-45.41 536.42,-48.84 574,-72 590.21,-81.99 607.17,-96.03 617.78,-105.31"/>
<polygon fill="#8b1a1a" stroke="#8b1a1a" points="448.85,-15.2 438.28,-15.99 447.03,-21.96 448.85,-15.2"/>
</g>
<!-- Node8 -->
<g id="node8" class="node">
<title>Node8</title>
<g id="a_node8"><a xlink:title=" ">
<polygon fill="white" stroke="#bfbfbf" points="200,-0.5 200,-19.5 229,-19.5 229,-0.5 200,-0.5"/>
<text text-anchor="middle" x="214.5" y="-7.5" font-family="Helvetica,sans-Serif" font-size="10.00">T</text>
</a>
</g>
</g>
<!-- Node8&#45;&gt;Node7 -->
<g id="edge7" class="edge">
<title>Node8&#45;&gt;Node7</title>
<path fill="none" stroke="#9a32cd" stroke-dasharray="5,2" d="M239.74,-10C277.23,-10 348.87,-10 386.7,-10"/>
<polygon fill="#9a32cd" stroke="#9a32cd" points="239.28,-6.5 229.28,-10 239.28,-13.5 239.28,-6.5"/>
<text text-anchor="middle" x="298.5" y="-13" font-family="Helvetica,sans-Serif" font-size="10.00"> elements</text>
</g>
<!-- Node9 -->
<g id="node9" class="node">
<title>Node9</title>
<g id="a_node9"><a target="_parent" xlink:href="https://en.cppreference.com/w/cpp/utility/functional/function.html" xlink:title=" ">
<polygon fill="white" stroke="black" points="341,-39 341,-69 484,-69 484,-39 341,-39"/>
<text text-anchor="start" x="349" y="-57" font-family="Helvetica,sans-Serif" font-size="10.00">std::function&lt; PieceTypes</text>
<text text-anchor="middle" x="412.5" y="-46" font-family="Helvetica,sans-Serif" font-size="10.00">RetT(PieceTypesArgT)&gt;</text>
</a>
</g>
</g>
<!-- Node9&#45;&gt;Node6 -->
<g id="edge8" class="edge">
<title>Node9&#45;&gt;Node6</title>
<path fill="none" stroke="#9a32cd" stroke-dasharray="5,2" d="M485.59,-71.56C513.36,-78.67 545.29,-87.25 574,-96 583.39,-98.86 593.58,-102.32 602.58,-105.49"/>
<polygon fill="#9a32cd" stroke="#9a32cd" points="486.11,-68.09 475.56,-69.01 484.39,-74.87 486.11,-68.09"/>
<text text-anchor="middle" x="538" y="-99" font-family="Helvetica,sans-Serif" font-size="10.00"> b_pieceGetter</text>
</g>
<!-- Node10&#45;&gt;Node6 -->
<g id="edge9" class="edge">
<title>Node10&#45;&gt;Node6</title>
<path fill="none" stroke="#9a32cd" stroke-dasharray="5,2" d="M463.59,-123.91C475.98,-120.22 489.34,-116.89 502,-115 535.34,-110.03 574.18,-111.02 599.94,-112.61"/>
<polygon fill="#9a32cd" stroke="#9a32cd" points="462.4,-120.61 453.9,-126.92 464.48,-127.3 462.4,-120.61"/>
<text text-anchor="middle" x="538" y="-118" font-family="Helvetica,sans-Serif" font-size="10.00"> b_history</text>
</g>
<!-- Node11&#45;&gt;Node6 -->
<g id="edge11" class="edge">
<title>Node11&#45;&gt;Node6</title>
<path fill="none" stroke="#9a32cd" stroke-dasharray="5,2" d="M909.72,-128.12C835.71,-124.64 714.29,-118.94 659.24,-116.35"/>
<polygon fill="#9a32cd" stroke="#9a32cd" points="909.69,-131.62 919.84,-128.6 910.02,-124.63 909.69,-131.62"/>
<text text-anchor="middle" x="790.5" y="-127" font-family="Helvetica,sans-Serif" font-size="10.00"> b_capturedPieces</text>
</g>
</g>
</svg>
        <g id="navigator" transform="translate(0 0)" fill="#404254">
                <rect fill="#f2f5e9" fill-opacity="0.5" stroke="#606060" stroke-width=".5" x="0" y="0" width="60" height="60"/>
                <use id="zoomplus" xlink:href="#zoomPlus" x="17" y="9" onmousedown="handleZoom(evt,'in')"/>
                <use id="zoomminus" xlink:href="#zoomMin" x="42" y="9" onmousedown="handleZoom(evt,'out')"/>
                <use id="reset" xlink:href="#resetDef" x="30" y="36" onmousedown="handleReset()"/>
                <g id="arrowUp" xlink:href="#dirArrow" transform="translate(30 24)" onmousedown="handlePan(0,-1)">
                  <use xlink:href="#rim" fill="#404040">
                        <set attributeName="fill" to="#808080" begin="arrowUp.mouseover" end="arrowUp.mouseout"/>
                  </use>
                  <path fill="none" stroke="white" stroke-width="1.5" d="M0,-3.0v7 M-2.5,-0.5L0,-3.0L2.5,-0.5"/>
                </g>
                <g id="arrowRight" xlink:href="#dirArrow" transform="rotate(90) translate(36 -43)" onmousedown="handlePan(1,0)">
                  <use xlink:href="#rim" fill="#404040">
                        <set attributeName="fill" to="#808080" begin="arrowRight.mouseover" end="arrowRight.mouseout"/>
                  </use>
                  <path fill="none" stroke="white" stroke-width="1.5" d="M0,-3.0v7 M-2.5,-0.5L0,-3.0L2.5,-0.5"/>
                </g>
                <g id="arrowDown" xlink:href="#dirArrow" transform="rotate(180) translate(-30 -48)" onmousedown="handlePan(0,1)">
                  <use xlink:href="#rim" fill="#404040">
                        <set attributeName="fill" to="#808080" begin="arrowDown.mouseover" end="arrowDown.mouseout"/>
                  </use>
                  <path fill="none" stroke="white" stroke-width="1.5" d="M0,-3.0v7 M-2.5,-0.5L0,-3.0L2.5,-0.5"/>
                </g>
                <g id="arrowLeft" xlink:href="#dirArrow" transform="rotate(270) translate(-36 17)" onmousedown="handlePan(-1,0)">
                  <use xlink:href="#rim" fill="#404040">
                        <set attributeName="fill" to="#808080" begin="arrowLeft.mouseover" end="arrowLeft.mouseout"/>
                  </use>
                  <path fill="none" stroke="white" stroke-width="1.5" d="M0,-3.0v7 M-2.5,-0.5L0,-3.0L2.5,-0.5"/>
                </g>
        </g>
        <svg viewBox="0 0 15 15" width="100%" height="30px" preserveAspectRatio="xMaxYMin meet">
         <g id="arrow_out" transform="scale(0.3 0.3)">
          <a xlink:href="classtt_1_1chess_1_1Pawn_1_1Turn__coll__graph_org.svg" target="_base">
           <rect id="button" ry="5" rx="5" y="6" x="6" height="38" width="38"
                fill="#f2f5e9" fill-opacity="0.5" stroke="#606060" stroke-width="1.0"/>
           <path id="arrow"
             d="M 11.500037,31.436501 C 11.940474,20.09759 22.043105,11.32322 32.158766,21.979434 L 37.068811,17.246167 C 37.068811,17.246167 37.088388,32 37.088388,32 L 22.160133,31.978069 C 22.160133,31.978069 26.997745,27.140456 26.997745,27.140456 C 18.528582,18.264221 13.291696,25.230495 11.500037,31.436501 z"
             style="fill:#404040;"/>
          </a>
         </g>
        </svg>
</svg>
