<?xml version="1.0" encoding="UTF-8" standalone="no"?>
<!DOCTYPE svg PUBLIC "-//W3C//DTD SVG 1.1//EN"
 "http://www.w3.org/Graphics/SVG/1.1/DTD/svg11.dtd">
<!-- Generated by graphviz version 2.43.0 (0)
 -->
<!-- Title: tt::ex::bad_piece Pages: 1 -->
<svg width="655pt" height="192pt"
 viewBox="0.00 0.00 655.00 191.50" xmlns="http://www.w3.org/2000/svg" xmlns:xlink="http://www.w3.org/1999/xlink">
<g id="graph0" class="graph" transform="scale(1 1) rotate(0) translate(4 187.5)">
<title>tt::ex::bad_piece</title>
<polygon fill="white" stroke="transparent" points="-4,4 -4,-187.5 651,-187.5 651,4 -4,4"/>
<!-- Node1 -->
<g id="node1" class="node">
<title>Node1</title>
<g id="a_node1"><a xlink:title="Base class for exceptions about pieces.">
<polygon fill="#bfbfbf" stroke="black" points="360,-88 360,-107 458,-107 458,-88 360,-88"/>
<text text-anchor="middle" x="409" y="-95" font-family="Helvetica,sans-Serif" font-size="10.00">tt::ex::bad_piece</text>
</a>
</g>
</g>
<!-- Node5 -->
<g id="node5" class="node">
<title>Node5</title>
<g id="a_node5"><a xlink:href="classtt_1_1chess_1_1ex_1_1duplicate__king.html" target="_top" xlink:title="Thrown when inserted King is already provided.">
<polygon fill="white" stroke="black" points="494,-164 494,-183 647,-183 647,-164 494,-164"/>
<text text-anchor="middle" x="570.5" y="-171" font-family="Helvetica,sans-Serif" font-size="10.00">tt::chess::ex::duplicate_king</text>
</a>
</g>
</g>
<!-- Node1&#45;&gt;Node5 -->
<g id="edge4" class="edge">
<title>Node1&#45;&gt;Node5</title>
<path fill="none" stroke="midnightblue" d="M429.36,-113.55C445.68,-126.33 470.12,-143.8 494,-154.5 502.39,-158.26 511.65,-161.36 520.72,-163.89"/>
<polygon fill="midnightblue" stroke="midnightblue" points="431.18,-110.52 421.19,-107 426.81,-115.99 431.18,-110.52"/>
</g>
<!-- Node6 -->
<g id="node6" class="node">
<title>Node6</title>
<g id="a_node6"><a xlink:href="classtt_1_1ex_1_1bad__piece__spec.html" target="_top" xlink:title="Thrown when Board::piece() can not recognize Piece specification.">
<polygon fill="white" stroke="black" points="508,-126 508,-145 633,-145 633,-126 508,-126"/>
<text text-anchor="middle" x="570.5" y="-133" font-family="Helvetica,sans-Serif" font-size="10.00">tt::ex::bad_piece_spec</text>
</a>
</g>
</g>
<!-- Node1&#45;&gt;Node6 -->
<g id="edge5" class="edge">
<title>Node1&#45;&gt;Node6</title>
<path fill="none" stroke="midnightblue" d="M460.23,-109.47C482.59,-114.79 508.54,-120.98 529.54,-125.98"/>
<polygon fill="midnightblue" stroke="midnightblue" points="460.79,-106 450.25,-107.09 459.17,-112.81 460.79,-106"/>
</g>
<!-- Node7 -->
<g id="node7" class="node">
<title>Node7</title>
<g id="a_node7"><a xlink:href="classtt_1_1ex_1_1foreign__piece.html" target="_top" xlink:title="Thrown when piece does not belong to Board object in which it is being processed.">
<polygon fill="white" stroke="black" points="513.5,-88 513.5,-107 627.5,-107 627.5,-88 513.5,-88"/>
<text text-anchor="middle" x="570.5" y="-95" font-family="Helvetica,sans-Serif" font-size="10.00">tt::ex::foreign_piece</text>
</a>
</g>
</g>
<!-- Node1&#45;&gt;Node7 -->
<g id="edge6" class="edge">
<title>Node1&#45;&gt;Node7</title>
<path fill="none" stroke="midnightblue" d="M468.68,-97.5C483.24,-97.5 498.81,-97.5 513.25,-97.5"/>
<polygon fill="midnightblue" stroke="midnightblue" points="468.29,-94 458.29,-97.5 468.29,-101 468.29,-94"/>
</g>
<!-- Node8 -->
<g id="node8" class="node">
<title>Node8</title>
<g id="a_node8"><a xlink:href="classtt_1_1ex_1_1null__piece.html" target="_top" xlink:title="Thrown when Piece pointer is nullptr when it should not be.">
<polygon fill="white" stroke="black" points="521.5,-50 521.5,-69 619.5,-69 619.5,-50 521.5,-50"/>
<text text-anchor="middle" x="570.5" y="-57" font-family="Helvetica,sans-Serif" font-size="10.00">tt::ex::null_piece</text>
</a>
</g>
</g>
<!-- Node1&#45;&gt;Node8 -->
<g id="edge7" class="edge">
<title>Node1&#45;&gt;Node8</title>
<path fill="none" stroke="midnightblue" d="M460.23,-85.53C482.59,-80.21 508.54,-74.02 529.54,-69.02"/>
<polygon fill="midnightblue" stroke="midnightblue" points="459.17,-82.19 450.25,-87.91 460.79,-89 459.17,-82.19"/>
</g>
<!-- Node9 -->
<g id="node9" class="node">
<title>Node9</title>
<g id="a_node9"><a xlink:href="classtt_1_1ex_1_1position__is__taken.html" target="_top" xlink:title="Thrown when Piece Position on Board is occupied when it should not to.">
<polygon fill="white" stroke="black" points="520,-0.5 520,-30.5 621,-30.5 621,-0.5 520,-0.5"/>
<text text-anchor="start" x="528" y="-18.5" font-family="Helvetica,sans-Serif" font-size="10.00">tt::ex::position_is</text>
<text text-anchor="middle" x="570.5" y="-7.5" font-family="Helvetica,sans-Serif" font-size="10.00">_taken</text>
</a>
</g>
</g>
<!-- Node1&#45;&gt;Node9 -->
<g id="edge8" class="edge">
<title>Node1&#45;&gt;Node9</title>
<path fill="none" stroke="midnightblue" d="M430.14,-81.48C446.58,-69.01 470.79,-51.94 494,-40.5 502.17,-36.47 511.15,-32.86 519.97,-29.71"/>
<polygon fill="midnightblue" stroke="midnightblue" points="427.64,-78.99 421.87,-87.88 431.92,-84.53 427.64,-78.99"/>
</g>
<!-- Node2 -->
<g id="node2" class="node">
<title>Node2</title>
<g id="a_node2"><a xlink:href="classtt_1_1ex_1_1tartan.html" target="_top" xlink:title="Base class for all tartan exceptions.">
<polygon fill="white" stroke="black" points="247,-88 247,-107 324,-107 324,-88 247,-88"/>
<text text-anchor="middle" x="285.5" y="-95" font-family="Helvetica,sans-Serif" font-size="10.00">tt::ex::tartan</text>
</a>
</g>
</g>
<!-- Node2&#45;&gt;Node1 -->
<g id="edge1" class="edge">
<title>Node2&#45;&gt;Node1</title>
<path fill="none" stroke="midnightblue" d="M334.33,-97.5C342.75,-97.5 351.51,-97.5 359.94,-97.5"/>
<polygon fill="midnightblue" stroke="midnightblue" points="334.28,-94 324.28,-97.5 334.28,-101 334.28,-94"/>
</g>
<!-- Node3 -->
<g id="node3" class="node">
<title>Node3</title>
<g id="a_node3"><a target="_parent" xlink:href="https://en.cppreference.com/w/cpp/error/logic_error.html" xlink:title=" ">
<polygon fill="white" stroke="black" points="122,-88 122,-107 211,-107 211,-88 122,-88"/>
<text text-anchor="middle" x="166.5" y="-95" font-family="Helvetica,sans-Serif" font-size="10.00">std::logic_error</text>
</a>
</g>
</g>
<!-- Node3&#45;&gt;Node2 -->
<g id="edge2" class="edge">
<title>Node3&#45;&gt;Node2</title>
<path fill="none" stroke="midnightblue" d="M221.09,-97.5C229.73,-97.5 238.5,-97.5 246.66,-97.5"/>
<polygon fill="midnightblue" stroke="midnightblue" points="221.07,-94 211.07,-97.5 221.07,-101 221.07,-94"/>
</g>
<!-- Node4 -->
<g id="node4" class="node">
<title>Node4</title>
<g id="a_node4"><a target="_parent" xlink:href="https://en.cppreference.com/w/cpp/error/exception.html" xlink:title=" ">
<polygon fill="white" stroke="black" points="0,-88 0,-107 86,-107 86,-88 0,-88"/>
<text text-anchor="middle" x="43" y="-95" font-family="Helvetica,sans-Serif" font-size="10.00">std::exception</text>
</a>
</g>
</g>
<!-- Node4&#45;&gt;Node3 -->
<g id="edge3" class="edge">
<title>Node4&#45;&gt;Node3</title>
<path fill="none" stroke="midnightblue" d="M96.34,-97.5C104.82,-97.5 113.52,-97.5 121.77,-97.5"/>
<polygon fill="midnightblue" stroke="midnightblue" points="96.15,-94 86.15,-97.5 96.15,-101 96.15,-94"/>
</g>
</g>
</svg>
