<?xml version="1.0" encoding="UTF-8" standalone="no"?>
<!DOCTYPE svg PUBLIC "-//W3C//DTD SVG 1.1//EN"
 "http://www.w3.org/Graphics/SVG/1.1/DTD/svg11.dtd">
<!-- Generated by graphviz version 2.43.0 (0)
 -->
<!-- Title: tt::chess::Bishop Pages: 1 -->
<svg width="908pt" height="263pt"
 viewBox="0.00 0.00 908.00 262.50" xmlns="http://www.w3.org/2000/svg" xmlns:xlink="http://www.w3.org/1999/xlink">
<g id="graph0" class="graph" transform="scale(1 1) rotate(0) translate(4 258.5)">
<title>tt::chess::Bishop</title>
<!-- Node1 -->
<g id="Node000001" class="node">
<title>Node1</title>
<g id="a_Node000001"><a xlink:title="Bishop chess Piece.">
<polygon fill="#999999" stroke="#666666" points="450,-217.5 353,-217.5 353,-198.5 450,-198.5 450,-217.5"/>
<text text-anchor="middle" x="401.5" y="-205.5" font-family="Helvetica,sans-Serif" font-size="10.00">tt::chess::Bishop</text>
</a>
</g>
</g>
<!-- Node2 -->
<g id="Node000002" class="node">
<title>Node2</title>
<g id="a_Node000002"><a xlink:href="classtt_1_1Piece.html" target="_top" xlink:title="Generic board memeber API.">
<polygon fill="white" stroke="#666666" points="268,-163.5 212,-163.5 212,-144.5 268,-144.5 268,-163.5"/>
<text text-anchor="middle" x="240" y="-151.5" font-family="Helvetica,sans-Serif" font-size="10.00">tt::Piece</text>
</a>
</g>
</g>
<!-- Node2&#45;&gt;Node1 -->
<g id="edge1_Node000001_Node000002" class="edge">
<title>Node2&#45;&gt;Node1</title>
<g id="a_edge1_Node000001_Node000002"><a xlink:title=" ">
<path fill="none" stroke="#63b8ff" d="M277.75,-166.44C306.5,-176.18 345.91,-189.52 372.23,-198.43"/>
<polygon fill="#63b8ff" stroke="#63b8ff" points="278.65,-163.05 268.06,-163.16 276.41,-169.68 278.65,-163.05"/>
</a>
</g>
</g>
<!-- Node7 -->
<g id="Node000007" class="node">
<title>Node7</title>
<g id="a_Node000007"><a target="_parent" xlink:href="https://en.cppreference.com/w/cpp/container/forward_list.html" xlink:title=" ">
<polygon fill="white" stroke="#666666" points="572,-109 468,-109 468,-79 572,-79 572,-109"/>
<text text-anchor="start" x="476" y="-97" font-family="Helvetica,sans-Serif" font-size="10.00">std::forward_list&lt;</text>
<text text-anchor="middle" x="520" y="-86" font-family="Helvetica,sans-Serif" font-size="10.00"> const Piece * &gt;</text>
</a>
</g>
</g>
<!-- Node2&#45;&gt;Node7 -->
<g id="edge7_Node000007_Node000002" class="edge">
<title>Node2&#45;&gt;Node7</title>
<g id="a_edge7_Node000007_Node000002"><a xlink:title=" ">
<path fill="none" stroke="#9a32cd" stroke-dasharray="5,2" d="M253.38,-135.91C261.4,-125.79 272.79,-114.03 286,-108 344.06,-81.5 418.88,-82.31 467.85,-86.85"/>
<polygon fill="#9a32cd" stroke="#9a32cd" points="250.38,-134.07 247.24,-144.19 256.01,-138.24 250.38,-134.07"/>
</a>
</g>
<text text-anchor="middle" x="310.5" y="-111" font-family="Helvetica,sans-Serif" font-size="10.00" fill="grey"> elements</text>
</g>
<!-- Node9 -->
<g id="Node000009" class="node">
<title>Node9</title>
<g id="a_Node000009"><a xlink:href="classtt_1_1Piece_1_1Turn.html" target="_top" xlink:title="Generic Piece Turn on Board.">
<polygon fill="white" stroke="#666666" points="443,-254.5 360,-254.5 360,-235.5 443,-235.5 443,-254.5"/>
<text text-anchor="middle" x="401.5" y="-242.5" font-family="Helvetica,sans-Serif" font-size="10.00">tt::Piece::Turn</text>
</a>
</g>
</g>
<!-- Node2&#45;&gt;Node9 -->
<g id="edge11_Node000009_Node000002" class="edge">
<title>Node2&#45;&gt;Node9</title>
<g id="a_edge11_Node000009_Node000002"><a xlink:title=" ">
<path fill="none" stroke="#9a32cd" stroke-dasharray="5,2" d="M261.4,-169.68C268.94,-175.15 277.67,-181.14 286,-186 306.78,-198.13 315.31,-195.18 335,-209 344.26,-215.5 343.5,-220.86 353,-227 358.04,-230.26 363.75,-233.05 369.42,-235.4"/>
<polygon fill="#9a32cd" stroke="#9a32cd" points="263.32,-166.74 253.21,-163.59 259.14,-172.36 263.32,-166.74"/>
</a>
</g>
<text text-anchor="middle" x="310.5" y="-223" font-family="Helvetica,sans-Serif" font-size="10.00" fill="grey"> t_capture</text>
<text text-anchor="middle" x="310.5" y="-212" font-family="Helvetica,sans-Serif" font-size="10.00" fill="grey">t_piece</text>
</g>
<!-- Node3 -->
<g id="Node000003" class="node">
<title>Node3</title>
<g id="a_Node000003"><a xlink:href="classtt_1_1Piece_1_1Position.html" target="_top" xlink:title="Piece position at the Board.">
<polygon fill="white" stroke="#666666" points="101,-219.5 0,-219.5 0,-200.5 101,-200.5 101,-219.5"/>
<text text-anchor="middle" x="50.5" y="-207.5" font-family="Helvetica,sans-Serif" font-size="10.00">tt::Piece::Position</text>
</a>
</g>
</g>
<!-- Node3&#45;&gt;Node2 -->
<g id="edge2_Node000002_Node000003" class="edge">
<title>Node3&#45;&gt;Node2</title>
<g id="a_edge2_Node000002_Node000003"><a xlink:title=" ">
<path fill="none" stroke="#9a32cd" stroke-dasharray="5,2" d="M93.5,-197.46C129.64,-186.66 180.71,-171.41 211.75,-162.14"/>
<polygon fill="#9a32cd" stroke="#9a32cd" points="92.31,-194.16 83.73,-200.37 94.32,-200.87 92.31,-194.16"/>
</a>
</g>
<text text-anchor="middle" x="156.5" y="-191" font-family="Helvetica,sans-Serif" font-size="10.00" fill="grey"> p_position</text>
</g>
<!-- Node3&#45;&gt;Node9 -->
<g id="edge10_Node000009_Node000003" class="edge">
<title>Node3&#45;&gt;Node9</title>
<g id="a_edge10_Node000009_Node000003"><a xlink:title=" ">
<path fill="none" stroke="#9a32cd" stroke-dasharray="5,2" d="M111.27,-215.99C182.26,-223.11 298.77,-234.8 360,-240.94"/>
<polygon fill="#9a32cd" stroke="#9a32cd" points="111.43,-212.49 101.13,-214.98 110.73,-219.46 111.43,-212.49"/>
</a>
</g>
<text text-anchor="middle" x="240" y="-245" font-family="Helvetica,sans-Serif" font-size="10.00" fill="grey"> t_from</text>
<text text-anchor="middle" x="240" y="-234" font-family="Helvetica,sans-Serif" font-size="10.00" fill="grey">t_to</text>
</g>
<!-- Node4 -->
<g id="Node000004" class="node">
<title>Node4</title>
<g id="a_Node000004"><a xlink:href="classtt_1_1Board.html" target="_top" xlink:title="8x8 game board">
<polygon fill="white" stroke="#666666" points="900,-122.5 841,-122.5 841,-103.5 900,-103.5 900,-122.5"/>
<text text-anchor="middle" x="870.5" y="-110.5" font-family="Helvetica,sans-Serif" font-size="10.00">tt::Board</text>
</a>
</g>
</g>
<!-- Node4&#45;&gt;Node2 -->
<g id="edge3_Node000002_Node000004" class="edge">
<title>Node4&#45;&gt;Node2</title>
<g id="a_edge3_Node000002_Node000004"><a xlink:title=" ">
<path fill="none" stroke="#9a32cd" stroke-dasharray="5,2" d="M830.33,-118.25C827.85,-118.52 825.39,-118.77 823,-119 609.61,-139.16 351.04,-149.92 268.03,-153.03"/>
<polygon fill="#9a32cd" stroke="#9a32cd" points="830.99,-121.69 840.51,-117.05 830.17,-114.74 830.99,-121.69"/>
</a>
</g>
<text text-anchor="middle" x="520" y="-146" font-family="Helvetica,sans-Serif" font-size="10.00" fill="grey"> p_board</text>
</g>
<!-- Node5 -->
<g id="Node000005" class="node">
<title>Node5</title>
<g id="a_Node000005"><a target="_parent" xlink:href="https://en.cppreference.com/w/cpp/container/array.html" xlink:title=" ">
<polygon fill="white" stroke="#666666" points="687,-180.5 636,-180.5 636,-161.5 687,-161.5 687,-180.5"/>
<text text-anchor="middle" x="661.5" y="-168.5" font-family="Helvetica,sans-Serif" font-size="10.00">BoardT</text>
</a>
</g>
</g>
<!-- Node5&#45;&gt;Node4 -->
<g id="edge4_Node000004_Node000005" class="edge">
<title>Node5&#45;&gt;Node4</title>
<g id="a_edge4_Node000004_Node000005"><a xlink:title=" ">
<path fill="none" stroke="#8b1a1a" d="M697.3,-170.56C730.69,-169.06 781.97,-163.86 823,-147 836.88,-141.3 850.45,-130.61 859.32,-122.73"/>
<polygon fill="#8b1a1a" stroke="#8b1a1a" points="696.98,-167.07 687.12,-170.93 697.24,-174.07 696.98,-167.07"/>
</a>
</g>
</g>
<!-- Node6 -->
<g id="Node000006" class="node">
<title>Node6</title>
<g id="a_Node000006"><a xlink:title=" ">
<polygon fill="white" stroke="#bfbfbf" points="416,-180.5 387,-180.5 387,-161.5 416,-161.5 416,-180.5"/>
<text text-anchor="middle" x="401.5" y="-168.5" font-family="Helvetica,sans-Serif" font-size="10.00">T</text>
</a>
</g>
</g>
<!-- Node6&#45;&gt;Node5 -->
<g id="edge5_Node000005_Node000006" class="edge">
<title>Node6&#45;&gt;Node5</title>
<g id="a_edge5_Node000005_Node000006"><a xlink:title=" ">
<path fill="none" stroke="#9a32cd" stroke-dasharray="5,2" d="M426.21,-171C474.95,-171 585.99,-171 635.67,-171"/>
<polygon fill="#9a32cd" stroke="#9a32cd" points="426.01,-167.5 416.01,-171 426.01,-174.5 426.01,-167.5"/>
</a>
</g>
<text text-anchor="middle" x="520" y="-174" font-family="Helvetica,sans-Serif" font-size="10.00" fill="grey"> elements</text>
</g>
<!-- Node7&#45;&gt;Node4 -->
<g id="edge6_Node000004_Node000007" class="edge">
<title>Node7&#45;&gt;Node4</title>
<g id="a_edge6_Node000004_Node000007"><a xlink:title=" ">
<path fill="none" stroke="#9a32cd" stroke-dasharray="5,2" d="M582.42,-97.35C658.37,-101.49 784.49,-108.37 840.81,-111.44"/>
<polygon fill="#9a32cd" stroke="#9a32cd" points="582.22,-93.83 572.05,-96.78 581.84,-100.82 582.22,-93.83"/>
</a>
</g>
<text text-anchor="middle" x="661.5" y="-108" font-family="Helvetica,sans-Serif" font-size="10.00" fill="grey"> b_capturedPieces</text>
</g>
<!-- Node8 -->
<g id="Node000008" class="node">
<title>Node8</title>
<g id="a_Node000008"><a target="_parent" xlink:href="https://en.cppreference.com/w/cpp/container/list.html" xlink:title=" ">
<polygon fill="white" stroke="#666666" points="721,-244 602,-244 602,-214 721,-214 721,-244"/>
<text text-anchor="start" x="610" y="-232" font-family="Helvetica,sans-Serif" font-size="10.00">std::list&lt; const Piece</text>
<text text-anchor="middle" x="661.5" y="-221" font-family="Helvetica,sans-Serif" font-size="10.00">::Turn * &gt;</text>
</a>
</g>
</g>
<!-- Node8&#45;&gt;Node4 -->
<g id="edge8_Node000004_Node000008" class="edge">
<title>Node8&#45;&gt;Node4</title>
<g id="a_edge8_Node000004_Node000008"><a xlink:title=" ">
<path fill="none" stroke="#9a32cd" stroke-dasharray="5,2" d="M730.95,-212.04C760.97,-202.5 795.54,-188.51 823,-169 840.92,-156.26 855.96,-134.97 863.76,-122.64"/>
<polygon fill="#9a32cd" stroke="#9a32cd" points="729.91,-208.7 721.38,-214.98 731.96,-215.39 729.91,-208.7"/>
</a>
</g>
<text text-anchor="middle" x="787" y="-207" font-family="Helvetica,sans-Serif" font-size="10.00" fill="grey"> b_history</text>
</g>
<!-- Node9&#45;&gt;Node8 -->
<g id="edge9_Node000008_Node000009" class="edge">
<title>Node9&#45;&gt;Node8</title>
<g id="a_edge9_Node000008_Node000009"><a xlink:title=" ">
<path fill="none" stroke="#9a32cd" stroke-dasharray="5,2" d="M453.27,-241.85C496,-239.2 557.13,-235.41 601.93,-232.63"/>
<polygon fill="#9a32cd" stroke="#9a32cd" points="452.86,-238.37 443.1,-242.48 453.29,-245.36 452.86,-238.37"/>
</a>
</g>
<text text-anchor="middle" x="520" y="-243" font-family="Helvetica,sans-Serif" font-size="10.00" fill="grey"> elements</text>
</g>
<!-- Node10 -->
<g id="Node000010" class="node">
<title>Node10</title>
<g id="a_Node000010"><a target="_parent" xlink:href="https://en.cppreference.com/w/cpp/utility/functional/function.html" xlink:title=" ">
<polygon fill="white" stroke="#bfbfbf" points="733,-58 590,-58 590,-28 733,-28 733,-58"/>
<text text-anchor="start" x="598" y="-46" font-family="Helvetica,sans-Serif" font-size="10.00">std::function&lt; PieceTypes</text>
<text text-anchor="middle" x="661.5" y="-35" font-family="Helvetica,sans-Serif" font-size="10.00">RetT(PieceTypesArgT)&gt;</text>
</a>
</g>
</g>
<!-- Node10&#45;&gt;Node4 -->
<g id="edge12_Node000004_Node000010" class="edge">
<title>Node10&#45;&gt;Node4</title>
<g id="a_edge12_Node000004_Node000010"><a xlink:title=" ">
<path fill="none" stroke="#9a32cd" stroke-dasharray="5,2" d="M743.21,-46.62C769.68,-50.24 798.54,-56.91 823,-69 839.34,-77.08 853.83,-92.86 862.13,-103.17"/>
<polygon fill="#9a32cd" stroke="#9a32cd" points="743.56,-43.14 733.2,-45.38 742.7,-50.09 743.56,-43.14"/>
</a>
</g>
<text text-anchor="middle" x="787" y="-72" font-family="Helvetica,sans-Serif" font-size="10.00" fill="grey"> b_pieceGetter</text>
</g>
<!-- Node11 -->
<g id="Node000011" class="node">
<title>Node11</title>
<g id="a_Node000011"><a target="_parent" xlink:href="https://en.cppreference.com/w/cpp/types/size_t.html" xlink:title=" ">
<polygon fill="white" stroke="#bfbfbf" points="83.5,-63.5 17.5,-63.5 17.5,-44.5 83.5,-44.5 83.5,-63.5"/>
<text text-anchor="middle" x="50.5" y="-51.5" font-family="Helvetica,sans-Serif" font-size="10.00">std::size_t</text>
</a>
</g>
</g>
<!-- Node11&#45;&gt;Node2 -->
<g id="edge14_Node000002_Node000011" class="edge">
<title>Node11&#45;&gt;Node2</title>
<g id="a_edge14_Node000002_Node000011"><a xlink:title=" ">
<path fill="none" stroke="#9a32cd" stroke-dasharray="5,2" d="M78.64,-68.48C117.54,-89.22 188.08,-126.84 221.08,-144.44"/>
<polygon fill="#9a32cd" stroke="#9a32cd" points="79.95,-65.21 69.48,-63.59 76.65,-71.38 79.95,-65.21"/>
</a>
</g>
<text text-anchor="middle" x="156.5" y="-143" font-family="Helvetica,sans-Serif" font-size="10.00" fill="grey"> p_movesMade</text>
<text text-anchor="middle" x="156.5" y="-132" font-family="Helvetica,sans-Serif" font-size="10.00" fill="grey">p_turnIndex</text>
</g>
<!-- Node11&#45;&gt;Node4 -->
<g id="edge13_Node000004_Node000011" class="edge">
<title>Node11&#45;&gt;Node4</title>
<g id="a_edge13_Node000004_Node000011"><a xlink:title=" ">
<path fill="none" stroke="#9a32cd" stroke-dasharray="5,2" d="M80.38,-40.2C116.58,-24.2 180.94,0 239,0 239,0 239,0 662.5,0 673.77,0 817.16,-39.79 823,-44 844.56,-59.54 859.15,-88.39 865.65,-103.38"/>
<polygon fill="#9a32cd" stroke="#9a32cd" points="78.62,-37.16 70.95,-44.47 81.5,-43.54 78.62,-37.16"/>
</a>
</g>
<text text-anchor="middle" x="401.5" y="-3" font-family="Helvetica,sans-Serif" font-size="10.00" fill="grey"> b_turnIndex</text>
</g>
</g>
</svg>
