<?xml version="1.0" encoding="UTF-8" standalone="no"?>
<!DOCTYPE svg PUBLIC "-//W3C//DTD SVG 1.1//EN"
 "http://www.w3.org/Graphics/SVG/1.1/DTD/svg11.dtd">
<!-- Generated by graphviz version 2.43.0 (0)
 -->
<!-- Title: tt::Board Pages: 1 -->
<!--zoomable 193 -->
<svg id="main" version="1.1" xmlns="http://www.w3.org/2000/svg" xmlns:xlink="http://www.w3.org/1999/xlink" xml:space="preserve" onload="init(evt)">
<style type="text/css"><![CDATA[
.edge:hover path { stroke: red; }
.edge:hover polygon { stroke: red; fill: red; }
]]></style>
<script type="text/javascript"><![CDATA[
var edges = document.getElementsByTagName('g');
if (edges && edges.length) {
  for (var i=0;i<edges.length;i++) {
    if (edges[i].id.substr(0,4)=='edge') {
      edges[i].setAttribute('class','edge');
    }
  }
}
]]></script>
        <defs>
                <circle id="rim" cx="0" cy="0" r="7"/>
                <circle id="rim2" cx="0" cy="0" r="3.5"/>
                <g id="zoomPlus">
                        <use xlink:href="#rim" fill="#404040">
                                <set attributeName="fill" to="#808080" begin="zoomplus.mouseover" end="zoomplus.mouseout"/>
                        </use>
                        <path d="M-4,0h8M0,-4v8" fill="none" stroke="white" stroke-width="1.5" pointer-events="none"/>
                </g>
                <g id="zoomMin">
                        <use xlink:href="#rim" fill="#404040">
                                <set attributeName="fill" to="#808080" begin="zoomminus.mouseover" end="zoomminus.mouseout"/>
                        </use>
                        <path d="M-4,0h8" fill="none" stroke="white" stroke-width="1.5" pointer-events="none"/>
                </g>
                <g id="dirArrow">
                        <path fill="none" stroke="white" stroke-width="1.5" d="M0,-3.0v7 M-2.5,-0.5L0,-3.0L2.5,-0.5"/>
                </g>
               <g id="resetDef">
                       <use xlink:href="#rim2" fill="#404040">
                               <set attributeName="fill" to="#808080" begin="reset.mouseover" end="reset.mouseout"/>
                       </use>
               </g>
        </defs>

<script type="text/javascript">
var viewWidth = 1046;
var viewHeight = 193;
var sectionId = 'dynsection-1';
</script>
<script xlink:href="svgpan.js"/>
<svg id="graph" class="graph">
<g id="viewport">
<title>tt::Board</title>
<polygon fill="white" stroke="transparent" points="-4,4 -4,-189 1042,-189 1042,4 -4,4"/>
<!-- Node1 -->
<g id="node1" class="node">
<title>Node1</title>
<g id="a_node1"><a xlink:title="8x8 game board">
<polygon fill="#bfbfbf" stroke="black" points="386,-44.5 386,-63.5 445,-63.5 445,-44.5 386,-44.5"/>
<text text-anchor="middle" x="415.5" y="-51.5" font-family="Helvetica,sans-Serif" font-size="10.00">tt::Board</text>
</a>
</g>
</g>
<!-- Node7 -->
<g id="node7" class="node">
<title>Node7</title>
<g id="a_node7"><a xlink:href="classtt_1_1Piece.html" target="_top" xlink:title="Generic board memeber piece API.">
<polygon fill="white" stroke="black" points="572.5,-104.5 572.5,-123.5 628.5,-123.5 628.5,-104.5 572.5,-104.5"/>
<text text-anchor="middle" x="600.5" y="-111.5" font-family="Helvetica,sans-Serif" font-size="10.00">tt::Piece</text>
</a>
</g>
</g>
<!-- Node1&#45;&gt;Node7 -->
<g id="edge9" class="edge">
<title>Node1&#45;&gt;Node7</title>
<path fill="none" stroke="#9a32cd" stroke-dasharray="5,2" d="M455.06,-63.99C479.11,-70.49 510.59,-79.51 538,-89 551.29,-93.6 565.88,-99.49 577.51,-104.4"/>
<polygon fill="#9a32cd" stroke="#9a32cd" points="455.81,-60.57 445.24,-61.36 454,-67.33 455.81,-60.57"/>
<text text-anchor="middle" x="511" y="-92" font-family="Helvetica,sans-Serif" font-size="10.00"> p_board</text>
</g>
<!-- Node2 -->
<g id="node2" class="node">
<title>Node2</title>
<g id="a_node2"><a target="_parent" xlink:href="https://en.cppreference.com/w/cpp/container/array.html" xlink:title=" ">
<polygon fill="white" stroke="black" points="160,-0.5 160,-19.5 211,-19.5 211,-0.5 160,-0.5"/>
<text text-anchor="middle" x="185.5" y="-7.5" font-family="Helvetica,sans-Serif" font-size="10.00">BoardT</text>
</a>
</g>
</g>
<!-- Node2&#45;&gt;Node1 -->
<g id="edge1" class="edge">
<title>Node2&#45;&gt;Node1</title>
<path fill="none" stroke="#8b1a1a" d="M221.23,-16.7C266.24,-25.39 343.91,-40.38 385.77,-48.46"/>
<polygon fill="#8b1a1a" stroke="#8b1a1a" points="221.82,-13.25 211.33,-14.79 220.49,-20.12 221.82,-13.25"/>
</g>
<!-- Node3 -->
<g id="node3" class="node">
<title>Node3</title>
<g id="a_node3"><a xlink:title=" ">
<polygon fill="white" stroke="#bfbfbf" points="0,-0.5 0,-19.5 29,-19.5 29,-0.5 0,-0.5"/>
<text text-anchor="middle" x="14.5" y="-7.5" font-family="Helvetica,sans-Serif" font-size="10.00">T</text>
</a>
</g>
</g>
<!-- Node3&#45;&gt;Node2 -->
<g id="edge2" class="edge">
<title>Node3&#45;&gt;Node2</title>
<path fill="none" stroke="#9a32cd" stroke-dasharray="5,2" d="M39.22,-10C71.12,-10 127.55,-10 159.89,-10"/>
<polygon fill="#9a32cd" stroke="#9a32cd" points="39.04,-6.5 29.04,-10 39.04,-13.5 39.04,-6.5"/>
<text text-anchor="middle" x="71.5" y="-13" font-family="Helvetica,sans-Serif" font-size="10.00"> elements</text>
</g>
<!-- Node4 -->
<g id="node4" class="node">
<title>Node4</title>
<g id="a_node4"><a target="_parent" xlink:href="https://en.cppreference.com/w/cpp/utility/functional/function.html" xlink:title=" ">
<polygon fill="white" stroke="black" points="114,-39 114,-69 257,-69 257,-39 114,-39"/>
<text text-anchor="start" x="122" y="-57" font-family="Helvetica,sans-Serif" font-size="10.00">std::function&lt; PieceTypes</text>
<text text-anchor="middle" x="185.5" y="-46" font-family="Helvetica,sans-Serif" font-size="10.00">RetT(PieceTypesArgT)&gt;</text>
</a>
</g>
</g>
<!-- Node4&#45;&gt;Node1 -->
<g id="edge3" class="edge">
<title>Node4&#45;&gt;Node1</title>
<path fill="none" stroke="#9a32cd" stroke-dasharray="5,2" d="M267.16,-54C308.5,-54 356.25,-54 385.91,-54"/>
<polygon fill="#9a32cd" stroke="#9a32cd" points="267.08,-50.5 257.08,-54 267.08,-57.5 267.08,-50.5"/>
<text text-anchor="middle" x="311" y="-57" font-family="Helvetica,sans-Serif" font-size="10.00"> b_pieceGetter</text>
</g>
<!-- Node5 -->
<g id="node5" class="node">
<title>Node5</title>
<g id="a_node5"><a target="_parent" xlink:href="https://en.cppreference.com/w/cpp/container/list.html" xlink:title=" ">
<polygon fill="white" stroke="black" points="919,-10 919,-40 1038,-40 1038,-10 919,-10"/>
<text text-anchor="start" x="927" y="-28" font-family="Helvetica,sans-Serif" font-size="10.00">std::list&lt; const Piece</text>
<text text-anchor="middle" x="978.5" y="-17" font-family="Helvetica,sans-Serif" font-size="10.00">::Turn * &gt;</text>
</a>
</g>
</g>
<!-- Node5&#45;&gt;Node1 -->
<g id="edge4" class="edge">
<title>Node5&#45;&gt;Node1</title>
<path fill="none" stroke="#9a32cd" stroke-dasharray="5,2" d="M908.7,-28.56C785.11,-34.95 530.44,-48.11 445.09,-52.52"/>
<polygon fill="#9a32cd" stroke="#9a32cd" points="909,-32.05 918.81,-28.03 908.64,-25.05 909,-32.05"/>
<text text-anchor="middle" x="687.5" y="-44" font-family="Helvetica,sans-Serif" font-size="10.00"> b_history</text>
</g>
<!-- Node6 -->
<g id="node6" class="node">
<title>Node6</title>
<g id="a_node6"><a xlink:href="classtt_1_1Piece_1_1Turn.html" target="_top" xlink:title="Generic Piece Turn on Board.">
<polygon fill="white" stroke="black" points="740.5,-112.5 740.5,-131.5 823.5,-131.5 823.5,-112.5 740.5,-112.5"/>
<text text-anchor="middle" x="782" y="-119.5" font-family="Helvetica,sans-Serif" font-size="10.00">tt::Piece::Turn</text>
</a>
</g>
</g>
<!-- Node6&#45;&gt;Node5 -->
<g id="edge5" class="edge">
<title>Node6&#45;&gt;Node5</title>
<path fill="none" stroke="#9a32cd" stroke-dasharray="5,2" d="M811.41,-107.83C847.63,-89.77 910,-58.66 947.13,-40.14"/>
<polygon fill="#9a32cd" stroke="#9a32cd" points="809.75,-104.75 802.36,-112.34 812.87,-111.01 809.75,-104.75"/>
<text text-anchor="middle" x="876.5" y="-88" font-family="Helvetica,sans-Serif" font-size="10.00"> elements</text>
</g>
<!-- Node7&#45;&gt;Node6 -->
<g id="edge6" class="edge">
<title>Node7&#45;&gt;Node6</title>
<path fill="none" stroke="#9a32cd" stroke-dasharray="5,2" d="M639.12,-115.68C668.78,-117 710.07,-118.84 740.46,-120.19"/>
<polygon fill="#9a32cd" stroke="#9a32cd" points="638.91,-112.16 628.76,-115.22 638.6,-119.16 638.91,-112.16"/>
<text text-anchor="middle" x="687.5" y="-132" font-family="Helvetica,sans-Serif" font-size="10.00"> t_capture</text>
<text text-anchor="middle" x="687.5" y="-121" font-family="Helvetica,sans-Serif" font-size="10.00">t_piece</text>
</g>
<!-- Node10 -->
<g id="node10" class="node">
<title>Node10</title>
<g id="a_node10"><a target="_parent" xlink:href="https://en.cppreference.com/w/cpp/container/forward_list.html" xlink:title=" ">
<polygon fill="white" stroke="black" points="730,-51 730,-81 834,-81 834,-51 730,-51"/>
<text text-anchor="start" x="738" y="-69" font-family="Helvetica,sans-Serif" font-size="10.00">std::forward_list&lt;</text>
<text text-anchor="middle" x="782" y="-58" font-family="Helvetica,sans-Serif" font-size="10.00"> const Piece * &gt;</text>
</a>
</g>
</g>
<!-- Node7&#45;&gt;Node10 -->
<g id="edge12" class="edge">
<title>Node7&#45;&gt;Node10</title>
<path fill="none" stroke="#9a32cd" stroke-dasharray="5,2" d="M638.74,-104.04C665.15,-96.98 700.9,-87.42 729.95,-79.65"/>
<polygon fill="#9a32cd" stroke="#9a32cd" points="637.52,-100.75 628.76,-106.71 639.33,-107.51 637.52,-100.75"/>
<text text-anchor="middle" x="687.5" y="-100" font-family="Helvetica,sans-Serif" font-size="10.00"> elements</text>
</g>
<!-- Node8 -->
<g id="node8" class="node">
<title>Node8</title>
<g id="a_node8"><a xlink:href="classtt_1_1Piece_1_1Position.html" target="_top" xlink:title="Piece position at the Board.">
<polygon fill="white" stroke="black" points="365,-158.5 365,-177.5 466,-177.5 466,-158.5 365,-158.5"/>
<text text-anchor="middle" x="415.5" y="-165.5" font-family="Helvetica,sans-Serif" font-size="10.00">tt::Piece::Position</text>
</a>
</g>
</g>
<!-- Node8&#45;&gt;Node6 -->
<g id="edge10" class="edge">
<title>Node8&#45;&gt;Node6</title>
<path fill="none" stroke="#9a32cd" stroke-dasharray="5,2" d="M476.2,-167.21C536.29,-165.47 631.37,-160.12 712,-144 726.8,-141.04 742.88,-136.02 755.8,-131.53"/>
<polygon fill="#9a32cd" stroke="#9a32cd" points="476.04,-163.71 466.13,-167.48 476.22,-170.71 476.04,-163.71"/>
<text text-anchor="middle" x="600.5" y="-177" font-family="Helvetica,sans-Serif" font-size="10.00"> t_from</text>
<text text-anchor="middle" x="600.5" y="-166" font-family="Helvetica,sans-Serif" font-size="10.00">t_to</text>
</g>
<!-- Node8&#45;&gt;Node7 -->
<g id="edge7" class="edge">
<title>Node8&#45;&gt;Node7</title>
<path fill="none" stroke="#9a32cd" stroke-dasharray="5,2" d="M458.47,-155.55C466.92,-153.05 475.74,-150.44 484,-148 514.27,-139.06 549.02,-128.84 572.43,-121.96"/>
<polygon fill="#9a32cd" stroke="#9a32cd" points="457.36,-152.23 448.77,-158.43 459.35,-158.94 457.36,-152.23"/>
<text text-anchor="middle" x="511" y="-151" font-family="Helvetica,sans-Serif" font-size="10.00"> p_position</text>
</g>
<!-- Node9 -->
<g id="node9" class="node">
<title>Node9</title>
<g id="a_node9"><a target="_parent" xlink:href="https://en.cppreference.com/w/cpp/types/size_t.html" xlink:title=" ">
<polygon fill="white" stroke="black" points="152.5,-96.5 152.5,-115.5 218.5,-115.5 218.5,-96.5 152.5,-96.5"/>
<text text-anchor="middle" x="185.5" y="-103.5" font-family="Helvetica,sans-Serif" font-size="10.00">std::size_t</text>
</a>
</g>
</g>
<!-- Node9&#45;&gt;Node1 -->
<g id="edge13" class="edge">
<title>Node9&#45;&gt;Node1</title>
<path fill="none" stroke="#9a32cd" stroke-dasharray="5,2" d="M228.58,-96.4C274.28,-85.98 346.05,-69.61 385.72,-60.56"/>
<polygon fill="#9a32cd" stroke="#9a32cd" points="227.65,-93.02 218.68,-98.66 229.21,-99.85 227.65,-93.02"/>
<text text-anchor="middle" x="311" y="-87" font-family="Helvetica,sans-Serif" font-size="10.00"> b_turnIndex</text>
</g>
<!-- Node9&#45;&gt;Node7 -->
<g id="edge8" class="edge">
<title>Node9&#45;&gt;Node7</title>
<path fill="none" stroke="#9a32cd" stroke-dasharray="5,2" d="M228.6,-106.82C313.27,-108.46 502.05,-112.11 572.4,-113.47"/>
<polygon fill="#9a32cd" stroke="#9a32cd" points="228.63,-103.32 218.56,-106.62 228.49,-110.31 228.63,-103.32"/>
<text text-anchor="middle" x="415.5" y="-125" font-family="Helvetica,sans-Serif" font-size="10.00"> p_movesMade</text>
<text text-anchor="middle" x="415.5" y="-114" font-family="Helvetica,sans-Serif" font-size="10.00">p_turnIndex</text>
</g>
<!-- Node10&#45;&gt;Node1 -->
<g id="edge11" class="edge">
<title>Node10&#45;&gt;Node1</title>
<path fill="none" stroke="#9a32cd" stroke-dasharray="5,2" d="M719.55,-63.98C639.82,-61.35 503.97,-56.88 445.1,-54.94"/>
<polygon fill="#9a32cd" stroke="#9a32cd" points="719.83,-67.49 729.94,-64.32 720.06,-60.49 719.83,-67.49"/>
<text text-anchor="middle" x="600.5" y="-64" font-family="Helvetica,sans-Serif" font-size="10.00"> b_capturedPieces</text>
</g>
</g>
</svg>
        <g id="navigator" transform="translate(0 0)" fill="#404254">
                <rect fill="#f2f5e9" fill-opacity="0.5" stroke="#606060" stroke-width=".5" x="0" y="0" width="60" height="60"/>
                <use id="zoomplus" xlink:href="#zoomPlus" x="17" y="9" onmousedown="handleZoom(evt,'in')"/>
                <use id="zoomminus" xlink:href="#zoomMin" x="42" y="9" onmousedown="handleZoom(evt,'out')"/>
                <use id="reset" xlink:href="#resetDef" x="30" y="36" onmousedown="handleReset()"/>
                <g id="arrowUp" xlink:href="#dirArrow" transform="translate(30 24)" onmousedown="handlePan(0,-1)">
                  <use xlink:href="#rim" fill="#404040">
                        <set attributeName="fill" to="#808080" begin="arrowUp.mouseover" end="arrowUp.mouseout"/>
                  </use>
                  <path fill="none" stroke="white" stroke-width="1.5" d="M0,-3.0v7 M-2.5,-0.5L0,-3.0L2.5,-0.5"/>
                </g>
                <g id="arrowRight" xlink:href="#dirArrow" transform="rotate(90) translate(36 -43)" onmousedown="handlePan(1,0)">
                  <use xlink:href="#rim" fill="#404040">
                        <set attributeName="fill" to="#808080" begin="arrowRight.mouseover" end="arrowRight.mouseout"/>
                  </use>
                  <path fill="none" stroke="white" stroke-width="1.5" d="M0,-3.0v7 M-2.5,-0.5L0,-3.0L2.5,-0.5"/>
                </g>
                <g id="arrowDown" xlink:href="#dirArrow" transform="rotate(180) translate(-30 -48)" onmousedown="handlePan(0,1)">
                  <use xlink:href="#rim" fill="#404040">
                        <set attributeName="fill" to="#808080" begin="arrowDown.mouseover" end="arrowDown.mouseout"/>
                  </use>
                  <path fill="none" stroke="white" stroke-width="1.5" d="M0,-3.0v7 M-2.5,-0.5L0,-3.0L2.5,-0.5"/>
                </g>
                <g id="arrowLeft" xlink:href="#dirArrow" transform="rotate(270) translate(-36 17)" onmousedown="handlePan(-1,0)">
                  <use xlink:href="#rim" fill="#404040">
                        <set attributeName="fill" to="#808080" begin="arrowLeft.mouseover" end="arrowLeft.mouseout"/>
                  </use>
                  <path fill="none" stroke="white" stroke-width="1.5" d="M0,-3.0v7 M-2.5,-0.5L0,-3.0L2.5,-0.5"/>
                </g>
        </g>
        <svg viewBox="0 0 15 15" width="100%" height="30px" preserveAspectRatio="xMaxYMin meet">
         <g id="arrow_out" transform="scale(0.3 0.3)">
          <a xlink:href="classtt_1_1Board__coll__graph_org.svg" target="_base">
           <rect id="button" ry="5" rx="5" y="6" x="6" height="38" width="38"
                fill="#f2f5e9" fill-opacity="0.5" stroke="#606060" stroke-width="1.0"/>
           <path id="arrow"
             d="M 11.500037,31.436501 C 11.940474,20.09759 22.043105,11.32322 32.158766,21.979434 L 37.068811,17.246167 C 37.068811,17.246167 37.088388,32 37.088388,32 L 22.160133,31.978069 C 22.160133,31.978069 26.997745,27.140456 26.997745,27.140456 C 18.528582,18.264221 13.291696,25.230495 11.500037,31.436501 z"
             style="fill:#404040;"/>
          </a>
         </g>
        </svg>
</svg>
