<?xml version="1.0" encoding="UTF-8" standalone="no"?>
<!DOCTYPE svg PUBLIC "-//W3C//DTD SVG 1.1//EN"
 "http://www.w3.org/Graphics/SVG/1.1/DTD/svg11.dtd">
<!-- Generated by graphviz version 2.43.0 (0)
 -->
<!-- Title: Graphical Class Hierarchy Pages: 1 -->
<svg width="197pt" height="218pt"
 viewBox="0.00 0.00 197.00 218.00" xmlns="http://www.w3.org/2000/svg" xmlns:xlink="http://www.w3.org/1999/xlink">
<g id="graph0" class="graph" transform="scale(1 1) rotate(0) translate(4 214)">
<title>Graphical Class Hierarchy</title>
<polygon fill="white" stroke="transparent" points="-4,4 -4,-214 193,-214 193,4 -4,4"/>
<!-- Node0 -->
<g id="node1" class="node">
<title>Node0</title>
<g id="a_node1"><a xlink:href="classtt_1_1Piece.html" target="_top" xlink:title="Generic board memeber piece API.">
<polygon fill="white" stroke="black" points="0,-95.5 0,-114.5 56,-114.5 56,-95.5 0,-95.5"/>
<text text-anchor="middle" x="28" y="-102.5" font-family="Helvetica,sans-Serif" font-size="10.00">tt::Piece</text>
</a>
</g>
</g>
<!-- Node1 -->
<g id="node2" class="node">
<title>Node1</title>
<g id="a_node2"><a xlink:href="classtt_1_1chess_1_1Bishop.html" target="_top" xlink:title="Bishop chess Piece.">
<polygon fill="white" stroke="black" points="92,-190.5 92,-209.5 189,-209.5 189,-190.5 92,-190.5"/>
<text text-anchor="middle" x="140.5" y="-197.5" font-family="Helvetica,sans-Serif" font-size="10.00">tt::chess::Bishop</text>
</a>
</g>
</g>
<!-- Node0&#45;&gt;Node1 -->
<g id="edge1" class="edge">
<title>Node0&#45;&gt;Node1</title>
<path fill="none" stroke="midnightblue" d="M40.23,-123.22C51.5,-140.18 70.26,-165.16 92,-181 97.17,-184.77 103.19,-187.92 109.17,-190.5"/>
<polygon fill="midnightblue" stroke="midnightblue" points="43.13,-121.25 34.78,-114.73 37.24,-125.03 43.13,-121.25"/>
</g>
<!-- Node2 -->
<g id="node3" class="node">
<title>Node2</title>
<g id="a_node3"><a xlink:href="classtt_1_1chess_1_1King.html" target="_top" xlink:title="King chess Piece.">
<polygon fill="white" stroke="black" points="97.5,-152.5 97.5,-171.5 183.5,-171.5 183.5,-152.5 97.5,-152.5"/>
<text text-anchor="middle" x="140.5" y="-159.5" font-family="Helvetica,sans-Serif" font-size="10.00">tt::chess::King</text>
</a>
</g>
</g>
<!-- Node0&#45;&gt;Node2 -->
<g id="edge2" class="edge">
<title>Node0&#45;&gt;Node2</title>
<path fill="none" stroke="midnightblue" d="M52.08,-120.16C63.78,-127.52 78.37,-136.22 92,-143 98.84,-146.4 106.44,-149.66 113.53,-152.49"/>
<polygon fill="midnightblue" stroke="midnightblue" points="53.7,-117.04 43.39,-114.6 49.93,-122.93 53.7,-117.04"/>
</g>
<!-- Node3 -->
<g id="node4" class="node">
<title>Node3</title>
<g id="a_node4"><a xlink:href="classtt_1_1chess_1_1Knight.html" target="_top" xlink:title="Knight chess Piece.">
<polygon fill="white" stroke="black" points="93,-114.5 93,-133.5 188,-133.5 188,-114.5 93,-114.5"/>
<text text-anchor="middle" x="140.5" y="-121.5" font-family="Helvetica,sans-Serif" font-size="10.00">tt::chess::Knight</text>
</a>
</g>
</g>
<!-- Node0&#45;&gt;Node3 -->
<g id="edge3" class="edge">
<title>Node0&#45;&gt;Node3</title>
<path fill="none" stroke="midnightblue" d="M66.13,-111.38C74.73,-112.86 83.99,-114.45 92.93,-115.99"/>
<polygon fill="midnightblue" stroke="midnightblue" points="66.48,-107.89 56.03,-109.65 65.29,-114.79 66.48,-107.89"/>
</g>
<!-- Node4 -->
<g id="node5" class="node">
<title>Node4</title>
<g id="a_node5"><a xlink:href="classtt_1_1chess_1_1Pawn.html" target="_top" xlink:title="Pawn chess Piece.">
<polygon fill="white" stroke="black" points="96,-76.5 96,-95.5 185,-95.5 185,-76.5 96,-76.5"/>
<text text-anchor="middle" x="140.5" y="-83.5" font-family="Helvetica,sans-Serif" font-size="10.00">tt::chess::Pawn</text>
</a>
</g>
</g>
<!-- Node0&#45;&gt;Node4 -->
<g id="edge4" class="edge">
<title>Node0&#45;&gt;Node4</title>
<path fill="none" stroke="midnightblue" d="M66.05,-98.63C75.65,-96.98 86.07,-95.19 95.96,-93.49"/>
<polygon fill="midnightblue" stroke="midnightblue" points="65.29,-95.21 56.03,-100.35 66.48,-102.11 65.29,-95.21"/>
</g>
<!-- Node5 -->
<g id="node6" class="node">
<title>Node5</title>
<g id="a_node6"><a xlink:href="classtt_1_1chess_1_1Queen.html" target="_top" xlink:title="Queen chess Piece.">
<polygon fill="white" stroke="black" points="93,-38.5 93,-57.5 188,-57.5 188,-38.5 93,-38.5"/>
<text text-anchor="middle" x="140.5" y="-45.5" font-family="Helvetica,sans-Serif" font-size="10.00">tt::chess::Queen</text>
</a>
</g>
</g>
<!-- Node0&#45;&gt;Node5 -->
<g id="edge5" class="edge">
<title>Node0&#45;&gt;Node5</title>
<path fill="none" stroke="midnightblue" d="M52.08,-89.84C63.78,-82.48 78.37,-73.78 92,-67 98.84,-63.6 106.44,-60.34 113.53,-57.51"/>
<polygon fill="midnightblue" stroke="midnightblue" points="49.93,-87.07 43.39,-95.4 53.7,-92.96 49.93,-87.07"/>
</g>
<!-- Node6 -->
<g id="node7" class="node">
<title>Node6</title>
<g id="a_node7"><a xlink:href="classtt_1_1chess_1_1Rook.html" target="_top" xlink:title="Rook chess Piece.">
<polygon fill="white" stroke="black" points="96,-0.5 96,-19.5 185,-19.5 185,-0.5 96,-0.5"/>
<text text-anchor="middle" x="140.5" y="-7.5" font-family="Helvetica,sans-Serif" font-size="10.00">tt::chess::Rook</text>
</a>
</g>
</g>
<!-- Node0&#45;&gt;Node6 -->
<g id="edge6" class="edge">
<title>Node0&#45;&gt;Node6</title>
<path fill="none" stroke="midnightblue" d="M40.23,-86.78C51.5,-69.82 70.26,-44.84 92,-29 97.17,-25.23 103.19,-22.08 109.17,-19.5"/>
<polygon fill="midnightblue" stroke="midnightblue" points="37.24,-84.97 34.78,-95.27 43.13,-88.75 37.24,-84.97"/>
</g>
</g>
</svg>
